<svg width="19" height="15" viewBox="0 0 19 15" fill="none" xmlns="http://www.w3.org/2000/svg">
<path d="M18.2727 1.7819C17.5859 2.07979 16.8597 2.27672 16.1165 2.36655C16.9006 1.89821 17.4881 1.16142 17.7702 0.292873C17.0334 0.731417 16.2268 1.0404 15.3856 1.20639C14.8233 0.596681 14.0745 0.19083 13.2567 0.0524829C12.4388 -0.085864 11.5982 0.051119 10.8666 0.441948C10.135 0.832777 9.55381 1.45535 9.21422 2.21201C8.87463 2.96868 8.79582 3.81665 8.99016 4.62292C7.50041 4.54758 6.04318 4.15973 4.71312 3.48456C3.38307 2.80939 2.20994 1.86201 1.26995 0.703953C0.940255 1.27962 0.767013 1.93155 0.767453 2.59493C0.766284 3.21098 0.917487 3.81777 1.2076 4.36126C1.49771 4.90475 1.91773 5.36809 2.43027 5.71001C1.83456 5.6938 1.25157 5.53397 0.730907 5.24411V5.28979C0.735372 6.15296 1.03788 6.98809 1.58727 7.65393C2.13666 8.31977 2.89919 8.77543 3.7459 8.94384C3.41997 9.04302 3.08157 9.09531 2.7409 9.09914C2.50508 9.09639 2.26985 9.075 2.0374 9.03519C2.27852 9.77771 2.74513 10.4266 3.37229 10.8916C3.99946 11.3566 4.75599 11.6145 5.53662 11.6296C4.21843 12.6667 2.59096 13.2327 0.913634 13.2374C0.608238 13.2384 0.303085 13.22 0 13.1825C1.71254 14.2881 3.70827 14.875 5.74676 14.8725C7.15347 14.8871 8.549 14.6213 9.85182 14.0906C11.1546 13.56 12.3386 12.775 13.3347 11.7817C14.3307 10.7883 15.1188 9.6065 15.6529 8.30521C16.187 7.00392 16.4564 5.60927 16.4454 4.20271C16.4454 4.04741 16.4454 3.88298 16.4454 3.71855C17.1623 3.18397 17.7807 2.52863 18.2727 1.7819Z" fill="black"/>
</svg>
