<svg width="1340" height="60" viewBox="0 0 1340 60" fill="none" xmlns="http://www.w3.org/2000/svg">
<line x1="4.37114e-08" y1="29.5" x2="1340" y2="29.5001" stroke="black"/>
<circle cx="666" cy="30" r="29.5" fill="#ECECEC" stroke="black"/>
<path d="M667.5 14C667.5 13.1716 666.828 12.5 666 12.5C665.172 12.5 664.5 13.1716 664.5 14L667.5 14ZM664.939 46.0607C665.525 46.6464 666.475 46.6464 667.061 46.0607L676.607 36.5147C677.192 35.9289 677.192 34.9792 676.607 34.3934C676.021 33.8076 675.071 33.8076 674.485 34.3934L666 42.8787L657.515 34.3934C656.929 33.8076 655.979 33.8076 655.393 34.3934C654.808 34.9792 654.808 35.9289 655.393 36.5147L664.939 46.0607ZM664.5 14L664.5 45L667.5 45L667.5 14L664.5 14Z" fill="black"/>
</svg>
