<svg width="185" height="46" viewBox="0 0 185 46" fill="none" xmlns="http://www.w3.org/2000/svg">
<path d="M0.5 23.149C0.5 10.8049 10.5069 0.798035 22.851 0.798035H161.533C173.877 0.798035 183.884 10.8049 183.884 23.149C183.884 35.4931 173.877 45.5 161.533 45.5H22.851C10.5069 45.5 0.5 35.4931 0.5 23.149Z" stroke="black"/>
<path d="M38.2428 12.9895C36.267 12.0686 34.1482 11.3902 31.9328 11.0016C31.8925 10.9941 31.8522 11.0129 31.8314 11.0504C31.3137 11.9856 30.3052 12.5644 29.2392 12.4841C28.0776 12.3966 26.9203 12.3958 25.7704 12.4816C24.7037 12.5613 23.6805 11.9852 23.1607 11.0504C23.14 11.0141 23.0997 10.9954 23.0593 11.0016C20.8452 11.389 18.7264 12.0674 16.7494 12.9895C16.7323 12.997 16.7176 13.0095 16.7078 13.0257C12.689 19.1242 11.588 25.0727 12.1281 30.9475C12.1306 30.9762 12.1464 31.0037 12.1684 31.0212C14.82 32.999 17.3884 34.1997 19.9092 34.9956C19.9496 35.0081 19.9923 34.9931 20.018 34.9594C20.6143 34.1323 21.1458 33.2602 21.6016 32.3431C21.6285 32.2894 21.6028 32.2257 21.5478 32.2044C20.7047 31.8796 19.9019 31.4835 19.1297 31.0337C19.0686 30.9975 19.0637 30.9088 19.1199 30.8663C19.2824 30.7426 19.4449 30.6139 19.6001 30.4839C19.6282 30.4602 19.6673 30.4552 19.7003 30.4702C24.7737 32.8229 30.2662 32.8229 35.2797 30.4702C35.3127 30.454 35.3518 30.459 35.3811 30.4827C35.5363 30.6126 35.6988 30.7426 35.8625 30.8663C35.9187 30.9088 35.9151 30.9975 35.854 31.0337C35.0817 31.4922 34.2789 31.8796 33.4346 32.2032C33.3796 32.2244 33.3552 32.2894 33.382 32.3431C33.8476 33.2589 34.3791 34.131 34.9644 34.9581C34.9889 34.9931 35.0328 35.0081 35.0732 34.9956C37.6062 34.1997 40.1746 32.999 42.8262 31.0212C42.8494 31.0037 42.8641 30.9775 42.8665 30.9487C43.5129 24.1568 41.7839 18.2571 38.2831 13.027C38.2746 13.0095 38.2599 12.997 38.2428 12.9895ZM22.3592 27.3704C20.8318 27.3704 19.5732 25.946 19.5732 24.1968C19.5732 22.4476 20.8073 21.0233 22.3592 21.0233C23.9232 21.0233 25.1696 22.4601 25.1451 24.1968C25.1451 25.946 23.911 27.3704 22.3592 27.3704ZM32.6599 27.3704C31.1325 27.3704 29.8739 25.946 29.8739 24.1968C29.8739 22.4476 31.1081 21.0233 32.6599 21.0233C34.2239 21.0233 35.4703 22.4601 35.4458 24.1968C35.4458 25.946 34.2239 27.3704 32.6599 27.3704Z" fill="black"/>
<path d="M53.2 15.98V30H63.34C65.06 30 66.58 29.86 67.88 29.56C69.2 29.28 70.24 28.92 71.02 28.48C71.78 28.04 72.4 27.5 72.9 26.86C73.38 26.24 73.7 25.64 73.86 25.04C74.04 24.46 74.12 23.84 74.12 23.18V22.6C74.12 22.04 74.06 21.52 73.92 21.02C73.8 20.52 73.58 20.02 73.3 19.5C73 18.98 72.58 18.52 72.04 18.12C71.5 17.7 70.84 17.34 70.06 17C69.3 16.66 68.34 16.42 67.18 16.24C66.04 16.06 64.74 15.98 63.32 15.98H53.2ZM57.98 19.28H62.96C67.06 19.28 69.1 20.48 69.1 22.9V23C69.1 25.42 67.06 26.62 62.96 26.62H57.98V19.28ZM80.2748 16H75.7348V18.88H80.2748V16ZM80.2748 19.86H75.7348V29.96H80.2748V19.86ZM89.3964 30.24H90.2364C91.6964 30.24 92.9164 30.16 93.9164 29.98C94.9164 29.8 95.6564 29.54 96.1564 29.2C96.6564 28.86 96.9964 28.5 97.1964 28.12C97.3964 27.74 97.4964 27.28 97.4964 26.78V26.66C97.4964 25.94 97.3364 25.36 97.0364 24.94C96.7364 24.52 96.1164 24.18 95.1964 23.92C94.2964 23.66 93.0164 23.52 91.3564 23.5L89.3964 23.46C88.5164 23.44 87.9164 23.36 87.5764 23.22C87.2564 23.1 87.0964 22.9 87.0964 22.64V22.62C87.0964 22.34 87.2764 22.14 87.6164 22.04C87.9764 21.92 88.6764 21.86 89.7164 21.86H89.7364C90.2964 21.86 90.7764 21.9 91.1764 21.96C91.5564 22.04 91.8364 22.12 91.9964 22.24C92.1564 22.36 92.2764 22.48 92.3164 22.56C92.3764 22.66 92.4164 22.76 92.4364 22.9H97.0964V22.76C97.0964 20.64 94.7964 19.6 90.1964 19.6H89.3764C88.2164 19.6 87.1964 19.66 86.3364 19.78C85.4764 19.9 84.7964 20.06 84.3164 20.24C83.8164 20.44 83.4364 20.68 83.1364 20.96C82.8364 21.24 82.6564 21.54 82.5564 21.8C82.4764 22.08 82.4364 22.4 82.4364 22.74V22.86C82.4364 23.26 82.5164 23.62 82.6964 23.96C82.8764 24.3 83.1764 24.62 83.5764 24.94C83.9964 25.26 84.6164 25.5 85.4164 25.68C86.2364 25.88 87.2164 25.98 88.3564 26L90.3164 26.04C91.3164 26.06 91.9564 26.14 92.2764 26.28C92.5764 26.42 92.7364 26.64 92.7364 26.92V26.96C92.7364 27.16 92.6764 27.3 92.5764 27.44C92.4564 27.56 92.1764 27.66 91.7364 27.76C91.2964 27.86 90.6764 27.92 89.8964 27.92H89.8564C87.9764 27.92 87.0364 27.46 87.0364 26.56H82.3364V26.66C82.3364 29.06 84.6764 30.24 89.3964 30.24ZM107.203 30.08H108.323C109.663 30.08 110.823 29.96 111.823 29.72C112.823 29.5 113.583 29.22 114.103 28.9C114.623 28.58 115.043 28.2 115.363 27.76C115.663 27.32 115.863 26.92 115.943 26.6C116.023 26.26 116.063 25.92 116.063 25.58V25.54H111.383C111.063 26.78 109.843 27.4 107.743 27.4H107.683C106.483 27.4 105.583 27.14 105.023 26.62C104.483 26.1 104.203 25.46 104.203 24.7V24.56C104.203 23.84 104.463 23.24 105.023 22.78C105.583 22.3 106.463 22.06 107.683 22.06H107.743C109.863 22.06 111.083 22.68 111.383 23.88H116.063V23.84C116.063 23.5 116.023 23.18 115.943 22.84C115.843 22.52 115.643 22.14 115.323 21.7C114.983 21.28 114.563 20.9 114.043 20.58C113.523 20.26 112.763 19.98 111.783 19.76C110.803 19.54 109.643 19.42 108.343 19.42H107.183C105.983 19.42 104.923 19.54 103.983 19.74C103.063 19.96 102.323 20.22 101.763 20.56C101.223 20.9 100.763 21.28 100.423 21.74C100.083 22.22 99.8434 22.66 99.7234 23.1C99.6034 23.56 99.5434 24.02 99.5434 24.5V24.88C99.5434 25.36 99.6034 25.84 99.7234 26.28C99.8434 26.74 100.083 27.2 100.423 27.68C100.783 28.16 101.243 28.56 101.783 28.9C102.323 29.24 103.063 29.52 104.003 29.74C104.943 29.96 106.003 30.08 107.203 30.08ZM127.038 30.06C132.278 30.06 134.898 28.32 134.898 24.84V24.5C134.898 21.1 132.278 19.4 127.038 19.4H125.578C124.358 19.4 123.258 19.5 122.318 19.72C121.378 19.92 120.618 20.18 120.038 20.52C119.458 20.86 118.998 21.24 118.638 21.72C118.278 22.18 118.038 22.62 117.898 23.08C117.758 23.54 117.698 24 117.698 24.5V24.84C117.698 25.34 117.758 25.82 117.898 26.28C118.038 26.74 118.278 27.2 118.658 27.68C119.018 28.14 119.478 28.56 120.058 28.9C120.638 29.24 121.398 29.5 122.338 29.72C123.278 29.94 124.378 30.06 125.598 30.06H127.038ZM126.318 27.34C124.898 27.34 123.878 27.08 123.278 26.56C122.658 26.06 122.358 25.44 122.358 24.74V24.64C122.358 23.9 122.658 23.28 123.258 22.8C123.858 22.32 124.878 22.08 126.318 22.08H126.338C127.738 22.08 128.758 22.32 129.358 22.82C129.978 23.3 130.278 23.92 130.278 24.64V24.74C130.278 25.44 129.978 26.06 129.358 26.56C128.758 27.08 127.738 27.34 126.318 27.34ZM145.035 19.36C144.235 19.36 143.535 19.5 142.875 19.78C142.235 20.06 141.775 20.34 141.495 20.6C141.235 20.86 141.015 21.14 140.835 21.4V19.58H136.575V29.9H140.855V24.58C140.855 23.86 141.055 23.28 141.455 22.8C141.855 22.32 142.595 22.14 143.115 22.08C143.635 22.02 149.775 22.08 149.775 22.08V19.36H145.035ZM164.409 15.88V21.1C163.089 20.04 161.249 19.5 158.889 19.5H158.569C156.249 19.5 154.549 19.96 153.449 20.9C152.369 21.84 151.829 23.04 151.829 24.52V24.88C151.829 26.4 152.389 27.66 153.549 28.62C154.689 29.6 156.429 30.08 158.749 30.08H159.009C159.829 30.08 160.589 30 161.289 29.86C161.989 29.72 162.529 29.54 162.969 29.32C163.389 29.12 163.709 28.92 163.949 28.76C164.169 28.58 164.349 28.44 164.449 28.3V29.84H168.989V15.88H164.409ZM164.409 24.74V24.8C164.409 25.5 164.049 26.12 163.309 26.64C162.569 27.16 161.569 27.42 160.289 27.42H160.189C158.949 27.42 158.009 27.16 157.409 26.64C156.789 26.12 156.489 25.5 156.489 24.8V24.74C156.489 23.98 156.769 23.36 157.309 22.88C157.869 22.38 158.809 22.14 160.149 22.14H160.249C161.529 22.14 162.529 22.4 163.289 22.92C164.029 23.42 164.409 24.04 164.409 24.74Z" fill="black"/>
</svg>
