<svg width="292" height="49" viewBox="0 0 292 49" fill="none" xmlns="http://www.w3.org/2000/svg">
<rect x="0.5" y="0.5" width="291" height="48" rx="24" fill="black" stroke="black"/>
<path d="M31.22 14.42V25.1C31.22 26.72 30.8 27.95 29.99 28.85C29.15 29.75 27.92 30.2 26.24 30.2H25.91C25.04 30.2 24.32 30.08 23.66 29.87C23.03 29.63 22.55 29.39 22.22 29.09C21.89 28.79 21.62 28.43 21.41 28.01C21.2 27.59 21.08 27.26 21.02 27.02C20.96 26.78 20.93 26.51 20.9 26.24H14.36V26.42C14.36 27.23 14.45 28.04 14.66 28.85C14.84 29.63 15.23 30.44 15.74 31.22C16.25 32 16.91 32.72 17.72 33.32C18.53 33.92 19.58 34.4 20.9 34.76C22.19 35.12 23.66 35.3 25.31 35.3H26.87C28.55 35.3 30.05 35.09 31.37 34.67C32.69 34.22 33.74 33.68 34.52 33.02C35.3 32.36 35.93 31.55 36.44 30.65C36.95 29.72 37.28 28.82 37.46 27.95C37.64 27.08 37.7 26.18 37.7 25.28V14.42H31.22ZM56.1467 13.67C54.1367 13.67 52.3367 13.79 50.6867 14.06C49.0667 14.3 47.6867 14.63 46.5767 15.05C45.4967 15.47 44.5367 15.98 43.7267 16.58C42.8867 17.18 42.2567 17.78 41.7767 18.38C41.3267 18.98 40.9667 19.64 40.6967 20.36C40.3967 21.08 40.2167 21.74 40.1567 22.28C40.0667 22.85 40.0367 23.42 40.0367 24.05V24.89C40.0367 25.49 40.0667 26.09 40.1567 26.66C40.2167 27.2 40.3967 27.86 40.6967 28.58C40.9667 29.3 41.3267 29.96 41.7767 30.59C42.2567 31.19 42.8867 31.79 43.7267 32.42C44.5667 33.02 45.5267 33.53 46.6067 33.98C47.6867 34.4 49.0667 34.73 50.6867 35C52.3367 35.27 54.1367 35.39 56.1467 35.39H57.1067C59.1167 35.39 60.9167 35.27 62.5367 35C64.1867 34.73 65.5367 34.4 66.6167 33.98C67.6967 33.53 68.6567 33.02 69.4967 32.42C70.3367 31.79 70.9667 31.19 71.4167 30.59C71.8667 29.96 72.2267 29.3 72.5267 28.58C72.7967 27.86 73.0067 27.2 73.0667 26.66C73.1567 26.09 73.1867 25.49 73.1867 24.89V24.05C73.1867 23.42 73.1567 22.85 73.0667 22.28C73.0067 21.71 72.7967 21.08 72.5267 20.36C72.2267 19.64 71.8667 18.98 71.3867 18.38C70.9367 17.78 70.3067 17.18 69.4667 16.58C68.6567 15.98 67.6967 15.47 66.6167 15.05C65.5067 14.63 64.1567 14.3 62.5367 14.06C60.9167 13.79 59.1167 13.67 57.1067 13.67H56.1467ZM65.6867 24.65C65.6867 25.31 65.5667 25.97 65.2967 26.57C65.0567 27.17 64.6067 27.77 63.9767 28.34C63.3467 28.94 62.3867 29.42 61.0967 29.75C59.9867 30.08 58.6367 30.23 57.1067 30.29C56.8667 30.29 56.5067 30.29 56.3567 30.29C54.7067 30.26 53.2667 30.08 52.0667 29.75C50.7767 29.39 49.8467 28.91 49.2167 28.31C48.6167 27.71 48.1667 27.11 47.9267 26.51C47.6567 25.91 47.5367 25.25 47.5367 24.59V24.26C47.5367 20.69 50.4467 18.86 56.2367 18.74C56.4167 18.74 56.9567 18.74 57.2267 18.77C58.3967 18.8 59.4467 18.89 60.3767 19.1C61.4867 19.34 62.3867 19.64 63.0467 20C63.7067 20.33 64.2467 20.78 64.6367 21.29C65.0567 21.8 65.3267 22.28 65.4767 22.76C65.6267 23.21 65.6867 23.72 65.6867 24.26V24.65ZM83.0272 14.06H75.8872V35H83.0272V14.06ZM86.6398 14.03V35.03H93.6898V21.11L109.23 35.03H116.31V14.03H109.23V27.23L94.6198 14.03H86.6398ZM150.704 35.06C152.894 35.06 154.844 34.79 156.554 34.28C158.264 33.77 159.614 33.11 160.604 32.33C161.564 31.55 162.374 30.65 163.004 29.63C163.604 28.58 164.024 27.62 164.264 26.72C164.474 25.85 164.564 24.95 164.564 24.08V14.03H157.484V23.69C157.484 24.44 157.394 25.13 157.184 25.76C156.974 26.42 156.584 27.05 156.074 27.68C155.564 28.28 154.784 28.79 153.764 29.15C152.744 29.51 151.514 29.69 150.074 29.69C148.634 29.69 147.374 29.51 146.324 29.15C145.304 28.79 144.524 28.28 144.014 27.68C143.504 27.05 143.144 26.42 142.934 25.76C142.724 25.13 142.604 24.44 142.604 23.69V14.03H135.524V24.08C135.524 24.71 135.554 25.31 135.644 25.94C135.734 26.54 135.914 27.23 136.184 27.95C136.454 28.7 136.814 29.39 137.234 30.05C137.654 30.71 138.254 31.34 138.974 31.97C139.694 32.6 140.534 33.14 141.494 33.59C142.454 34.04 143.624 34.4 145.004 34.67C146.384 34.94 147.914 35.06 149.594 35.06H150.704ZM180.246 35.39H182.346C184.566 35.39 186.516 35.27 188.166 34.97C189.816 34.7 191.106 34.37 192.066 33.92C193.026 33.5 193.776 32.96 194.346 32.33C194.916 31.67 195.306 31.04 195.486 30.44C195.666 29.84 195.756 29.15 195.756 28.37V27.98C195.756 25.85 194.826 24.32 192.906 23.33C191.016 22.34 187.956 21.8 183.666 21.74L181.506 21.71L179.826 21.68C178.356 21.65 177.216 21.56 176.406 21.38C175.596 21.17 175.086 20.96 174.876 20.75C174.636 20.51 174.546 20.24 174.546 19.88C174.546 19.49 174.636 19.19 174.846 18.98C175.026 18.77 175.596 18.56 176.496 18.35C177.426 18.17 178.506 18.08 180.246 18.08H181.296C182.436 18.08 183.096 18.14 183.936 18.26C184.776 18.41 185.436 18.56 185.856 18.71C186.306 18.89 186.636 19.1 186.906 19.37C187.176 19.64 187.356 19.85 187.416 20C187.476 20.15 187.536 20.36 187.596 20.57H195.036V20.3C195.036 19.61 194.916 18.98 194.676 18.38C194.466 17.81 194.046 17.21 193.446 16.61C192.846 16.01 192.066 15.5 191.106 15.08C190.146 14.66 188.886 14.33 187.266 14.06C185.676 13.79 183.816 13.67 181.746 13.67H179.616C177.606 13.67 175.836 13.79 174.336 14.06C172.806 14.3 171.606 14.63 170.706 15.02C169.806 15.41 169.086 15.89 168.546 16.46C167.976 17.06 167.616 17.63 167.436 18.2C167.256 18.77 167.166 19.4 167.166 20.06V20.33C167.166 24.23 170.886 26.3 178.326 26.48L180.006 26.51L182.256 26.57C183.966 26.6 185.256 26.72 186.156 26.9C187.056 27.11 187.656 27.35 187.896 27.59C188.136 27.86 188.256 28.22 188.256 28.67C188.256 29 188.196 29.27 188.046 29.51C187.896 29.75 187.626 29.96 187.176 30.2C186.756 30.44 186.066 30.59 185.136 30.71C184.176 30.83 183.576 30.92 182.136 30.92H180.486C176.106 30.92 174.486 29.81 174.336 27.59H166.866V27.89C166.866 28.55 166.926 29.18 167.076 29.75C167.226 30.32 167.586 30.98 168.126 31.7C168.666 32.42 169.416 33.05 170.316 33.56C171.246 34.07 172.566 34.49 174.276 34.85C175.956 35.21 177.966 35.39 180.246 35.39Z" fill="white"/>
<path d="M250.586 33.5858C249.805 34.3668 249.805 35.6332 250.586 36.4142C251.367 37.1953 252.633 37.1953 253.414 36.4142L250.586 33.5858ZM273 16C273 14.8954 272.105 14 271 14L253 14C251.895 14 251 14.8954 251 16C251 17.1046 251.895 18 253 18L269 18L269 34C269 35.1046 269.895 36 271 36C272.105 36 273 35.1046 273 34L273 16ZM253.414 36.4142L272.414 17.4142L269.586 14.5858L250.586 33.5858L253.414 36.4142Z" fill="white"/>
</svg>
