<svg width="38" height="38" viewBox="0 0 38 38" fill="none" xmlns="http://www.w3.org/2000/svg">
<circle cx="19" cy="19" r="18.5" transform="rotate(90 19 19)" fill="#ECECEC" stroke="black"/>
<path d="M29.1333 20.5C29.9617 20.5 30.6333 19.8284 30.6333 19C30.6333 18.1716 29.9617 17.5 29.1333 17.5L29.1333 20.5ZM8.43931 17.9393C7.85352 18.5251 7.85352 19.4749 8.43931 20.0607L17.9853 29.6066C18.571 30.1924 19.5208 30.1924 20.1066 29.6066C20.6924 29.0208 20.6924 28.0711 20.1066 27.4853L11.6213 19L20.1066 10.5147C20.6924 9.92893 20.6924 8.97918 20.1066 8.3934C19.5208 7.80761 18.571 7.80761 17.9853 8.3934L8.43931 17.9393ZM29.1333 17.5L9.49997 17.5L9.49997 20.5L29.1333 20.5L29.1333 17.5Z" fill="black"/>
</svg>
