<svg width="1340" height="258" viewBox="0 0 1340 258" fill="none" xmlns="http://www.w3.org/2000/svg">
<mask id="path-1-inside-1_57_20" fill="white">
<path d="M32.055 144.836V254.701H74.7949V77.3433H41.1101C33.866 98.6567 20.2834 109.821 0 111.597V144.836H32.055Z"/>
<path d="M172.762 254.701H423.045C436.446 254.701 448.037 253.687 457.997 251.403C467.958 249.119 475.926 246.075 481.541 242.522C487.336 238.716 492.044 234.149 495.485 228.821C498.926 223.493 501.281 218.164 502.367 212.836C503.454 207.761 503.997 201.925 503.997 195.328V192.03C503.997 174.269 498.202 161.075 486.792 152.701C475.383 144.582 456.73 140.015 431.013 139.254L417.974 139L170.227 138.746C161.353 138.746 154.471 137.731 149.581 136.209C144.692 134.687 141.613 132.91 140.345 130.881C138.896 129.104 138.353 126.567 138.353 123.522C138.353 120.478 138.896 117.94 140.164 116.164C141.251 114.134 144.692 112.358 150.125 110.836C155.739 109.06 162.259 108.299 172.762 108.299H416.706C423.588 108.299 427.391 108.806 432.643 110.075C437.714 111.09 441.517 112.358 444.234 113.881C446.769 115.149 448.942 117.179 450.572 119.209C452.202 121.493 453.108 123.269 453.651 124.537C454.013 126.06 454.375 127.582 454.556 129.612H499.47V127.075C499.47 121.493 498.926 116.164 497.477 111.09C496.21 106.015 493.674 100.94 490.052 95.8657C486.249 90.791 481.541 86.4776 475.926 82.9254C470.131 79.6269 462.344 76.5821 452.745 74.2985C443.147 72.2687 431.919 71 419.242 71H168.959C156.825 71 146.14 72.2687 137.085 74.2985C127.849 76.3284 120.605 79.1194 115.172 82.4179C109.739 85.9702 105.393 90.0298 102.133 94.8507C98.6919 99.6716 96.5186 104.493 95.432 109.313C94.3454 114.134 93.8021 119.463 93.8021 125.298V127.328C93.8021 160.567 116.259 177.821 161.172 179.343L171.314 179.597L422.501 180.104C432.824 180.358 440.612 181.373 446.045 183.149C451.478 184.672 454.919 186.701 456.367 188.985C457.997 191.269 458.722 194.313 458.722 198.119C458.722 200.657 458.178 203.194 457.454 204.97C456.549 207 454.738 209.03 452.202 210.806C449.667 212.836 445.501 214.358 439.706 215.373C434.092 216.388 430.289 216.896 421.777 216.896H174.211C147.77 216.896 137.991 207.507 137.085 188.731H91.9911V191.269C91.9911 196.851 92.3533 202.179 93.2588 207C94.1643 212.075 96.3375 217.657 99.5974 223.746C102.857 229.836 107.385 234.91 112.818 239.224C118.432 243.537 126.4 247.343 136.723 250.388C146.865 253.433 158.999 254.701 172.762 254.701Z"/>
<path d="M520.799 254.701H563.901V184.925H656.444V254.701H699.727V77.597H656.444V142.045H563.901V77.597H520.799V254.701Z"/>
<path d="M813.354 74.2985C801.22 74.2985 790.354 75.3134 780.393 77.597C770.614 79.6269 762.283 82.4179 755.583 85.9702C749.063 89.5224 743.268 93.8358 738.378 98.9105C733.307 103.985 729.504 109.06 726.606 114.134C723.89 119.209 721.717 124.791 720.087 130.881C718.276 136.97 717.189 142.552 716.827 147.119C716.284 151.94 716.102 156.761 716.102 162.09V169.194C716.102 174.269 716.284 179.343 716.827 184.164C717.189 188.731 718.276 194.313 720.087 200.403C721.717 206.493 723.89 212.075 726.606 217.403C729.504 222.478 733.307 227.552 738.378 232.881C743.449 237.955 749.244 242.269 755.764 246.075C762.283 249.627 770.614 252.418 780.393 254.701C790.354 256.985 801.22 258 813.354 258H819.149C831.283 258 842.149 256.985 851.929 254.701C861.889 252.418 870.039 249.627 876.558 246.075C883.078 242.269 888.873 237.955 893.944 232.881C899.015 227.552 902.818 222.478 905.535 217.403C908.251 212.075 910.424 206.493 912.235 200.403C913.865 194.313 915.133 188.731 915.495 184.164C916.039 179.343 916.22 174.269 916.22 169.194V162.09C916.22 156.761 916.039 151.94 915.495 147.119C915.133 142.299 913.865 136.97 912.235 130.881C910.424 124.791 908.251 119.209 905.354 114.134C902.637 109.06 898.834 103.985 893.763 98.9105C888.873 93.8358 883.078 89.5224 876.558 85.9702C869.858 82.4179 861.708 79.6269 851.929 77.597C842.149 75.3134 831.283 74.2985 819.149 74.2985H813.354ZM870.944 167.164C870.944 172.746 870.22 178.328 868.59 183.403C867.141 188.478 864.425 193.552 860.621 198.373C856.818 203.448 851.023 207.507 843.236 210.299C836.535 213.09 828.385 214.358 819.149 214.866C817.7 214.866 815.527 214.866 814.622 214.866C804.661 214.612 795.968 213.09 788.724 210.299C780.937 207.254 775.323 203.194 771.519 198.119C767.897 193.045 765.181 187.97 763.732 182.896C762.102 177.821 761.378 172.239 761.378 166.657V163.866C761.378 133.672 778.945 118.194 813.897 117.179C814.984 117.179 818.244 117.179 819.874 117.433C826.937 117.687 833.275 118.448 838.889 120.224C845.59 122.254 851.023 124.791 855.007 127.836C858.992 130.627 862.251 134.433 864.606 138.746C867.141 143.06 868.771 147.119 869.677 151.179C870.582 154.985 870.944 159.299 870.944 163.866V167.164Z"/>
<path d="M1008.77 254.701H1259.05C1272.45 254.701 1284.04 253.687 1294 251.403C1303.96 249.119 1311.93 246.075 1317.54 242.522C1323.34 238.716 1328.05 234.149 1331.49 228.821C1334.93 223.493 1337.28 218.164 1338.37 212.836C1339.46 207.761 1340 201.925 1340 195.328V192.03C1340 174.269 1334.2 161.075 1322.8 152.701C1311.39 144.582 1292.73 140.015 1267.02 139.254L1253.98 139L1006.23 138.746C997.356 138.746 990.474 137.731 985.584 136.209C980.695 134.687 977.616 132.91 976.348 130.881C974.899 129.104 974.356 126.567 974.356 123.522C974.356 120.478 974.899 117.94 976.167 116.164C977.254 114.134 980.695 112.358 986.128 110.836C991.742 109.06 998.261 108.299 1008.77 108.299H1252.71C1259.59 108.299 1263.39 108.806 1268.65 110.075C1273.72 111.09 1277.52 112.358 1280.24 113.881C1282.77 115.149 1284.95 117.179 1286.58 119.209C1288.2 121.493 1289.11 123.269 1289.65 124.537C1290.02 126.06 1290.38 127.582 1290.56 129.612H1335.47V127.075C1335.47 121.493 1334.93 116.164 1333.48 111.09C1332.21 106.015 1329.68 100.94 1326.06 95.8657C1322.25 90.791 1317.54 86.4776 1311.93 82.9254C1306.13 79.6269 1298.35 76.5821 1288.75 74.2985C1279.15 72.2687 1267.92 71 1255.24 71H1004.96C992.828 71 982.143 72.2687 973.088 74.2985C963.852 76.3284 956.608 79.1194 951.175 82.4179C945.742 85.9702 941.396 90.0298 938.136 94.8507C934.695 99.6716 932.522 104.493 931.435 109.313C930.348 114.134 929.805 119.463 929.805 125.298V127.328C929.805 160.567 952.262 177.821 997.175 179.343L1007.32 179.597L1258.5 180.104C1268.83 180.358 1276.61 181.373 1282.05 183.149C1287.48 184.672 1290.92 186.701 1292.37 188.985C1294 191.269 1294.72 194.313 1294.72 198.119C1294.72 200.657 1294.18 203.194 1293.46 204.97C1292.55 207 1290.74 209.03 1288.21 210.806C1285.67 212.836 1281.5 214.358 1275.71 215.373C1270.09 216.388 1266.29 216.896 1257.78 216.896H1010.21C983.773 216.896 973.994 207.507 973.088 188.731H927.994V191.269C927.994 196.851 928.356 202.179 929.262 207C930.167 212.075 932.341 217.657 935.6 223.746C938.86 229.836 943.388 234.91 948.821 239.224C954.435 243.537 962.403 247.343 972.726 250.388C982.868 253.433 995.002 254.701 1008.77 254.701Z"/>
</mask>
<path d="M32.055 144.836V254.701H74.7949V77.3433H41.1101C33.866 98.6567 20.2834 109.821 0 111.597V144.836H32.055Z" fill="#ECECEC"/>
<path d="M172.762 254.701H423.045C436.446 254.701 448.037 253.687 457.997 251.403C467.958 249.119 475.926 246.075 481.541 242.522C487.336 238.716 492.044 234.149 495.485 228.821C498.926 223.493 501.281 218.164 502.367 212.836C503.454 207.761 503.997 201.925 503.997 195.328V192.03C503.997 174.269 498.202 161.075 486.792 152.701C475.383 144.582 456.73 140.015 431.013 139.254L417.974 139L170.227 138.746C161.353 138.746 154.471 137.731 149.581 136.209C144.692 134.687 141.613 132.91 140.345 130.881C138.896 129.104 138.353 126.567 138.353 123.522C138.353 120.478 138.896 117.94 140.164 116.164C141.251 114.134 144.692 112.358 150.125 110.836C155.739 109.06 162.259 108.299 172.762 108.299H416.706C423.588 108.299 427.391 108.806 432.643 110.075C437.714 111.09 441.517 112.358 444.234 113.881C446.769 115.149 448.942 117.179 450.572 119.209C452.202 121.493 453.108 123.269 453.651 124.537C454.013 126.06 454.375 127.582 454.556 129.612H499.47V127.075C499.47 121.493 498.926 116.164 497.477 111.09C496.21 106.015 493.674 100.94 490.052 95.8657C486.249 90.791 481.541 86.4776 475.926 82.9254C470.131 79.6269 462.344 76.5821 452.745 74.2985C443.147 72.2687 431.919 71 419.242 71H168.959C156.825 71 146.14 72.2687 137.085 74.2985C127.849 76.3284 120.605 79.1194 115.172 82.4179C109.739 85.9702 105.393 90.0298 102.133 94.8507C98.6919 99.6716 96.5186 104.493 95.432 109.313C94.3454 114.134 93.8021 119.463 93.8021 125.298V127.328C93.8021 160.567 116.259 177.821 161.172 179.343L171.314 179.597L422.501 180.104C432.824 180.358 440.612 181.373 446.045 183.149C451.478 184.672 454.919 186.701 456.367 188.985C457.997 191.269 458.722 194.313 458.722 198.119C458.722 200.657 458.178 203.194 457.454 204.97C456.549 207 454.738 209.03 452.202 210.806C449.667 212.836 445.501 214.358 439.706 215.373C434.092 216.388 430.289 216.896 421.777 216.896H174.211C147.77 216.896 137.991 207.507 137.085 188.731H91.9911V191.269C91.9911 196.851 92.3533 202.179 93.2588 207C94.1643 212.075 96.3375 217.657 99.5974 223.746C102.857 229.836 107.385 234.91 112.818 239.224C118.432 243.537 126.4 247.343 136.723 250.388C146.865 253.433 158.999 254.701 172.762 254.701Z" fill="#ECECEC"/>
<path d="M520.799 254.701H563.901V184.925H656.444V254.701H699.727V77.597H656.444V142.045H563.901V77.597H520.799V254.701Z" fill="#ECECEC"/>
<path d="M813.354 74.2985C801.22 74.2985 790.354 75.3134 780.393 77.597C770.614 79.6269 762.283 82.4179 755.583 85.9702C749.063 89.5224 743.268 93.8358 738.378 98.9105C733.307 103.985 729.504 109.06 726.606 114.134C723.89 119.209 721.717 124.791 720.087 130.881C718.276 136.97 717.189 142.552 716.827 147.119C716.284 151.94 716.102 156.761 716.102 162.09V169.194C716.102 174.269 716.284 179.343 716.827 184.164C717.189 188.731 718.276 194.313 720.087 200.403C721.717 206.493 723.89 212.075 726.606 217.403C729.504 222.478 733.307 227.552 738.378 232.881C743.449 237.955 749.244 242.269 755.764 246.075C762.283 249.627 770.614 252.418 780.393 254.701C790.354 256.985 801.22 258 813.354 258H819.149C831.283 258 842.149 256.985 851.929 254.701C861.889 252.418 870.039 249.627 876.558 246.075C883.078 242.269 888.873 237.955 893.944 232.881C899.015 227.552 902.818 222.478 905.535 217.403C908.251 212.075 910.424 206.493 912.235 200.403C913.865 194.313 915.133 188.731 915.495 184.164C916.039 179.343 916.22 174.269 916.22 169.194V162.09C916.22 156.761 916.039 151.94 915.495 147.119C915.133 142.299 913.865 136.97 912.235 130.881C910.424 124.791 908.251 119.209 905.354 114.134C902.637 109.06 898.834 103.985 893.763 98.9105C888.873 93.8358 883.078 89.5224 876.558 85.9702C869.858 82.4179 861.708 79.6269 851.929 77.597C842.149 75.3134 831.283 74.2985 819.149 74.2985H813.354ZM870.944 167.164C870.944 172.746 870.22 178.328 868.59 183.403C867.141 188.478 864.425 193.552 860.621 198.373C856.818 203.448 851.023 207.507 843.236 210.299C836.535 213.09 828.385 214.358 819.149 214.866C817.7 214.866 815.527 214.866 814.622 214.866C804.661 214.612 795.968 213.09 788.724 210.299C780.937 207.254 775.323 203.194 771.519 198.119C767.897 193.045 765.181 187.97 763.732 182.896C762.102 177.821 761.378 172.239 761.378 166.657V163.866C761.378 133.672 778.945 118.194 813.897 117.179C814.984 117.179 818.244 117.179 819.874 117.433C826.937 117.687 833.275 118.448 838.889 120.224C845.59 122.254 851.023 124.791 855.007 127.836C858.992 130.627 862.251 134.433 864.606 138.746C867.141 143.06 868.771 147.119 869.677 151.179C870.582 154.985 870.944 159.299 870.944 163.866V167.164Z" fill="#ECECEC"/>
<path d="M1008.77 254.701H1259.05C1272.45 254.701 1284.04 253.687 1294 251.403C1303.96 249.119 1311.93 246.075 1317.54 242.522C1323.34 238.716 1328.05 234.149 1331.49 228.821C1334.93 223.493 1337.28 218.164 1338.37 212.836C1339.46 207.761 1340 201.925 1340 195.328V192.03C1340 174.269 1334.2 161.075 1322.8 152.701C1311.39 144.582 1292.73 140.015 1267.02 139.254L1253.98 139L1006.23 138.746C997.356 138.746 990.474 137.731 985.584 136.209C980.695 134.687 977.616 132.91 976.348 130.881C974.899 129.104 974.356 126.567 974.356 123.522C974.356 120.478 974.899 117.94 976.167 116.164C977.254 114.134 980.695 112.358 986.128 110.836C991.742 109.06 998.261 108.299 1008.77 108.299H1252.71C1259.59 108.299 1263.39 108.806 1268.65 110.075C1273.72 111.09 1277.52 112.358 1280.24 113.881C1282.77 115.149 1284.95 117.179 1286.58 119.209C1288.2 121.493 1289.11 123.269 1289.65 124.537C1290.02 126.06 1290.38 127.582 1290.56 129.612H1335.47V127.075C1335.47 121.493 1334.93 116.164 1333.48 111.09C1332.21 106.015 1329.68 100.94 1326.06 95.8657C1322.25 90.791 1317.54 86.4776 1311.93 82.9254C1306.13 79.6269 1298.35 76.5821 1288.75 74.2985C1279.15 72.2687 1267.92 71 1255.24 71H1004.96C992.828 71 982.143 72.2687 973.088 74.2985C963.852 76.3284 956.608 79.1194 951.175 82.4179C945.742 85.9702 941.396 90.0298 938.136 94.8507C934.695 99.6716 932.522 104.493 931.435 109.313C930.348 114.134 929.805 119.463 929.805 125.298V127.328C929.805 160.567 952.262 177.821 997.175 179.343L1007.32 179.597L1258.5 180.104C1268.83 180.358 1276.61 181.373 1282.05 183.149C1287.48 184.672 1290.92 186.701 1292.37 188.985C1294 191.269 1294.72 194.313 1294.72 198.119C1294.72 200.657 1294.18 203.194 1293.46 204.97C1292.55 207 1290.74 209.03 1288.21 210.806C1285.67 212.836 1281.5 214.358 1275.71 215.373C1270.09 216.388 1266.29 216.896 1257.78 216.896H1010.21C983.773 216.896 973.994 207.507 973.088 188.731H927.994V191.269C927.994 196.851 928.356 202.179 929.262 207C930.167 212.075 932.341 217.657 935.6 223.746C938.86 229.836 943.388 234.91 948.821 239.224C954.435 243.537 962.403 247.343 972.726 250.388C982.868 253.433 995.002 254.701 1008.77 254.701Z" fill="#ECECEC"/>
<path d="M32.055 144.836V254.701H74.7949V77.3433H41.1101C33.866 98.6567 20.2834 109.821 0 111.597V144.836H32.055Z" stroke="black" stroke-width="4" mask="url(#path-1-inside-1_57_20)"/>
<path d="M172.762 254.701H423.045C436.446 254.701 448.037 253.687 457.997 251.403C467.958 249.119 475.926 246.075 481.541 242.522C487.336 238.716 492.044 234.149 495.485 228.821C498.926 223.493 501.281 218.164 502.367 212.836C503.454 207.761 503.997 201.925 503.997 195.328V192.03C503.997 174.269 498.202 161.075 486.792 152.701C475.383 144.582 456.73 140.015 431.013 139.254L417.974 139L170.227 138.746C161.353 138.746 154.471 137.731 149.581 136.209C144.692 134.687 141.613 132.91 140.345 130.881C138.896 129.104 138.353 126.567 138.353 123.522C138.353 120.478 138.896 117.94 140.164 116.164C141.251 114.134 144.692 112.358 150.125 110.836C155.739 109.06 162.259 108.299 172.762 108.299H416.706C423.588 108.299 427.391 108.806 432.643 110.075C437.714 111.09 441.517 112.358 444.234 113.881C446.769 115.149 448.942 117.179 450.572 119.209C452.202 121.493 453.108 123.269 453.651 124.537C454.013 126.06 454.375 127.582 454.556 129.612H499.47V127.075C499.47 121.493 498.926 116.164 497.477 111.09C496.21 106.015 493.674 100.94 490.052 95.8657C486.249 90.791 481.541 86.4776 475.926 82.9254C470.131 79.6269 462.344 76.5821 452.745 74.2985C443.147 72.2687 431.919 71 419.242 71H168.959C156.825 71 146.14 72.2687 137.085 74.2985C127.849 76.3284 120.605 79.1194 115.172 82.4179C109.739 85.9702 105.393 90.0298 102.133 94.8507C98.6919 99.6716 96.5186 104.493 95.432 109.313C94.3454 114.134 93.8021 119.463 93.8021 125.298V127.328C93.8021 160.567 116.259 177.821 161.172 179.343L171.314 179.597L422.501 180.104C432.824 180.358 440.612 181.373 446.045 183.149C451.478 184.672 454.919 186.701 456.367 188.985C457.997 191.269 458.722 194.313 458.722 198.119C458.722 200.657 458.178 203.194 457.454 204.97C456.549 207 454.738 209.03 452.202 210.806C449.667 212.836 445.501 214.358 439.706 215.373C434.092 216.388 430.289 216.896 421.777 216.896H174.211C147.77 216.896 137.991 207.507 137.085 188.731H91.9911V191.269C91.9911 196.851 92.3533 202.179 93.2588 207C94.1643 212.075 96.3375 217.657 99.5974 223.746C102.857 229.836 107.385 234.91 112.818 239.224C118.432 243.537 126.4 247.343 136.723 250.388C146.865 253.433 158.999 254.701 172.762 254.701Z" stroke="black" stroke-width="4" mask="url(#path-1-inside-1_57_20)"/>
<path d="M520.799 254.701H563.901V184.925H656.444V254.701H699.727V77.597H656.444V142.045H563.901V77.597H520.799V254.701Z" stroke="black" stroke-width="4" mask="url(#path-1-inside-1_57_20)"/>
<path d="M813.354 74.2985C801.22 74.2985 790.354 75.3134 780.393 77.597C770.614 79.6269 762.283 82.4179 755.583 85.9702C749.063 89.5224 743.268 93.8358 738.378 98.9105C733.307 103.985 729.504 109.06 726.606 114.134C723.89 119.209 721.717 124.791 720.087 130.881C718.276 136.97 717.189 142.552 716.827 147.119C716.284 151.94 716.102 156.761 716.102 162.09V169.194C716.102 174.269 716.284 179.343 716.827 184.164C717.189 188.731 718.276 194.313 720.087 200.403C721.717 206.493 723.89 212.075 726.606 217.403C729.504 222.478 733.307 227.552 738.378 232.881C743.449 237.955 749.244 242.269 755.764 246.075C762.283 249.627 770.614 252.418 780.393 254.701C790.354 256.985 801.22 258 813.354 258H819.149C831.283 258 842.149 256.985 851.929 254.701C861.889 252.418 870.039 249.627 876.558 246.075C883.078 242.269 888.873 237.955 893.944 232.881C899.015 227.552 902.818 222.478 905.535 217.403C908.251 212.075 910.424 206.493 912.235 200.403C913.865 194.313 915.133 188.731 915.495 184.164C916.039 179.343 916.22 174.269 916.22 169.194V162.09C916.22 156.761 916.039 151.94 915.495 147.119C915.133 142.299 913.865 136.97 912.235 130.881C910.424 124.791 908.251 119.209 905.354 114.134C902.637 109.06 898.834 103.985 893.763 98.9105C888.873 93.8358 883.078 89.5224 876.558 85.9702C869.858 82.4179 861.708 79.6269 851.929 77.597C842.149 75.3134 831.283 74.2985 819.149 74.2985H813.354ZM870.944 167.164C870.944 172.746 870.22 178.328 868.59 183.403C867.141 188.478 864.425 193.552 860.621 198.373C856.818 203.448 851.023 207.507 843.236 210.299C836.535 213.09 828.385 214.358 819.149 214.866C817.7 214.866 815.527 214.866 814.622 214.866C804.661 214.612 795.968 213.09 788.724 210.299C780.937 207.254 775.323 203.194 771.519 198.119C767.897 193.045 765.181 187.97 763.732 182.896C762.102 177.821 761.378 172.239 761.378 166.657V163.866C761.378 133.672 778.945 118.194 813.897 117.179C814.984 117.179 818.244 117.179 819.874 117.433C826.937 117.687 833.275 118.448 838.889 120.224C845.59 122.254 851.023 124.791 855.007 127.836C858.992 130.627 862.251 134.433 864.606 138.746C867.141 143.06 868.771 147.119 869.677 151.179C870.582 154.985 870.944 159.299 870.944 163.866V167.164Z" stroke="black" stroke-width="4" mask="url(#path-1-inside-1_57_20)"/>
<path d="M1008.77 254.701H1259.05C1272.45 254.701 1284.04 253.687 1294 251.403C1303.96 249.119 1311.93 246.075 1317.54 242.522C1323.34 238.716 1328.05 234.149 1331.49 228.821C1334.93 223.493 1337.28 218.164 1338.37 212.836C1339.46 207.761 1340 201.925 1340 195.328V192.03C1340 174.269 1334.2 161.075 1322.8 152.701C1311.39 144.582 1292.73 140.015 1267.02 139.254L1253.98 139L1006.23 138.746C997.356 138.746 990.474 137.731 985.584 136.209C980.695 134.687 977.616 132.91 976.348 130.881C974.899 129.104 974.356 126.567 974.356 123.522C974.356 120.478 974.899 117.94 976.167 116.164C977.254 114.134 980.695 112.358 986.128 110.836C991.742 109.06 998.261 108.299 1008.77 108.299H1252.71C1259.59 108.299 1263.39 108.806 1268.65 110.075C1273.72 111.09 1277.52 112.358 1280.24 113.881C1282.77 115.149 1284.95 117.179 1286.58 119.209C1288.2 121.493 1289.11 123.269 1289.65 124.537C1290.02 126.06 1290.38 127.582 1290.56 129.612H1335.47V127.075C1335.47 121.493 1334.93 116.164 1333.48 111.09C1332.21 106.015 1329.68 100.94 1326.06 95.8657C1322.25 90.791 1317.54 86.4776 1311.93 82.9254C1306.13 79.6269 1298.35 76.5821 1288.75 74.2985C1279.15 72.2687 1267.92 71 1255.24 71H1004.96C992.828 71 982.143 72.2687 973.088 74.2985C963.852 76.3284 956.608 79.1194 951.175 82.4179C945.742 85.9702 941.396 90.0298 938.136 94.8507C934.695 99.6716 932.522 104.493 931.435 109.313C930.348 114.134 929.805 119.463 929.805 125.298V127.328C929.805 160.567 952.262 177.821 997.175 179.343L1007.32 179.597L1258.5 180.104C1268.83 180.358 1276.61 181.373 1282.05 183.149C1287.48 184.672 1290.92 186.701 1292.37 188.985C1294 191.269 1294.72 194.313 1294.72 198.119C1294.72 200.657 1294.18 203.194 1293.46 204.97C1292.55 207 1290.74 209.03 1288.21 210.806C1285.67 212.836 1281.5 214.358 1275.71 215.373C1270.09 216.388 1266.29 216.896 1257.78 216.896H1010.21C983.773 216.896 973.994 207.507 973.088 188.731H927.994V191.269C927.994 196.851 928.356 202.179 929.262 207C930.167 212.075 932.341 217.657 935.6 223.746C938.86 229.836 943.388 234.91 948.821 239.224C954.435 243.537 962.403 247.343 972.726 250.388C982.868 253.433 995.002 254.701 1008.77 254.701Z" stroke="black" stroke-width="4" mask="url(#path-1-inside-1_57_20)"/>
<mask id="path-2-inside-2_57_20" fill="white">
<path d="M32.055 120.836V230.701H74.7949V53.3433H41.1101C33.866 74.6567 20.2834 85.8209 0 87.597V120.836H32.055Z"/>
<path d="M172.762 230.701H423.045C436.446 230.701 448.037 229.687 457.997 227.403C467.958 225.119 475.926 222.075 481.541 218.522C487.336 214.716 492.044 210.149 495.485 204.821C498.926 199.493 501.281 194.164 502.367 188.836C503.454 183.761 503.997 177.925 503.997 171.328V168.03C503.997 150.269 498.202 137.075 486.792 128.701C475.383 120.582 456.73 116.015 431.013 115.254L417.974 115L170.227 114.746C161.353 114.746 154.471 113.731 149.581 112.209C144.692 110.687 141.613 108.91 140.345 106.881C138.896 105.104 138.353 102.567 138.353 99.5224C138.353 96.4776 138.896 93.9403 140.164 92.1642C141.251 90.1343 144.692 88.3582 150.125 86.8358C155.739 85.0597 162.259 84.2985 172.762 84.2985H416.706C423.588 84.2985 427.391 84.806 432.643 86.0746C437.714 87.0895 441.517 88.3582 444.234 89.8806C446.769 91.1493 448.942 93.1791 450.572 95.209C452.202 97.4925 453.108 99.2687 453.651 100.537C454.013 102.06 454.375 103.582 454.556 105.612H499.47V103.075C499.47 97.4925 498.926 92.1642 497.477 87.0895C496.21 82.0149 493.674 76.9403 490.052 71.8657C486.249 66.791 481.541 62.4776 475.926 58.9254C470.131 55.6269 462.344 52.5821 452.745 50.2985C443.147 48.2687 431.919 47 419.242 47H168.959C156.825 47 146.14 48.2687 137.085 50.2985C127.849 52.3284 120.605 55.1194 115.172 58.4179C109.739 61.9702 105.393 66.0298 102.133 70.8507C98.6919 75.6716 96.5186 80.4925 95.432 85.3134C94.3454 90.1343 93.8021 95.4627 93.8021 101.298V103.328C93.8021 136.567 116.259 153.821 161.172 155.343L171.314 155.597L422.501 156.104C432.824 156.358 440.612 157.373 446.045 159.149C451.478 160.672 454.919 162.701 456.367 164.985C457.997 167.269 458.722 170.313 458.722 174.119C458.722 176.657 458.178 179.194 457.454 180.97C456.549 183 454.738 185.03 452.202 186.806C449.667 188.836 445.501 190.358 439.706 191.373C434.092 192.388 430.289 192.896 421.777 192.896H174.211C147.77 192.896 137.991 183.507 137.085 164.731H91.9911V167.269C91.9911 172.851 92.3533 178.179 93.2588 183C94.1643 188.075 96.3375 193.657 99.5974 199.746C102.857 205.836 107.385 210.91 112.818 215.224C118.432 219.537 126.4 223.343 136.723 226.388C146.865 229.433 158.999 230.701 172.762 230.701Z"/>
<path d="M520.799 230.701H563.901V160.925H656.444V230.701H699.727V53.597H656.444V118.045H563.901V53.597H520.799V230.701Z"/>
<path d="M813.354 50.2985C801.22 50.2985 790.354 51.3134 780.393 53.597C770.614 55.6269 762.283 58.4179 755.583 61.9702C749.063 65.5224 743.268 69.8358 738.378 74.9105C733.307 79.9851 729.504 85.0597 726.606 90.1343C723.89 95.209 721.717 100.791 720.087 106.881C718.276 112.97 717.189 118.552 716.827 123.119C716.284 127.94 716.102 132.761 716.102 138.09V145.194C716.102 150.269 716.284 155.343 716.827 160.164C717.189 164.731 718.276 170.313 720.087 176.403C721.717 182.493 723.89 188.075 726.606 193.403C729.504 198.478 733.307 203.552 738.378 208.881C743.449 213.955 749.244 218.269 755.764 222.075C762.283 225.627 770.614 228.418 780.393 230.701C790.354 232.985 801.22 234 813.354 234H819.149C831.283 234 842.149 232.985 851.929 230.701C861.889 228.418 870.039 225.627 876.558 222.075C883.078 218.269 888.873 213.955 893.944 208.881C899.015 203.552 902.818 198.478 905.535 193.403C908.251 188.075 910.424 182.493 912.235 176.403C913.865 170.313 915.133 164.731 915.495 160.164C916.039 155.343 916.22 150.269 916.22 145.194V138.09C916.22 132.761 916.039 127.94 915.495 123.119C915.133 118.299 913.865 112.97 912.235 106.881C910.424 100.791 908.251 95.209 905.354 90.1343C902.637 85.0597 898.834 79.9851 893.763 74.9105C888.873 69.8358 883.078 65.5224 876.558 61.9702C869.858 58.4179 861.708 55.6269 851.929 53.597C842.149 51.3134 831.283 50.2985 819.149 50.2985H813.354ZM870.944 143.164C870.944 148.746 870.22 154.328 868.59 159.403C867.141 164.478 864.425 169.552 860.621 174.373C856.818 179.448 851.023 183.507 843.236 186.299C836.535 189.09 828.385 190.358 819.149 190.866C817.7 190.866 815.527 190.866 814.622 190.866C804.661 190.612 795.968 189.09 788.724 186.299C780.937 183.254 775.323 179.194 771.519 174.119C767.897 169.045 765.181 163.97 763.732 158.896C762.102 153.821 761.378 148.239 761.378 142.657V139.866C761.378 109.672 778.945 94.194 813.897 93.1791C814.984 93.1791 818.244 93.1791 819.874 93.4328C826.937 93.6866 833.275 94.4478 838.889 96.2239C845.59 98.2537 851.023 100.791 855.007 103.836C858.992 106.627 862.251 110.433 864.606 114.746C867.141 119.06 868.771 123.119 869.677 127.179C870.582 130.985 870.944 135.299 870.944 139.866V143.164Z"/>
<path d="M1008.77 230.701H1259.05C1272.45 230.701 1284.04 229.687 1294 227.403C1303.96 225.119 1311.93 222.075 1317.54 218.522C1323.34 214.716 1328.05 210.149 1331.49 204.821C1334.93 199.493 1337.28 194.164 1338.37 188.836C1339.46 183.761 1340 177.925 1340 171.328V168.03C1340 150.269 1334.2 137.075 1322.8 128.701C1311.39 120.582 1292.73 116.015 1267.02 115.254L1253.98 115L1006.23 114.746C997.356 114.746 990.474 113.731 985.584 112.209C980.695 110.687 977.616 108.91 976.348 106.881C974.899 105.104 974.356 102.567 974.356 99.5224C974.356 96.4776 974.899 93.9403 976.167 92.1642C977.254 90.1343 980.695 88.3582 986.128 86.8358C991.742 85.0597 998.261 84.2985 1008.77 84.2985H1252.71C1259.59 84.2985 1263.39 84.806 1268.65 86.0746C1273.72 87.0895 1277.52 88.3582 1280.24 89.8806C1282.77 91.1493 1284.95 93.1791 1286.58 95.209C1288.2 97.4925 1289.11 99.2687 1289.65 100.537C1290.02 102.06 1290.38 103.582 1290.56 105.612H1335.47V103.075C1335.47 97.4925 1334.93 92.1642 1333.48 87.0895C1332.21 82.0149 1329.68 76.9403 1326.06 71.8657C1322.25 66.791 1317.54 62.4776 1311.93 58.9254C1306.13 55.6269 1298.35 52.5821 1288.75 50.2985C1279.15 48.2687 1267.92 47 1255.24 47H1004.96C992.828 47 982.143 48.2687 973.088 50.2985C963.852 52.3284 956.608 55.1194 951.175 58.4179C945.742 61.9702 941.396 66.0298 938.136 70.8507C934.695 75.6716 932.522 80.4925 931.435 85.3134C930.348 90.1343 929.805 95.4627 929.805 101.298V103.328C929.805 136.567 952.262 153.821 997.175 155.343L1007.32 155.597L1258.5 156.104C1268.83 156.358 1276.61 157.373 1282.05 159.149C1287.48 160.672 1290.92 162.701 1292.37 164.985C1294 167.269 1294.72 170.313 1294.72 174.119C1294.72 176.657 1294.18 179.194 1293.46 180.97C1292.55 183 1290.74 185.03 1288.21 186.806C1285.67 188.836 1281.5 190.358 1275.71 191.373C1270.09 192.388 1266.29 192.896 1257.78 192.896H1010.21C983.773 192.896 973.994 183.507 973.088 164.731H927.994V167.269C927.994 172.851 928.356 178.179 929.262 183C930.167 188.075 932.341 193.657 935.6 199.746C938.86 205.836 943.388 210.91 948.821 215.224C954.435 219.537 962.403 223.343 972.726 226.388C982.868 229.433 995.002 230.701 1008.77 230.701Z"/>
</mask>
<path d="M32.055 120.836V230.701H74.7949V53.3433H41.1101C33.866 74.6567 20.2834 85.8209 0 87.597V120.836H32.055Z" fill="#ECECEC"/>
<path d="M172.762 230.701H423.045C436.446 230.701 448.037 229.687 457.997 227.403C467.958 225.119 475.926 222.075 481.541 218.522C487.336 214.716 492.044 210.149 495.485 204.821C498.926 199.493 501.281 194.164 502.367 188.836C503.454 183.761 503.997 177.925 503.997 171.328V168.03C503.997 150.269 498.202 137.075 486.792 128.701C475.383 120.582 456.73 116.015 431.013 115.254L417.974 115L170.227 114.746C161.353 114.746 154.471 113.731 149.581 112.209C144.692 110.687 141.613 108.91 140.345 106.881C138.896 105.104 138.353 102.567 138.353 99.5224C138.353 96.4776 138.896 93.9403 140.164 92.1642C141.251 90.1343 144.692 88.3582 150.125 86.8358C155.739 85.0597 162.259 84.2985 172.762 84.2985H416.706C423.588 84.2985 427.391 84.806 432.643 86.0746C437.714 87.0895 441.517 88.3582 444.234 89.8806C446.769 91.1493 448.942 93.1791 450.572 95.209C452.202 97.4925 453.108 99.2687 453.651 100.537C454.013 102.06 454.375 103.582 454.556 105.612H499.47V103.075C499.47 97.4925 498.926 92.1642 497.477 87.0895C496.21 82.0149 493.674 76.9403 490.052 71.8657C486.249 66.791 481.541 62.4776 475.926 58.9254C470.131 55.6269 462.344 52.5821 452.745 50.2985C443.147 48.2687 431.919 47 419.242 47H168.959C156.825 47 146.14 48.2687 137.085 50.2985C127.849 52.3284 120.605 55.1194 115.172 58.4179C109.739 61.9702 105.393 66.0298 102.133 70.8507C98.6919 75.6716 96.5186 80.4925 95.432 85.3134C94.3454 90.1343 93.8021 95.4627 93.8021 101.298V103.328C93.8021 136.567 116.259 153.821 161.172 155.343L171.314 155.597L422.501 156.104C432.824 156.358 440.612 157.373 446.045 159.149C451.478 160.672 454.919 162.701 456.367 164.985C457.997 167.269 458.722 170.313 458.722 174.119C458.722 176.657 458.178 179.194 457.454 180.97C456.549 183 454.738 185.03 452.202 186.806C449.667 188.836 445.501 190.358 439.706 191.373C434.092 192.388 430.289 192.896 421.777 192.896H174.211C147.77 192.896 137.991 183.507 137.085 164.731H91.9911V167.269C91.9911 172.851 92.3533 178.179 93.2588 183C94.1643 188.075 96.3375 193.657 99.5974 199.746C102.857 205.836 107.385 210.91 112.818 215.224C118.432 219.537 126.4 223.343 136.723 226.388C146.865 229.433 158.999 230.701 172.762 230.701Z" fill="#ECECEC"/>
<path d="M520.799 230.701H563.901V160.925H656.444V230.701H699.727V53.597H656.444V118.045H563.901V53.597H520.799V230.701Z" fill="#ECECEC"/>
<path d="M813.354 50.2985C801.22 50.2985 790.354 51.3134 780.393 53.597C770.614 55.6269 762.283 58.4179 755.583 61.9702C749.063 65.5224 743.268 69.8358 738.378 74.9105C733.307 79.9851 729.504 85.0597 726.606 90.1343C723.89 95.209 721.717 100.791 720.087 106.881C718.276 112.97 717.189 118.552 716.827 123.119C716.284 127.94 716.102 132.761 716.102 138.09V145.194C716.102 150.269 716.284 155.343 716.827 160.164C717.189 164.731 718.276 170.313 720.087 176.403C721.717 182.493 723.89 188.075 726.606 193.403C729.504 198.478 733.307 203.552 738.378 208.881C743.449 213.955 749.244 218.269 755.764 222.075C762.283 225.627 770.614 228.418 780.393 230.701C790.354 232.985 801.22 234 813.354 234H819.149C831.283 234 842.149 232.985 851.929 230.701C861.889 228.418 870.039 225.627 876.558 222.075C883.078 218.269 888.873 213.955 893.944 208.881C899.015 203.552 902.818 198.478 905.535 193.403C908.251 188.075 910.424 182.493 912.235 176.403C913.865 170.313 915.133 164.731 915.495 160.164C916.039 155.343 916.22 150.269 916.22 145.194V138.09C916.22 132.761 916.039 127.94 915.495 123.119C915.133 118.299 913.865 112.97 912.235 106.881C910.424 100.791 908.251 95.209 905.354 90.1343C902.637 85.0597 898.834 79.9851 893.763 74.9105C888.873 69.8358 883.078 65.5224 876.558 61.9702C869.858 58.4179 861.708 55.6269 851.929 53.597C842.149 51.3134 831.283 50.2985 819.149 50.2985H813.354ZM870.944 143.164C870.944 148.746 870.22 154.328 868.59 159.403C867.141 164.478 864.425 169.552 860.621 174.373C856.818 179.448 851.023 183.507 843.236 186.299C836.535 189.09 828.385 190.358 819.149 190.866C817.7 190.866 815.527 190.866 814.622 190.866C804.661 190.612 795.968 189.09 788.724 186.299C780.937 183.254 775.323 179.194 771.519 174.119C767.897 169.045 765.181 163.97 763.732 158.896C762.102 153.821 761.378 148.239 761.378 142.657V139.866C761.378 109.672 778.945 94.194 813.897 93.1791C814.984 93.1791 818.244 93.1791 819.874 93.4328C826.937 93.6866 833.275 94.4478 838.889 96.2239C845.59 98.2537 851.023 100.791 855.007 103.836C858.992 106.627 862.251 110.433 864.606 114.746C867.141 119.06 868.771 123.119 869.677 127.179C870.582 130.985 870.944 135.299 870.944 139.866V143.164Z" fill="#ECECEC"/>
<path d="M1008.77 230.701H1259.05C1272.45 230.701 1284.04 229.687 1294 227.403C1303.96 225.119 1311.93 222.075 1317.54 218.522C1323.34 214.716 1328.05 210.149 1331.49 204.821C1334.93 199.493 1337.28 194.164 1338.37 188.836C1339.46 183.761 1340 177.925 1340 171.328V168.03C1340 150.269 1334.2 137.075 1322.8 128.701C1311.39 120.582 1292.73 116.015 1267.02 115.254L1253.98 115L1006.23 114.746C997.356 114.746 990.474 113.731 985.584 112.209C980.695 110.687 977.616 108.91 976.348 106.881C974.899 105.104 974.356 102.567 974.356 99.5224C974.356 96.4776 974.899 93.9403 976.167 92.1642C977.254 90.1343 980.695 88.3582 986.128 86.8358C991.742 85.0597 998.261 84.2985 1008.77 84.2985H1252.71C1259.59 84.2985 1263.39 84.806 1268.65 86.0746C1273.72 87.0895 1277.52 88.3582 1280.24 89.8806C1282.77 91.1493 1284.95 93.1791 1286.58 95.209C1288.2 97.4925 1289.11 99.2687 1289.65 100.537C1290.02 102.06 1290.38 103.582 1290.56 105.612H1335.47V103.075C1335.47 97.4925 1334.93 92.1642 1333.48 87.0895C1332.21 82.0149 1329.68 76.9403 1326.06 71.8657C1322.25 66.791 1317.54 62.4776 1311.93 58.9254C1306.13 55.6269 1298.35 52.5821 1288.75 50.2985C1279.15 48.2687 1267.92 47 1255.24 47H1004.96C992.828 47 982.143 48.2687 973.088 50.2985C963.852 52.3284 956.608 55.1194 951.175 58.4179C945.742 61.9702 941.396 66.0298 938.136 70.8507C934.695 75.6716 932.522 80.4925 931.435 85.3134C930.348 90.1343 929.805 95.4627 929.805 101.298V103.328C929.805 136.567 952.262 153.821 997.175 155.343L1007.32 155.597L1258.5 156.104C1268.83 156.358 1276.61 157.373 1282.05 159.149C1287.48 160.672 1290.92 162.701 1292.37 164.985C1294 167.269 1294.72 170.313 1294.72 174.119C1294.72 176.657 1294.18 179.194 1293.46 180.97C1292.55 183 1290.74 185.03 1288.21 186.806C1285.67 188.836 1281.5 190.358 1275.71 191.373C1270.09 192.388 1266.29 192.896 1257.78 192.896H1010.21C983.773 192.896 973.994 183.507 973.088 164.731H927.994V167.269C927.994 172.851 928.356 178.179 929.262 183C930.167 188.075 932.341 193.657 935.6 199.746C938.86 205.836 943.388 210.91 948.821 215.224C954.435 219.537 962.403 223.343 972.726 226.388C982.868 229.433 995.002 230.701 1008.77 230.701Z" fill="#ECECEC"/>
<path d="M32.055 120.836V230.701H74.7949V53.3433H41.1101C33.866 74.6567 20.2834 85.8209 0 87.597V120.836H32.055Z" stroke="black" stroke-width="4" mask="url(#path-2-inside-2_57_20)"/>
<path d="M172.762 230.701H423.045C436.446 230.701 448.037 229.687 457.997 227.403C467.958 225.119 475.926 222.075 481.541 218.522C487.336 214.716 492.044 210.149 495.485 204.821C498.926 199.493 501.281 194.164 502.367 188.836C503.454 183.761 503.997 177.925 503.997 171.328V168.03C503.997 150.269 498.202 137.075 486.792 128.701C475.383 120.582 456.73 116.015 431.013 115.254L417.974 115L170.227 114.746C161.353 114.746 154.471 113.731 149.581 112.209C144.692 110.687 141.613 108.91 140.345 106.881C138.896 105.104 138.353 102.567 138.353 99.5224C138.353 96.4776 138.896 93.9403 140.164 92.1642C141.251 90.1343 144.692 88.3582 150.125 86.8358C155.739 85.0597 162.259 84.2985 172.762 84.2985H416.706C423.588 84.2985 427.391 84.806 432.643 86.0746C437.714 87.0895 441.517 88.3582 444.234 89.8806C446.769 91.1493 448.942 93.1791 450.572 95.209C452.202 97.4925 453.108 99.2687 453.651 100.537C454.013 102.06 454.375 103.582 454.556 105.612H499.47V103.075C499.47 97.4925 498.926 92.1642 497.477 87.0895C496.21 82.0149 493.674 76.9403 490.052 71.8657C486.249 66.791 481.541 62.4776 475.926 58.9254C470.131 55.6269 462.344 52.5821 452.745 50.2985C443.147 48.2687 431.919 47 419.242 47H168.959C156.825 47 146.14 48.2687 137.085 50.2985C127.849 52.3284 120.605 55.1194 115.172 58.4179C109.739 61.9702 105.393 66.0298 102.133 70.8507C98.6919 75.6716 96.5186 80.4925 95.432 85.3134C94.3454 90.1343 93.8021 95.4627 93.8021 101.298V103.328C93.8021 136.567 116.259 153.821 161.172 155.343L171.314 155.597L422.501 156.104C432.824 156.358 440.612 157.373 446.045 159.149C451.478 160.672 454.919 162.701 456.367 164.985C457.997 167.269 458.722 170.313 458.722 174.119C458.722 176.657 458.178 179.194 457.454 180.97C456.549 183 454.738 185.03 452.202 186.806C449.667 188.836 445.501 190.358 439.706 191.373C434.092 192.388 430.289 192.896 421.777 192.896H174.211C147.77 192.896 137.991 183.507 137.085 164.731H91.9911V167.269C91.9911 172.851 92.3533 178.179 93.2588 183C94.1643 188.075 96.3375 193.657 99.5974 199.746C102.857 205.836 107.385 210.91 112.818 215.224C118.432 219.537 126.4 223.343 136.723 226.388C146.865 229.433 158.999 230.701 172.762 230.701Z" stroke="black" stroke-width="4" mask="url(#path-2-inside-2_57_20)"/>
<path d="M520.799 230.701H563.901V160.925H656.444V230.701H699.727V53.597H656.444V118.045H563.901V53.597H520.799V230.701Z" stroke="black" stroke-width="4" mask="url(#path-2-inside-2_57_20)"/>
<path d="M813.354 50.2985C801.22 50.2985 790.354 51.3134 780.393 53.597C770.614 55.6269 762.283 58.4179 755.583 61.9702C749.063 65.5224 743.268 69.8358 738.378 74.9105C733.307 79.9851 729.504 85.0597 726.606 90.1343C723.89 95.209 721.717 100.791 720.087 106.881C718.276 112.97 717.189 118.552 716.827 123.119C716.284 127.94 716.102 132.761 716.102 138.09V145.194C716.102 150.269 716.284 155.343 716.827 160.164C717.189 164.731 718.276 170.313 720.087 176.403C721.717 182.493 723.89 188.075 726.606 193.403C729.504 198.478 733.307 203.552 738.378 208.881C743.449 213.955 749.244 218.269 755.764 222.075C762.283 225.627 770.614 228.418 780.393 230.701C790.354 232.985 801.22 234 813.354 234H819.149C831.283 234 842.149 232.985 851.929 230.701C861.889 228.418 870.039 225.627 876.558 222.075C883.078 218.269 888.873 213.955 893.944 208.881C899.015 203.552 902.818 198.478 905.535 193.403C908.251 188.075 910.424 182.493 912.235 176.403C913.865 170.313 915.133 164.731 915.495 160.164C916.039 155.343 916.22 150.269 916.22 145.194V138.09C916.22 132.761 916.039 127.94 915.495 123.119C915.133 118.299 913.865 112.97 912.235 106.881C910.424 100.791 908.251 95.209 905.354 90.1343C902.637 85.0597 898.834 79.9851 893.763 74.9105C888.873 69.8358 883.078 65.5224 876.558 61.9702C869.858 58.4179 861.708 55.6269 851.929 53.597C842.149 51.3134 831.283 50.2985 819.149 50.2985H813.354ZM870.944 143.164C870.944 148.746 870.22 154.328 868.59 159.403C867.141 164.478 864.425 169.552 860.621 174.373C856.818 179.448 851.023 183.507 843.236 186.299C836.535 189.09 828.385 190.358 819.149 190.866C817.7 190.866 815.527 190.866 814.622 190.866C804.661 190.612 795.968 189.09 788.724 186.299C780.937 183.254 775.323 179.194 771.519 174.119C767.897 169.045 765.181 163.97 763.732 158.896C762.102 153.821 761.378 148.239 761.378 142.657V139.866C761.378 109.672 778.945 94.194 813.897 93.1791C814.984 93.1791 818.244 93.1791 819.874 93.4328C826.937 93.6866 833.275 94.4478 838.889 96.2239C845.59 98.2537 851.023 100.791 855.007 103.836C858.992 106.627 862.251 110.433 864.606 114.746C867.141 119.06 868.771 123.119 869.677 127.179C870.582 130.985 870.944 135.299 870.944 139.866V143.164Z" stroke="black" stroke-width="4" mask="url(#path-2-inside-2_57_20)"/>
<path d="M1008.77 230.701H1259.05C1272.45 230.701 1284.04 229.687 1294 227.403C1303.96 225.119 1311.93 222.075 1317.54 218.522C1323.34 214.716 1328.05 210.149 1331.49 204.821C1334.93 199.493 1337.28 194.164 1338.37 188.836C1339.46 183.761 1340 177.925 1340 171.328V168.03C1340 150.269 1334.2 137.075 1322.8 128.701C1311.39 120.582 1292.73 116.015 1267.02 115.254L1253.98 115L1006.23 114.746C997.356 114.746 990.474 113.731 985.584 112.209C980.695 110.687 977.616 108.91 976.348 106.881C974.899 105.104 974.356 102.567 974.356 99.5224C974.356 96.4776 974.899 93.9403 976.167 92.1642C977.254 90.1343 980.695 88.3582 986.128 86.8358C991.742 85.0597 998.261 84.2985 1008.77 84.2985H1252.71C1259.59 84.2985 1263.39 84.806 1268.65 86.0746C1273.72 87.0895 1277.52 88.3582 1280.24 89.8806C1282.77 91.1493 1284.95 93.1791 1286.58 95.209C1288.2 97.4925 1289.11 99.2687 1289.65 100.537C1290.02 102.06 1290.38 103.582 1290.56 105.612H1335.47V103.075C1335.47 97.4925 1334.93 92.1642 1333.48 87.0895C1332.21 82.0149 1329.68 76.9403 1326.06 71.8657C1322.25 66.791 1317.54 62.4776 1311.93 58.9254C1306.13 55.6269 1298.35 52.5821 1288.75 50.2985C1279.15 48.2687 1267.92 47 1255.24 47H1004.96C992.828 47 982.143 48.2687 973.088 50.2985C963.852 52.3284 956.608 55.1194 951.175 58.4179C945.742 61.9702 941.396 66.0298 938.136 70.8507C934.695 75.6716 932.522 80.4925 931.435 85.3134C930.348 90.1343 929.805 95.4627 929.805 101.298V103.328C929.805 136.567 952.262 153.821 997.175 155.343L1007.32 155.597L1258.5 156.104C1268.83 156.358 1276.61 157.373 1282.05 159.149C1287.48 160.672 1290.92 162.701 1292.37 164.985C1294 167.269 1294.72 170.313 1294.72 174.119C1294.72 176.657 1294.18 179.194 1293.46 180.97C1292.55 183 1290.74 185.03 1288.21 186.806C1285.67 188.836 1281.5 190.358 1275.71 191.373C1270.09 192.388 1266.29 192.896 1257.78 192.896H1010.21C983.773 192.896 973.994 183.507 973.088 164.731H927.994V167.269C927.994 172.851 928.356 178.179 929.262 183C930.167 188.075 932.341 193.657 935.6 199.746C938.86 205.836 943.388 210.91 948.821 215.224C954.435 219.537 962.403 223.343 972.726 226.388C982.868 229.433 995.002 230.701 1008.77 230.701Z" stroke="black" stroke-width="4" mask="url(#path-2-inside-2_57_20)"/>
<mask id="path-3-inside-3_57_20" fill="white">
<path d="M32.055 98.8358V208.701H74.7949V31.3433H41.1101C33.866 52.6567 20.2834 63.8209 0 65.597V98.8358H32.055Z"/>
<path d="M172.762 208.701H423.045C436.446 208.701 448.037 207.687 457.997 205.403C467.958 203.119 475.926 200.075 481.541 196.522C487.336 192.716 492.044 188.149 495.485 182.821C498.926 177.493 501.281 172.164 502.367 166.836C503.454 161.761 503.997 155.925 503.997 149.328V146.03C503.997 128.269 498.202 115.075 486.792 106.701C475.383 98.5821 456.73 94.0149 431.013 93.2537L417.974 93L170.227 92.7463C161.353 92.7463 154.471 91.7313 149.581 90.209C144.692 88.6866 141.613 86.9104 140.345 84.8806C138.896 83.1045 138.353 80.5672 138.353 77.5224C138.353 74.4776 138.896 71.9403 140.164 70.1642C141.251 68.1343 144.692 66.3582 150.125 64.8358C155.739 63.0597 162.259 62.2985 172.762 62.2985H416.706C423.588 62.2985 427.391 62.806 432.643 64.0746C437.714 65.0895 441.517 66.3582 444.234 67.8806C446.769 69.1493 448.942 71.1791 450.572 73.209C452.202 75.4925 453.108 77.2687 453.651 78.5373C454.013 80.0597 454.375 81.5821 454.556 83.6119H499.47V81.0746C499.47 75.4925 498.926 70.1642 497.477 65.0895C496.21 60.0149 493.674 54.9403 490.052 49.8657C486.249 44.791 481.541 40.4776 475.926 36.9254C470.131 33.6269 462.344 30.5821 452.745 28.2985C443.147 26.2687 431.919 25 419.242 25H168.959C156.825 25 146.14 26.2687 137.085 28.2985C127.849 30.3284 120.605 33.1194 115.172 36.4179C109.739 39.9702 105.393 44.0298 102.133 48.8507C98.6919 53.6716 96.5186 58.4925 95.432 63.3134C94.3454 68.1343 93.8021 73.4627 93.8021 79.2985V81.3284C93.8021 114.567 116.259 131.821 161.172 133.343L171.314 133.597L422.501 134.104C432.824 134.358 440.612 135.373 446.045 137.149C451.478 138.672 454.919 140.701 456.367 142.985C457.997 145.269 458.722 148.313 458.722 152.119C458.722 154.657 458.178 157.194 457.454 158.97C456.549 161 454.738 163.03 452.202 164.806C449.667 166.836 445.501 168.358 439.706 169.373C434.092 170.388 430.289 170.896 421.777 170.896H174.211C147.77 170.896 137.991 161.507 137.085 142.731H91.9911V145.269C91.9911 150.851 92.3533 156.179 93.2588 161C94.1643 166.075 96.3375 171.657 99.5974 177.746C102.857 183.836 107.385 188.91 112.818 193.224C118.432 197.537 126.4 201.343 136.723 204.388C146.865 207.433 158.999 208.701 172.762 208.701Z"/>
<path d="M520.799 208.701H563.901V138.925H656.444V208.701H699.727V31.597H656.444V96.0448H563.901V31.597H520.799V208.701Z"/>
<path d="M813.354 28.2985C801.22 28.2985 790.354 29.3134 780.393 31.597C770.614 33.6269 762.283 36.4179 755.583 39.9702C749.063 43.5224 743.268 47.8358 738.378 52.9105C733.307 57.9851 729.504 63.0597 726.606 68.1343C723.89 73.209 721.717 78.791 720.087 84.8806C718.276 90.9701 717.189 96.5522 716.827 101.119C716.284 105.94 716.102 110.761 716.102 116.09V123.194C716.102 128.269 716.284 133.343 716.827 138.164C717.189 142.731 718.276 148.313 720.087 154.403C721.717 160.493 723.89 166.075 726.606 171.403C729.504 176.478 733.307 181.552 738.378 186.881C743.449 191.955 749.244 196.269 755.764 200.075C762.283 203.627 770.614 206.418 780.393 208.701C790.354 210.985 801.22 212 813.354 212H819.149C831.283 212 842.149 210.985 851.929 208.701C861.889 206.418 870.039 203.627 876.558 200.075C883.078 196.269 888.873 191.955 893.944 186.881C899.015 181.552 902.818 176.478 905.535 171.403C908.251 166.075 910.424 160.493 912.235 154.403C913.865 148.313 915.133 142.731 915.495 138.164C916.039 133.343 916.22 128.269 916.22 123.194V116.09C916.22 110.761 916.039 105.94 915.495 101.119C915.133 96.2985 913.865 90.9701 912.235 84.8806C910.424 78.791 908.251 73.209 905.354 68.1343C902.637 63.0597 898.834 57.9851 893.763 52.9105C888.873 47.8358 883.078 43.5224 876.558 39.9702C869.858 36.4179 861.708 33.6269 851.929 31.597C842.149 29.3134 831.283 28.2985 819.149 28.2985H813.354ZM870.944 121.164C870.944 126.746 870.22 132.328 868.59 137.403C867.141 142.478 864.425 147.552 860.621 152.373C856.818 157.448 851.023 161.507 843.236 164.299C836.535 167.09 828.385 168.358 819.149 168.866C817.7 168.866 815.527 168.866 814.622 168.866C804.661 168.612 795.968 167.09 788.724 164.299C780.937 161.254 775.323 157.194 771.519 152.119C767.897 147.045 765.181 141.97 763.732 136.896C762.102 131.821 761.378 126.239 761.378 120.657V117.866C761.378 87.6716 778.945 72.194 813.897 71.1791C814.984 71.1791 818.244 71.1791 819.874 71.4328C826.937 71.6866 833.275 72.4478 838.889 74.2239C845.59 76.2537 851.023 78.791 855.007 81.8358C858.992 84.6269 862.251 88.4328 864.606 92.7463C867.141 97.0597 868.771 101.119 869.677 105.179C870.582 108.985 870.944 113.299 870.944 117.866V121.164Z"/>
<path d="M1008.77 208.701H1259.05C1272.45 208.701 1284.04 207.687 1294 205.403C1303.96 203.119 1311.93 200.075 1317.54 196.522C1323.34 192.716 1328.05 188.149 1331.49 182.821C1334.93 177.493 1337.28 172.164 1338.37 166.836C1339.46 161.761 1340 155.925 1340 149.328V146.03C1340 128.269 1334.2 115.075 1322.8 106.701C1311.39 98.5821 1292.73 94.0149 1267.02 93.2537L1253.98 93L1006.23 92.7463C997.356 92.7463 990.474 91.7313 985.584 90.209C980.695 88.6866 977.616 86.9104 976.348 84.8806C974.899 83.1045 974.356 80.5672 974.356 77.5224C974.356 74.4776 974.899 71.9403 976.167 70.1642C977.254 68.1343 980.695 66.3582 986.128 64.8358C991.742 63.0597 998.261 62.2985 1008.77 62.2985H1252.71C1259.59 62.2985 1263.39 62.806 1268.65 64.0746C1273.72 65.0895 1277.52 66.3582 1280.24 67.8806C1282.77 69.1493 1284.95 71.1791 1286.58 73.209C1288.2 75.4925 1289.11 77.2687 1289.65 78.5373C1290.02 80.0597 1290.38 81.5821 1290.56 83.6119H1335.47V81.0746C1335.47 75.4925 1334.93 70.1642 1333.48 65.0895C1332.21 60.0149 1329.68 54.9403 1326.06 49.8657C1322.25 44.791 1317.54 40.4776 1311.93 36.9254C1306.13 33.6269 1298.35 30.5821 1288.75 28.2985C1279.15 26.2687 1267.92 25 1255.24 25H1004.96C992.828 25 982.143 26.2687 973.088 28.2985C963.852 30.3284 956.608 33.1194 951.175 36.4179C945.742 39.9702 941.396 44.0298 938.136 48.8507C934.695 53.6716 932.522 58.4925 931.435 63.3134C930.348 68.1343 929.805 73.4627 929.805 79.2985V81.3284C929.805 114.567 952.262 131.821 997.175 133.343L1007.32 133.597L1258.5 134.104C1268.83 134.358 1276.61 135.373 1282.05 137.149C1287.48 138.672 1290.92 140.701 1292.37 142.985C1294 145.269 1294.72 148.313 1294.72 152.119C1294.72 154.657 1294.18 157.194 1293.46 158.97C1292.55 161 1290.74 163.03 1288.21 164.806C1285.67 166.836 1281.5 168.358 1275.71 169.373C1270.09 170.388 1266.29 170.896 1257.78 170.896H1010.21C983.773 170.896 973.994 161.507 973.088 142.731H927.994V145.269C927.994 150.851 928.356 156.179 929.262 161C930.167 166.075 932.341 171.657 935.6 177.746C938.86 183.836 943.388 188.91 948.821 193.224C954.435 197.537 962.403 201.343 972.726 204.388C982.868 207.433 995.002 208.701 1008.77 208.701Z"/>
</mask>
<path d="M32.055 98.8358V208.701H74.7949V31.3433H41.1101C33.866 52.6567 20.2834 63.8209 0 65.597V98.8358H32.055Z" fill="#ECECEC"/>
<path d="M172.762 208.701H423.045C436.446 208.701 448.037 207.687 457.997 205.403C467.958 203.119 475.926 200.075 481.541 196.522C487.336 192.716 492.044 188.149 495.485 182.821C498.926 177.493 501.281 172.164 502.367 166.836C503.454 161.761 503.997 155.925 503.997 149.328V146.03C503.997 128.269 498.202 115.075 486.792 106.701C475.383 98.5821 456.73 94.0149 431.013 93.2537L417.974 93L170.227 92.7463C161.353 92.7463 154.471 91.7313 149.581 90.209C144.692 88.6866 141.613 86.9104 140.345 84.8806C138.896 83.1045 138.353 80.5672 138.353 77.5224C138.353 74.4776 138.896 71.9403 140.164 70.1642C141.251 68.1343 144.692 66.3582 150.125 64.8358C155.739 63.0597 162.259 62.2985 172.762 62.2985H416.706C423.588 62.2985 427.391 62.806 432.643 64.0746C437.714 65.0895 441.517 66.3582 444.234 67.8806C446.769 69.1493 448.942 71.1791 450.572 73.209C452.202 75.4925 453.108 77.2687 453.651 78.5373C454.013 80.0597 454.375 81.5821 454.556 83.6119H499.47V81.0746C499.47 75.4925 498.926 70.1642 497.477 65.0895C496.21 60.0149 493.674 54.9403 490.052 49.8657C486.249 44.791 481.541 40.4776 475.926 36.9254C470.131 33.6269 462.344 30.5821 452.745 28.2985C443.147 26.2687 431.919 25 419.242 25H168.959C156.825 25 146.14 26.2687 137.085 28.2985C127.849 30.3284 120.605 33.1194 115.172 36.4179C109.739 39.9702 105.393 44.0298 102.133 48.8507C98.6919 53.6716 96.5186 58.4925 95.432 63.3134C94.3454 68.1343 93.8021 73.4627 93.8021 79.2985V81.3284C93.8021 114.567 116.259 131.821 161.172 133.343L171.314 133.597L422.501 134.104C432.824 134.358 440.612 135.373 446.045 137.149C451.478 138.672 454.919 140.701 456.367 142.985C457.997 145.269 458.722 148.313 458.722 152.119C458.722 154.657 458.178 157.194 457.454 158.97C456.549 161 454.738 163.03 452.202 164.806C449.667 166.836 445.501 168.358 439.706 169.373C434.092 170.388 430.289 170.896 421.777 170.896H174.211C147.77 170.896 137.991 161.507 137.085 142.731H91.9911V145.269C91.9911 150.851 92.3533 156.179 93.2588 161C94.1643 166.075 96.3375 171.657 99.5974 177.746C102.857 183.836 107.385 188.91 112.818 193.224C118.432 197.537 126.4 201.343 136.723 204.388C146.865 207.433 158.999 208.701 172.762 208.701Z" fill="#ECECEC"/>
<path d="M520.799 208.701H563.901V138.925H656.444V208.701H699.727V31.597H656.444V96.0448H563.901V31.597H520.799V208.701Z" fill="#ECECEC"/>
<path d="M813.354 28.2985C801.22 28.2985 790.354 29.3134 780.393 31.597C770.614 33.6269 762.283 36.4179 755.583 39.9702C749.063 43.5224 743.268 47.8358 738.378 52.9105C733.307 57.9851 729.504 63.0597 726.606 68.1343C723.89 73.209 721.717 78.791 720.087 84.8806C718.276 90.9701 717.189 96.5522 716.827 101.119C716.284 105.94 716.102 110.761 716.102 116.09V123.194C716.102 128.269 716.284 133.343 716.827 138.164C717.189 142.731 718.276 148.313 720.087 154.403C721.717 160.493 723.89 166.075 726.606 171.403C729.504 176.478 733.307 181.552 738.378 186.881C743.449 191.955 749.244 196.269 755.764 200.075C762.283 203.627 770.614 206.418 780.393 208.701C790.354 210.985 801.22 212 813.354 212H819.149C831.283 212 842.149 210.985 851.929 208.701C861.889 206.418 870.039 203.627 876.558 200.075C883.078 196.269 888.873 191.955 893.944 186.881C899.015 181.552 902.818 176.478 905.535 171.403C908.251 166.075 910.424 160.493 912.235 154.403C913.865 148.313 915.133 142.731 915.495 138.164C916.039 133.343 916.22 128.269 916.22 123.194V116.09C916.22 110.761 916.039 105.94 915.495 101.119C915.133 96.2985 913.865 90.9701 912.235 84.8806C910.424 78.791 908.251 73.209 905.354 68.1343C902.637 63.0597 898.834 57.9851 893.763 52.9105C888.873 47.8358 883.078 43.5224 876.558 39.9702C869.858 36.4179 861.708 33.6269 851.929 31.597C842.149 29.3134 831.283 28.2985 819.149 28.2985H813.354ZM870.944 121.164C870.944 126.746 870.22 132.328 868.59 137.403C867.141 142.478 864.425 147.552 860.621 152.373C856.818 157.448 851.023 161.507 843.236 164.299C836.535 167.09 828.385 168.358 819.149 168.866C817.7 168.866 815.527 168.866 814.622 168.866C804.661 168.612 795.968 167.09 788.724 164.299C780.937 161.254 775.323 157.194 771.519 152.119C767.897 147.045 765.181 141.97 763.732 136.896C762.102 131.821 761.378 126.239 761.378 120.657V117.866C761.378 87.6716 778.945 72.194 813.897 71.1791C814.984 71.1791 818.244 71.1791 819.874 71.4328C826.937 71.6866 833.275 72.4478 838.889 74.2239C845.59 76.2537 851.023 78.791 855.007 81.8358C858.992 84.6269 862.251 88.4328 864.606 92.7463C867.141 97.0597 868.771 101.119 869.677 105.179C870.582 108.985 870.944 113.299 870.944 117.866V121.164Z" fill="#ECECEC"/>
<path d="M1008.77 208.701H1259.05C1272.45 208.701 1284.04 207.687 1294 205.403C1303.96 203.119 1311.93 200.075 1317.54 196.522C1323.34 192.716 1328.05 188.149 1331.49 182.821C1334.93 177.493 1337.28 172.164 1338.37 166.836C1339.46 161.761 1340 155.925 1340 149.328V146.03C1340 128.269 1334.2 115.075 1322.8 106.701C1311.39 98.5821 1292.73 94.0149 1267.02 93.2537L1253.98 93L1006.23 92.7463C997.356 92.7463 990.474 91.7313 985.584 90.209C980.695 88.6866 977.616 86.9104 976.348 84.8806C974.899 83.1045 974.356 80.5672 974.356 77.5224C974.356 74.4776 974.899 71.9403 976.167 70.1642C977.254 68.1343 980.695 66.3582 986.128 64.8358C991.742 63.0597 998.261 62.2985 1008.77 62.2985H1252.71C1259.59 62.2985 1263.39 62.806 1268.65 64.0746C1273.72 65.0895 1277.52 66.3582 1280.24 67.8806C1282.77 69.1493 1284.95 71.1791 1286.58 73.209C1288.2 75.4925 1289.11 77.2687 1289.65 78.5373C1290.02 80.0597 1290.38 81.5821 1290.56 83.6119H1335.47V81.0746C1335.47 75.4925 1334.93 70.1642 1333.48 65.0895C1332.21 60.0149 1329.68 54.9403 1326.06 49.8657C1322.25 44.791 1317.54 40.4776 1311.93 36.9254C1306.13 33.6269 1298.35 30.5821 1288.75 28.2985C1279.15 26.2687 1267.92 25 1255.24 25H1004.96C992.828 25 982.143 26.2687 973.088 28.2985C963.852 30.3284 956.608 33.1194 951.175 36.4179C945.742 39.9702 941.396 44.0298 938.136 48.8507C934.695 53.6716 932.522 58.4925 931.435 63.3134C930.348 68.1343 929.805 73.4627 929.805 79.2985V81.3284C929.805 114.567 952.262 131.821 997.175 133.343L1007.32 133.597L1258.5 134.104C1268.83 134.358 1276.61 135.373 1282.05 137.149C1287.48 138.672 1290.92 140.701 1292.37 142.985C1294 145.269 1294.72 148.313 1294.72 152.119C1294.72 154.657 1294.18 157.194 1293.46 158.97C1292.55 161 1290.74 163.03 1288.21 164.806C1285.67 166.836 1281.5 168.358 1275.71 169.373C1270.09 170.388 1266.29 170.896 1257.78 170.896H1010.21C983.773 170.896 973.994 161.507 973.088 142.731H927.994V145.269C927.994 150.851 928.356 156.179 929.262 161C930.167 166.075 932.341 171.657 935.6 177.746C938.86 183.836 943.388 188.91 948.821 193.224C954.435 197.537 962.403 201.343 972.726 204.388C982.868 207.433 995.002 208.701 1008.77 208.701Z" fill="#ECECEC"/>
<path d="M32.055 98.8358V208.701H74.7949V31.3433H41.1101C33.866 52.6567 20.2834 63.8209 0 65.597V98.8358H32.055Z" stroke="black" stroke-width="4" mask="url(#path-3-inside-3_57_20)"/>
<path d="M172.762 208.701H423.045C436.446 208.701 448.037 207.687 457.997 205.403C467.958 203.119 475.926 200.075 481.541 196.522C487.336 192.716 492.044 188.149 495.485 182.821C498.926 177.493 501.281 172.164 502.367 166.836C503.454 161.761 503.997 155.925 503.997 149.328V146.03C503.997 128.269 498.202 115.075 486.792 106.701C475.383 98.5821 456.73 94.0149 431.013 93.2537L417.974 93L170.227 92.7463C161.353 92.7463 154.471 91.7313 149.581 90.209C144.692 88.6866 141.613 86.9104 140.345 84.8806C138.896 83.1045 138.353 80.5672 138.353 77.5224C138.353 74.4776 138.896 71.9403 140.164 70.1642C141.251 68.1343 144.692 66.3582 150.125 64.8358C155.739 63.0597 162.259 62.2985 172.762 62.2985H416.706C423.588 62.2985 427.391 62.806 432.643 64.0746C437.714 65.0895 441.517 66.3582 444.234 67.8806C446.769 69.1493 448.942 71.1791 450.572 73.209C452.202 75.4925 453.108 77.2687 453.651 78.5373C454.013 80.0597 454.375 81.5821 454.556 83.6119H499.47V81.0746C499.47 75.4925 498.926 70.1642 497.477 65.0895C496.21 60.0149 493.674 54.9403 490.052 49.8657C486.249 44.791 481.541 40.4776 475.926 36.9254C470.131 33.6269 462.344 30.5821 452.745 28.2985C443.147 26.2687 431.919 25 419.242 25H168.959C156.825 25 146.14 26.2687 137.085 28.2985C127.849 30.3284 120.605 33.1194 115.172 36.4179C109.739 39.9702 105.393 44.0298 102.133 48.8507C98.6919 53.6716 96.5186 58.4925 95.432 63.3134C94.3454 68.1343 93.8021 73.4627 93.8021 79.2985V81.3284C93.8021 114.567 116.259 131.821 161.172 133.343L171.314 133.597L422.501 134.104C432.824 134.358 440.612 135.373 446.045 137.149C451.478 138.672 454.919 140.701 456.367 142.985C457.997 145.269 458.722 148.313 458.722 152.119C458.722 154.657 458.178 157.194 457.454 158.97C456.549 161 454.738 163.03 452.202 164.806C449.667 166.836 445.501 168.358 439.706 169.373C434.092 170.388 430.289 170.896 421.777 170.896H174.211C147.77 170.896 137.991 161.507 137.085 142.731H91.9911V145.269C91.9911 150.851 92.3533 156.179 93.2588 161C94.1643 166.075 96.3375 171.657 99.5974 177.746C102.857 183.836 107.385 188.91 112.818 193.224C118.432 197.537 126.4 201.343 136.723 204.388C146.865 207.433 158.999 208.701 172.762 208.701Z" stroke="black" stroke-width="4" mask="url(#path-3-inside-3_57_20)"/>
<path d="M520.799 208.701H563.901V138.925H656.444V208.701H699.727V31.597H656.444V96.0448H563.901V31.597H520.799V208.701Z" stroke="black" stroke-width="4" mask="url(#path-3-inside-3_57_20)"/>
<path d="M813.354 28.2985C801.22 28.2985 790.354 29.3134 780.393 31.597C770.614 33.6269 762.283 36.4179 755.583 39.9702C749.063 43.5224 743.268 47.8358 738.378 52.9105C733.307 57.9851 729.504 63.0597 726.606 68.1343C723.89 73.209 721.717 78.791 720.087 84.8806C718.276 90.9701 717.189 96.5522 716.827 101.119C716.284 105.94 716.102 110.761 716.102 116.09V123.194C716.102 128.269 716.284 133.343 716.827 138.164C717.189 142.731 718.276 148.313 720.087 154.403C721.717 160.493 723.89 166.075 726.606 171.403C729.504 176.478 733.307 181.552 738.378 186.881C743.449 191.955 749.244 196.269 755.764 200.075C762.283 203.627 770.614 206.418 780.393 208.701C790.354 210.985 801.22 212 813.354 212H819.149C831.283 212 842.149 210.985 851.929 208.701C861.889 206.418 870.039 203.627 876.558 200.075C883.078 196.269 888.873 191.955 893.944 186.881C899.015 181.552 902.818 176.478 905.535 171.403C908.251 166.075 910.424 160.493 912.235 154.403C913.865 148.313 915.133 142.731 915.495 138.164C916.039 133.343 916.22 128.269 916.22 123.194V116.09C916.22 110.761 916.039 105.94 915.495 101.119C915.133 96.2985 913.865 90.9701 912.235 84.8806C910.424 78.791 908.251 73.209 905.354 68.1343C902.637 63.0597 898.834 57.9851 893.763 52.9105C888.873 47.8358 883.078 43.5224 876.558 39.9702C869.858 36.4179 861.708 33.6269 851.929 31.597C842.149 29.3134 831.283 28.2985 819.149 28.2985H813.354ZM870.944 121.164C870.944 126.746 870.22 132.328 868.59 137.403C867.141 142.478 864.425 147.552 860.621 152.373C856.818 157.448 851.023 161.507 843.236 164.299C836.535 167.09 828.385 168.358 819.149 168.866C817.7 168.866 815.527 168.866 814.622 168.866C804.661 168.612 795.968 167.09 788.724 164.299C780.937 161.254 775.323 157.194 771.519 152.119C767.897 147.045 765.181 141.97 763.732 136.896C762.102 131.821 761.378 126.239 761.378 120.657V117.866C761.378 87.6716 778.945 72.194 813.897 71.1791C814.984 71.1791 818.244 71.1791 819.874 71.4328C826.937 71.6866 833.275 72.4478 838.889 74.2239C845.59 76.2537 851.023 78.791 855.007 81.8358C858.992 84.6269 862.251 88.4328 864.606 92.7463C867.141 97.0597 868.771 101.119 869.677 105.179C870.582 108.985 870.944 113.299 870.944 117.866V121.164Z" stroke="black" stroke-width="4" mask="url(#path-3-inside-3_57_20)"/>
<path d="M1008.77 208.701H1259.05C1272.45 208.701 1284.04 207.687 1294 205.403C1303.96 203.119 1311.93 200.075 1317.54 196.522C1323.34 192.716 1328.05 188.149 1331.49 182.821C1334.93 177.493 1337.28 172.164 1338.37 166.836C1339.46 161.761 1340 155.925 1340 149.328V146.03C1340 128.269 1334.2 115.075 1322.8 106.701C1311.39 98.5821 1292.73 94.0149 1267.02 93.2537L1253.98 93L1006.23 92.7463C997.356 92.7463 990.474 91.7313 985.584 90.209C980.695 88.6866 977.616 86.9104 976.348 84.8806C974.899 83.1045 974.356 80.5672 974.356 77.5224C974.356 74.4776 974.899 71.9403 976.167 70.1642C977.254 68.1343 980.695 66.3582 986.128 64.8358C991.742 63.0597 998.261 62.2985 1008.77 62.2985H1252.71C1259.59 62.2985 1263.39 62.806 1268.65 64.0746C1273.72 65.0895 1277.52 66.3582 1280.24 67.8806C1282.77 69.1493 1284.95 71.1791 1286.58 73.209C1288.2 75.4925 1289.11 77.2687 1289.65 78.5373C1290.02 80.0597 1290.38 81.5821 1290.56 83.6119H1335.47V81.0746C1335.47 75.4925 1334.93 70.1642 1333.48 65.0895C1332.21 60.0149 1329.68 54.9403 1326.06 49.8657C1322.25 44.791 1317.54 40.4776 1311.93 36.9254C1306.13 33.6269 1298.35 30.5821 1288.75 28.2985C1279.15 26.2687 1267.92 25 1255.24 25H1004.96C992.828 25 982.143 26.2687 973.088 28.2985C963.852 30.3284 956.608 33.1194 951.175 36.4179C945.742 39.9702 941.396 44.0298 938.136 48.8507C934.695 53.6716 932.522 58.4925 931.435 63.3134C930.348 68.1343 929.805 73.4627 929.805 79.2985V81.3284C929.805 114.567 952.262 131.821 997.175 133.343L1007.32 133.597L1258.5 134.104C1268.83 134.358 1276.61 135.373 1282.05 137.149C1287.48 138.672 1290.92 140.701 1292.37 142.985C1294 145.269 1294.72 148.313 1294.72 152.119C1294.72 154.657 1294.18 157.194 1293.46 158.97C1292.55 161 1290.74 163.03 1288.21 164.806C1285.67 166.836 1281.5 168.358 1275.71 169.373C1270.09 170.388 1266.29 170.896 1257.78 170.896H1010.21C983.773 170.896 973.994 161.507 973.088 142.731H927.994V145.269C927.994 150.851 928.356 156.179 929.262 161C930.167 166.075 932.341 171.657 935.6 177.746C938.86 183.836 943.388 188.91 948.821 193.224C954.435 197.537 962.403 201.343 972.726 204.388C982.868 207.433 995.002 208.701 1008.77 208.701Z" stroke="black" stroke-width="4" mask="url(#path-3-inside-3_57_20)"/>
<mask id="path-4-inside-4_57_20" fill="white">
<path d="M32.055 73.8358V183.701H74.7949V6.34328H41.1101C33.866 27.6567 20.2834 38.8209 0 40.597V73.8358H32.055Z"/>
<path d="M172.762 183.701H423.045C436.446 183.701 448.037 182.687 457.997 180.403C467.958 178.119 475.926 175.075 481.541 171.522C487.336 167.716 492.044 163.149 495.485 157.821C498.926 152.493 501.281 147.164 502.367 141.836C503.454 136.761 503.997 130.925 503.997 124.328V121.03C503.997 103.269 498.202 90.0746 486.792 81.7015C475.383 73.5821 456.73 69.0149 431.013 68.2537L417.974 68L170.227 67.7463C161.353 67.7463 154.471 66.7313 149.581 65.209C144.692 63.6866 141.613 61.9104 140.345 59.8806C138.896 58.1045 138.353 55.5672 138.353 52.5224C138.353 49.4776 138.896 46.9403 140.164 45.1642C141.251 43.1343 144.692 41.3582 150.125 39.8358C155.739 38.0597 162.259 37.2985 172.762 37.2985H416.706C423.588 37.2985 427.391 37.806 432.643 39.0746C437.714 40.0895 441.517 41.3582 444.234 42.8806C446.769 44.1493 448.942 46.1791 450.572 48.209C452.202 50.4925 453.108 52.2687 453.651 53.5373C454.013 55.0597 454.375 56.5821 454.556 58.6119H499.47V56.0746C499.47 50.4925 498.926 45.1642 497.477 40.0895C496.21 35.0149 493.674 29.9403 490.052 24.8657C486.249 19.791 481.541 15.4776 475.926 11.9254C470.131 8.62686 462.344 5.58209 452.745 3.29851C443.147 1.26866 431.919 0 419.242 0H168.959C156.825 0 146.14 1.26866 137.085 3.29851C127.849 5.32836 120.605 8.1194 115.172 11.4179C109.739 14.9702 105.393 19.0298 102.133 23.8507C98.6919 28.6716 96.5186 33.4925 95.432 38.3134C94.3454 43.1343 93.8021 48.4627 93.8021 54.2985V56.3284C93.8021 89.5672 116.259 106.821 161.172 108.343L171.314 108.597L422.501 109.104C432.824 109.358 440.612 110.373 446.045 112.149C451.478 113.672 454.919 115.701 456.367 117.985C457.997 120.269 458.722 123.313 458.722 127.119C458.722 129.657 458.178 132.194 457.454 133.97C456.549 136 454.738 138.03 452.202 139.806C449.667 141.836 445.501 143.358 439.706 144.373C434.092 145.388 430.289 145.896 421.777 145.896H174.211C147.77 145.896 137.991 136.507 137.085 117.731H91.9911V120.269C91.9911 125.851 92.3533 131.179 93.2588 136C94.1643 141.075 96.3375 146.657 99.5974 152.746C102.857 158.836 107.385 163.91 112.818 168.224C118.432 172.537 126.4 176.343 136.723 179.388C146.865 182.433 158.999 183.701 172.762 183.701Z"/>
<path d="M520.799 183.701H563.901V113.925H656.444V183.701H699.727V6.59702H656.444V71.0448H563.901V6.59702H520.799V183.701Z"/>
<path d="M813.354 3.29851C801.22 3.29851 790.354 4.31344 780.393 6.59702C770.614 8.62686 762.283 11.4179 755.583 14.9702C749.063 18.5224 743.268 22.8358 738.378 27.9105C733.307 32.9851 729.504 38.0597 726.606 43.1343C723.89 48.209 721.717 53.791 720.087 59.8806C718.276 65.9701 717.189 71.5522 716.827 76.1194C716.284 80.9403 716.102 85.7612 716.102 91.0896V98.194C716.102 103.269 716.284 108.343 716.827 113.164C717.189 117.731 718.276 123.313 720.087 129.403C721.717 135.493 723.89 141.075 726.606 146.403C729.504 151.478 733.307 156.552 738.378 161.881C743.449 166.955 749.244 171.269 755.764 175.075C762.283 178.627 770.614 181.418 780.393 183.701C790.354 185.985 801.22 187 813.354 187H819.149C831.283 187 842.149 185.985 851.929 183.701C861.889 181.418 870.039 178.627 876.558 175.075C883.078 171.269 888.873 166.955 893.944 161.881C899.015 156.552 902.818 151.478 905.535 146.403C908.251 141.075 910.424 135.493 912.235 129.403C913.865 123.313 915.133 117.731 915.495 113.164C916.039 108.343 916.22 103.269 916.22 98.194V91.0896C916.22 85.7612 916.039 80.9403 915.495 76.1194C915.133 71.2985 913.865 65.9701 912.235 59.8806C910.424 53.791 908.251 48.209 905.354 43.1343C902.637 38.0597 898.834 32.9851 893.763 27.9105C888.873 22.8358 883.078 18.5224 876.558 14.9702C869.858 11.4179 861.708 8.62686 851.929 6.59702C842.149 4.31344 831.283 3.29851 819.149 3.29851H813.354ZM870.944 96.1642C870.944 101.746 870.22 107.328 868.59 112.403C867.141 117.478 864.425 122.552 860.621 127.373C856.818 132.448 851.023 136.507 843.236 139.299C836.535 142.09 828.385 143.358 819.149 143.866C817.7 143.866 815.527 143.866 814.622 143.866C804.661 143.612 795.968 142.09 788.724 139.299C780.937 136.254 775.323 132.194 771.519 127.119C767.897 122.045 765.181 116.97 763.732 111.896C762.102 106.821 761.378 101.239 761.378 95.6567V92.8657C761.378 62.6716 778.945 47.194 813.897 46.1791C814.984 46.1791 818.244 46.1791 819.874 46.4328C826.937 46.6866 833.275 47.4478 838.889 49.2239C845.59 51.2537 851.023 53.791 855.007 56.8358C858.992 59.6269 862.251 63.4328 864.606 67.7463C867.141 72.0597 868.771 76.1194 869.677 80.1791C870.582 83.9851 870.944 88.2985 870.944 92.8657V96.1642Z"/>
<path d="M1008.77 183.701H1259.05C1272.45 183.701 1284.04 182.687 1294 180.403C1303.96 178.119 1311.93 175.075 1317.54 171.522C1323.34 167.716 1328.05 163.149 1331.49 157.821C1334.93 152.493 1337.28 147.164 1338.37 141.836C1339.46 136.761 1340 130.925 1340 124.328V121.03C1340 103.269 1334.2 90.0746 1322.8 81.7015C1311.39 73.5821 1292.73 69.0149 1267.02 68.2537L1253.98 68L1006.23 67.7463C997.356 67.7463 990.474 66.7313 985.584 65.209C980.695 63.6866 977.616 61.9104 976.348 59.8806C974.899 58.1045 974.356 55.5672 974.356 52.5224C974.356 49.4776 974.899 46.9403 976.167 45.1642C977.254 43.1343 980.695 41.3582 986.128 39.8358C991.742 38.0597 998.261 37.2985 1008.77 37.2985H1252.71C1259.59 37.2985 1263.39 37.806 1268.65 39.0746C1273.72 40.0895 1277.52 41.3582 1280.24 42.8806C1282.77 44.1493 1284.95 46.1791 1286.58 48.209C1288.2 50.4925 1289.11 52.2687 1289.65 53.5373C1290.02 55.0597 1290.38 56.5821 1290.56 58.6119H1335.47V56.0746C1335.47 50.4925 1334.93 45.1642 1333.48 40.0895C1332.21 35.0149 1329.68 29.9403 1326.06 24.8657C1322.25 19.791 1317.54 15.4776 1311.93 11.9254C1306.13 8.62686 1298.35 5.58209 1288.75 3.29851C1279.15 1.26866 1267.92 0 1255.24 0H1004.96C992.828 0 982.143 1.26866 973.088 3.29851C963.852 5.32836 956.608 8.1194 951.175 11.4179C945.742 14.9702 941.396 19.0298 938.136 23.8507C934.695 28.6716 932.522 33.4925 931.435 38.3134C930.348 43.1343 929.805 48.4627 929.805 54.2985V56.3284C929.805 89.5672 952.262 106.821 997.175 108.343L1007.32 108.597L1258.5 109.104C1268.83 109.358 1276.61 110.373 1282.05 112.149C1287.48 113.672 1290.92 115.701 1292.37 117.985C1294 120.269 1294.72 123.313 1294.72 127.119C1294.72 129.657 1294.18 132.194 1293.46 133.97C1292.55 136 1290.74 138.03 1288.21 139.806C1285.67 141.836 1281.5 143.358 1275.71 144.373C1270.09 145.388 1266.29 145.896 1257.78 145.896H1010.21C983.773 145.896 973.994 136.507 973.088 117.731H927.994V120.269C927.994 125.851 928.356 131.179 929.262 136C930.167 141.075 932.341 146.657 935.6 152.746C938.86 158.836 943.388 163.91 948.821 168.224C954.435 172.537 962.403 176.343 972.726 179.388C982.868 182.433 995.002 183.701 1008.77 183.701Z"/>
</mask>
<path d="M32.055 73.8358V183.701H74.7949V6.34328H41.1101C33.866 27.6567 20.2834 38.8209 0 40.597V73.8358H32.055Z" fill="black"/>
<path d="M172.762 183.701H423.045C436.446 183.701 448.037 182.687 457.997 180.403C467.958 178.119 475.926 175.075 481.541 171.522C487.336 167.716 492.044 163.149 495.485 157.821C498.926 152.493 501.281 147.164 502.367 141.836C503.454 136.761 503.997 130.925 503.997 124.328V121.03C503.997 103.269 498.202 90.0746 486.792 81.7015C475.383 73.5821 456.73 69.0149 431.013 68.2537L417.974 68L170.227 67.7463C161.353 67.7463 154.471 66.7313 149.581 65.209C144.692 63.6866 141.613 61.9104 140.345 59.8806C138.896 58.1045 138.353 55.5672 138.353 52.5224C138.353 49.4776 138.896 46.9403 140.164 45.1642C141.251 43.1343 144.692 41.3582 150.125 39.8358C155.739 38.0597 162.259 37.2985 172.762 37.2985H416.706C423.588 37.2985 427.391 37.806 432.643 39.0746C437.714 40.0895 441.517 41.3582 444.234 42.8806C446.769 44.1493 448.942 46.1791 450.572 48.209C452.202 50.4925 453.108 52.2687 453.651 53.5373C454.013 55.0597 454.375 56.5821 454.556 58.6119H499.47V56.0746C499.47 50.4925 498.926 45.1642 497.477 40.0895C496.21 35.0149 493.674 29.9403 490.052 24.8657C486.249 19.791 481.541 15.4776 475.926 11.9254C470.131 8.62686 462.344 5.58209 452.745 3.29851C443.147 1.26866 431.919 0 419.242 0H168.959C156.825 0 146.14 1.26866 137.085 3.29851C127.849 5.32836 120.605 8.1194 115.172 11.4179C109.739 14.9702 105.393 19.0298 102.133 23.8507C98.6919 28.6716 96.5186 33.4925 95.432 38.3134C94.3454 43.1343 93.8021 48.4627 93.8021 54.2985V56.3284C93.8021 89.5672 116.259 106.821 161.172 108.343L171.314 108.597L422.501 109.104C432.824 109.358 440.612 110.373 446.045 112.149C451.478 113.672 454.919 115.701 456.367 117.985C457.997 120.269 458.722 123.313 458.722 127.119C458.722 129.657 458.178 132.194 457.454 133.97C456.549 136 454.738 138.03 452.202 139.806C449.667 141.836 445.501 143.358 439.706 144.373C434.092 145.388 430.289 145.896 421.777 145.896H174.211C147.77 145.896 137.991 136.507 137.085 117.731H91.9911V120.269C91.9911 125.851 92.3533 131.179 93.2588 136C94.1643 141.075 96.3375 146.657 99.5974 152.746C102.857 158.836 107.385 163.91 112.818 168.224C118.432 172.537 126.4 176.343 136.723 179.388C146.865 182.433 158.999 183.701 172.762 183.701Z" fill="black"/>
<path d="M520.799 183.701H563.901V113.925H656.444V183.701H699.727V6.59702H656.444V71.0448H563.901V6.59702H520.799V183.701Z" fill="black"/>
<path d="M813.354 3.29851C801.22 3.29851 790.354 4.31344 780.393 6.59702C770.614 8.62686 762.283 11.4179 755.583 14.9702C749.063 18.5224 743.268 22.8358 738.378 27.9105C733.307 32.9851 729.504 38.0597 726.606 43.1343C723.89 48.209 721.717 53.791 720.087 59.8806C718.276 65.9701 717.189 71.5522 716.827 76.1194C716.284 80.9403 716.102 85.7612 716.102 91.0896V98.194C716.102 103.269 716.284 108.343 716.827 113.164C717.189 117.731 718.276 123.313 720.087 129.403C721.717 135.493 723.89 141.075 726.606 146.403C729.504 151.478 733.307 156.552 738.378 161.881C743.449 166.955 749.244 171.269 755.764 175.075C762.283 178.627 770.614 181.418 780.393 183.701C790.354 185.985 801.22 187 813.354 187H819.149C831.283 187 842.149 185.985 851.929 183.701C861.889 181.418 870.039 178.627 876.558 175.075C883.078 171.269 888.873 166.955 893.944 161.881C899.015 156.552 902.818 151.478 905.535 146.403C908.251 141.075 910.424 135.493 912.235 129.403C913.865 123.313 915.133 117.731 915.495 113.164C916.039 108.343 916.22 103.269 916.22 98.194V91.0896C916.22 85.7612 916.039 80.9403 915.495 76.1194C915.133 71.2985 913.865 65.9701 912.235 59.8806C910.424 53.791 908.251 48.209 905.354 43.1343C902.637 38.0597 898.834 32.9851 893.763 27.9105C888.873 22.8358 883.078 18.5224 876.558 14.9702C869.858 11.4179 861.708 8.62686 851.929 6.59702C842.149 4.31344 831.283 3.29851 819.149 3.29851H813.354ZM870.944 96.1642C870.944 101.746 870.22 107.328 868.59 112.403C867.141 117.478 864.425 122.552 860.621 127.373C856.818 132.448 851.023 136.507 843.236 139.299C836.535 142.09 828.385 143.358 819.149 143.866C817.7 143.866 815.527 143.866 814.622 143.866C804.661 143.612 795.968 142.09 788.724 139.299C780.937 136.254 775.323 132.194 771.519 127.119C767.897 122.045 765.181 116.97 763.732 111.896C762.102 106.821 761.378 101.239 761.378 95.6567V92.8657C761.378 62.6716 778.945 47.194 813.897 46.1791C814.984 46.1791 818.244 46.1791 819.874 46.4328C826.937 46.6866 833.275 47.4478 838.889 49.2239C845.59 51.2537 851.023 53.791 855.007 56.8358C858.992 59.6269 862.251 63.4328 864.606 67.7463C867.141 72.0597 868.771 76.1194 869.677 80.1791C870.582 83.9851 870.944 88.2985 870.944 92.8657V96.1642Z" fill="black"/>
<path d="M1008.77 183.701H1259.05C1272.45 183.701 1284.04 182.687 1294 180.403C1303.96 178.119 1311.93 175.075 1317.54 171.522C1323.34 167.716 1328.05 163.149 1331.49 157.821C1334.93 152.493 1337.28 147.164 1338.37 141.836C1339.46 136.761 1340 130.925 1340 124.328V121.03C1340 103.269 1334.2 90.0746 1322.8 81.7015C1311.39 73.5821 1292.73 69.0149 1267.02 68.2537L1253.98 68L1006.23 67.7463C997.356 67.7463 990.474 66.7313 985.584 65.209C980.695 63.6866 977.616 61.9104 976.348 59.8806C974.899 58.1045 974.356 55.5672 974.356 52.5224C974.356 49.4776 974.899 46.9403 976.167 45.1642C977.254 43.1343 980.695 41.3582 986.128 39.8358C991.742 38.0597 998.261 37.2985 1008.77 37.2985H1252.71C1259.59 37.2985 1263.39 37.806 1268.65 39.0746C1273.72 40.0895 1277.52 41.3582 1280.24 42.8806C1282.77 44.1493 1284.95 46.1791 1286.58 48.209C1288.2 50.4925 1289.11 52.2687 1289.65 53.5373C1290.02 55.0597 1290.38 56.5821 1290.56 58.6119H1335.47V56.0746C1335.47 50.4925 1334.93 45.1642 1333.48 40.0895C1332.21 35.0149 1329.68 29.9403 1326.06 24.8657C1322.25 19.791 1317.54 15.4776 1311.93 11.9254C1306.13 8.62686 1298.35 5.58209 1288.75 3.29851C1279.15 1.26866 1267.92 0 1255.24 0H1004.96C992.828 0 982.143 1.26866 973.088 3.29851C963.852 5.32836 956.608 8.1194 951.175 11.4179C945.742 14.9702 941.396 19.0298 938.136 23.8507C934.695 28.6716 932.522 33.4925 931.435 38.3134C930.348 43.1343 929.805 48.4627 929.805 54.2985V56.3284C929.805 89.5672 952.262 106.821 997.175 108.343L1007.32 108.597L1258.5 109.104C1268.83 109.358 1276.61 110.373 1282.05 112.149C1287.48 113.672 1290.92 115.701 1292.37 117.985C1294 120.269 1294.72 123.313 1294.72 127.119C1294.72 129.657 1294.18 132.194 1293.46 133.97C1292.55 136 1290.74 138.03 1288.21 139.806C1285.67 141.836 1281.5 143.358 1275.71 144.373C1270.09 145.388 1266.29 145.896 1257.78 145.896H1010.21C983.773 145.896 973.994 136.507 973.088 117.731H927.994V120.269C927.994 125.851 928.356 131.179 929.262 136C930.167 141.075 932.341 146.657 935.6 152.746C938.86 158.836 943.388 163.91 948.821 168.224C954.435 172.537 962.403 176.343 972.726 179.388C982.868 182.433 995.002 183.701 1008.77 183.701Z" fill="black"/>
<path d="M32.055 73.8358V183.701H74.7949V6.34328H41.1101C33.866 27.6567 20.2834 38.8209 0 40.597V73.8358H32.055Z" stroke="black" stroke-width="4" mask="url(#path-4-inside-4_57_20)"/>
<path d="M172.762 183.701H423.045C436.446 183.701 448.037 182.687 457.997 180.403C467.958 178.119 475.926 175.075 481.541 171.522C487.336 167.716 492.044 163.149 495.485 157.821C498.926 152.493 501.281 147.164 502.367 141.836C503.454 136.761 503.997 130.925 503.997 124.328V121.03C503.997 103.269 498.202 90.0746 486.792 81.7015C475.383 73.5821 456.73 69.0149 431.013 68.2537L417.974 68L170.227 67.7463C161.353 67.7463 154.471 66.7313 149.581 65.209C144.692 63.6866 141.613 61.9104 140.345 59.8806C138.896 58.1045 138.353 55.5672 138.353 52.5224C138.353 49.4776 138.896 46.9403 140.164 45.1642C141.251 43.1343 144.692 41.3582 150.125 39.8358C155.739 38.0597 162.259 37.2985 172.762 37.2985H416.706C423.588 37.2985 427.391 37.806 432.643 39.0746C437.714 40.0895 441.517 41.3582 444.234 42.8806C446.769 44.1493 448.942 46.1791 450.572 48.209C452.202 50.4925 453.108 52.2687 453.651 53.5373C454.013 55.0597 454.375 56.5821 454.556 58.6119H499.47V56.0746C499.47 50.4925 498.926 45.1642 497.477 40.0895C496.21 35.0149 493.674 29.9403 490.052 24.8657C486.249 19.791 481.541 15.4776 475.926 11.9254C470.131 8.62686 462.344 5.58209 452.745 3.29851C443.147 1.26866 431.919 0 419.242 0H168.959C156.825 0 146.14 1.26866 137.085 3.29851C127.849 5.32836 120.605 8.1194 115.172 11.4179C109.739 14.9702 105.393 19.0298 102.133 23.8507C98.6919 28.6716 96.5186 33.4925 95.432 38.3134C94.3454 43.1343 93.8021 48.4627 93.8021 54.2985V56.3284C93.8021 89.5672 116.259 106.821 161.172 108.343L171.314 108.597L422.501 109.104C432.824 109.358 440.612 110.373 446.045 112.149C451.478 113.672 454.919 115.701 456.367 117.985C457.997 120.269 458.722 123.313 458.722 127.119C458.722 129.657 458.178 132.194 457.454 133.97C456.549 136 454.738 138.03 452.202 139.806C449.667 141.836 445.501 143.358 439.706 144.373C434.092 145.388 430.289 145.896 421.777 145.896H174.211C147.77 145.896 137.991 136.507 137.085 117.731H91.9911V120.269C91.9911 125.851 92.3533 131.179 93.2588 136C94.1643 141.075 96.3375 146.657 99.5974 152.746C102.857 158.836 107.385 163.91 112.818 168.224C118.432 172.537 126.4 176.343 136.723 179.388C146.865 182.433 158.999 183.701 172.762 183.701Z" stroke="black" stroke-width="4" mask="url(#path-4-inside-4_57_20)"/>
<path d="M520.799 183.701H563.901V113.925H656.444V183.701H699.727V6.59702H656.444V71.0448H563.901V6.59702H520.799V183.701Z" stroke="black" stroke-width="4" mask="url(#path-4-inside-4_57_20)"/>
<path d="M813.354 3.29851C801.22 3.29851 790.354 4.31344 780.393 6.59702C770.614 8.62686 762.283 11.4179 755.583 14.9702C749.063 18.5224 743.268 22.8358 738.378 27.9105C733.307 32.9851 729.504 38.0597 726.606 43.1343C723.89 48.209 721.717 53.791 720.087 59.8806C718.276 65.9701 717.189 71.5522 716.827 76.1194C716.284 80.9403 716.102 85.7612 716.102 91.0896V98.194C716.102 103.269 716.284 108.343 716.827 113.164C717.189 117.731 718.276 123.313 720.087 129.403C721.717 135.493 723.89 141.075 726.606 146.403C729.504 151.478 733.307 156.552 738.378 161.881C743.449 166.955 749.244 171.269 755.764 175.075C762.283 178.627 770.614 181.418 780.393 183.701C790.354 185.985 801.22 187 813.354 187H819.149C831.283 187 842.149 185.985 851.929 183.701C861.889 181.418 870.039 178.627 876.558 175.075C883.078 171.269 888.873 166.955 893.944 161.881C899.015 156.552 902.818 151.478 905.535 146.403C908.251 141.075 910.424 135.493 912.235 129.403C913.865 123.313 915.133 117.731 915.495 113.164C916.039 108.343 916.22 103.269 916.22 98.194V91.0896C916.22 85.7612 916.039 80.9403 915.495 76.1194C915.133 71.2985 913.865 65.9701 912.235 59.8806C910.424 53.791 908.251 48.209 905.354 43.1343C902.637 38.0597 898.834 32.9851 893.763 27.9105C888.873 22.8358 883.078 18.5224 876.558 14.9702C869.858 11.4179 861.708 8.62686 851.929 6.59702C842.149 4.31344 831.283 3.29851 819.149 3.29851H813.354ZM870.944 96.1642C870.944 101.746 870.22 107.328 868.59 112.403C867.141 117.478 864.425 122.552 860.621 127.373C856.818 132.448 851.023 136.507 843.236 139.299C836.535 142.09 828.385 143.358 819.149 143.866C817.7 143.866 815.527 143.866 814.622 143.866C804.661 143.612 795.968 142.09 788.724 139.299C780.937 136.254 775.323 132.194 771.519 127.119C767.897 122.045 765.181 116.97 763.732 111.896C762.102 106.821 761.378 101.239 761.378 95.6567V92.8657C761.378 62.6716 778.945 47.194 813.897 46.1791C814.984 46.1791 818.244 46.1791 819.874 46.4328C826.937 46.6866 833.275 47.4478 838.889 49.2239C845.59 51.2537 851.023 53.791 855.007 56.8358C858.992 59.6269 862.251 63.4328 864.606 67.7463C867.141 72.0597 868.771 76.1194 869.677 80.1791C870.582 83.9851 870.944 88.2985 870.944 92.8657V96.1642Z" stroke="black" stroke-width="4" mask="url(#path-4-inside-4_57_20)"/>
<path d="M1008.77 183.701H1259.05C1272.45 183.701 1284.04 182.687 1294 180.403C1303.96 178.119 1311.93 175.075 1317.54 171.522C1323.34 167.716 1328.05 163.149 1331.49 157.821C1334.93 152.493 1337.28 147.164 1338.37 141.836C1339.46 136.761 1340 130.925 1340 124.328V121.03C1340 103.269 1334.2 90.0746 1322.8 81.7015C1311.39 73.5821 1292.73 69.0149 1267.02 68.2537L1253.98 68L1006.23 67.7463C997.356 67.7463 990.474 66.7313 985.584 65.209C980.695 63.6866 977.616 61.9104 976.348 59.8806C974.899 58.1045 974.356 55.5672 974.356 52.5224C974.356 49.4776 974.899 46.9403 976.167 45.1642C977.254 43.1343 980.695 41.3582 986.128 39.8358C991.742 38.0597 998.261 37.2985 1008.77 37.2985H1252.71C1259.59 37.2985 1263.39 37.806 1268.65 39.0746C1273.72 40.0895 1277.52 41.3582 1280.24 42.8806C1282.77 44.1493 1284.95 46.1791 1286.58 48.209C1288.2 50.4925 1289.11 52.2687 1289.65 53.5373C1290.02 55.0597 1290.38 56.5821 1290.56 58.6119H1335.47V56.0746C1335.47 50.4925 1334.93 45.1642 1333.48 40.0895C1332.21 35.0149 1329.68 29.9403 1326.06 24.8657C1322.25 19.791 1317.54 15.4776 1311.93 11.9254C1306.13 8.62686 1298.35 5.58209 1288.75 3.29851C1279.15 1.26866 1267.92 0 1255.24 0H1004.96C992.828 0 982.143 1.26866 973.088 3.29851C963.852 5.32836 956.608 8.1194 951.175 11.4179C945.742 14.9702 941.396 19.0298 938.136 23.8507C934.695 28.6716 932.522 33.4925 931.435 38.3134C930.348 43.1343 929.805 48.4627 929.805 54.2985V56.3284C929.805 89.5672 952.262 106.821 997.175 108.343L1007.32 108.597L1258.5 109.104C1268.83 109.358 1276.61 110.373 1282.05 112.149C1287.48 113.672 1290.92 115.701 1292.37 117.985C1294 120.269 1294.72 123.313 1294.72 127.119C1294.72 129.657 1294.18 132.194 1293.46 133.97C1292.55 136 1290.74 138.03 1288.21 139.806C1285.67 141.836 1281.5 143.358 1275.71 144.373C1270.09 145.388 1266.29 145.896 1257.78 145.896H1010.21C983.773 145.896 973.994 136.507 973.088 117.731H927.994V120.269C927.994 125.851 928.356 131.179 929.262 136C930.167 141.075 932.341 146.657 935.6 152.746C938.86 158.836 943.388 163.91 948.821 168.224C954.435 172.537 962.403 176.343 972.726 179.388C982.868 182.433 995.002 183.701 1008.77 183.701Z" stroke="black" stroke-width="4" mask="url(#path-4-inside-4_57_20)"/>
</svg>
