<svg width="292" height="49" viewBox="0 0 292 49" fill="none" xmlns="http://www.w3.org/2000/svg">
<rect x="0.5" y="0.5" width="291" height="48" rx="24" stroke="black"/>
<path d="M31.01 13.67C29 13.67 27.2 13.79 25.55 14.06C23.93 14.3 22.55 14.63 21.44 15.05C20.36 15.47 19.4 15.98 18.59 16.58C17.75 17.18 17.12 17.78 16.64 18.38C16.19 18.98 15.83 19.64 15.56 20.36C15.26 21.08 15.08 21.74 15.02 22.28C14.93 22.85 14.9 23.42 14.9 24.05V24.89C14.9 25.49 14.93 26.09 15.02 26.66C15.08 27.2 15.26 27.86 15.56 28.58C15.83 29.3 16.19 29.96 16.64 30.59C17.12 31.19 17.75 31.79 18.59 32.42C19.43 33.02 20.39 33.53 21.47 33.98C22.55 34.4 23.93 34.73 25.55 35C27.2 35.27 29 35.39 31.01 35.39H31.97C33.98 35.39 35.78 35.27 37.4 35C39.05 34.73 40.4 34.4 41.48 33.98C42.56 33.53 43.52 33.02 44.36 32.42C45.2 31.79 45.83 31.19 46.28 30.59C46.73 29.96 47.09 29.3 47.39 28.58C47.66 27.86 47.87 27.2 47.93 26.66C48.02 26.09 48.05 25.49 48.05 24.89V24.05C48.05 23.42 48.02 22.85 47.93 22.28C47.87 21.71 47.66 21.08 47.39 20.36C47.09 19.64 46.73 18.98 46.25 18.38C45.8 17.78 45.17 17.18 44.33 16.58C43.52 15.98 42.56 15.47 41.48 15.05C40.37 14.63 39.02 14.3 37.4 14.06C35.78 13.79 33.98 13.67 31.97 13.67H31.01ZM40.55 24.65C40.55 25.31 40.43 25.97 40.16 26.57C39.92 27.17 39.47 27.77 38.84 28.34C38.21 28.94 37.25 29.42 35.96 29.75C34.85 30.08 33.5 30.23 31.97 30.29C31.73 30.29 31.37 30.29 31.22 30.29C29.57 30.26 28.13 30.08 26.93 29.75C25.64 29.39 24.71 28.91 24.08 28.31C23.48 27.71 23.03 27.11 22.79 26.51C22.52 25.91 22.4 25.25 22.4 24.59V24.26C22.4 20.69 25.31 18.86 31.1 18.74C31.28 18.74 31.82 18.74 32.09 18.77C33.26 18.8 34.31 18.89 35.24 19.1C36.35 19.34 37.25 19.64 37.91 20C38.57 20.33 39.11 20.78 39.5 21.29C39.92 21.8 40.19 22.28 40.34 22.76C40.49 23.21 40.55 23.72 40.55 24.26V24.65ZM67.9405 28.04C75.0505 28.04 78.5905 25.73 78.5905 21.14V20.87C78.5905 16.31 75.0505 14.03 67.9405 14.03H50.7805V35.03H57.9205V28.04H67.9405ZM57.9205 18.8H67.8205C70.0105 18.8 71.1205 19.55 71.1205 21.02V21.11C71.1205 22.58 70.0105 23.33 67.8205 23.33H57.9205V18.8ZM81.0441 13.97V35H105.524V30.11H88.1241V26.66H104.804V21.86H88.1241V18.74H105.194V13.97H81.0441ZM108.7 14.03V35.03H115.75V21.11L131.29 35.03H138.37V14.03H131.29V27.23L116.68 14.03H108.7ZM154.611 35.39H156.711C158.931 35.39 160.881 35.27 162.531 34.97C164.181 34.7 165.471 34.37 166.431 33.92C167.391 33.5 168.141 32.96 168.711 32.33C169.281 31.67 169.671 31.04 169.851 30.44C170.031 29.84 170.121 29.15 170.121 28.37V27.98C170.121 25.85 169.191 24.32 167.271 23.33C165.381 22.34 162.321 21.8 158.031 21.74L155.871 21.71L154.191 21.68C152.721 21.65 151.581 21.56 150.771 21.38C149.961 21.17 149.451 20.96 149.241 20.75C149.001 20.51 148.911 20.24 148.911 19.88C148.911 19.49 149.001 19.19 149.211 18.98C149.391 18.77 149.961 18.56 150.861 18.35C151.791 18.17 152.871 18.08 154.611 18.08H155.661C156.801 18.08 157.461 18.14 158.301 18.26C159.141 18.41 159.801 18.56 160.221 18.71C160.671 18.89 161.001 19.1 161.271 19.37C161.541 19.64 161.721 19.85 161.781 20C161.841 20.15 161.901 20.36 161.961 20.57H169.401V20.3C169.401 19.61 169.281 18.98 169.041 18.38C168.831 17.81 168.411 17.21 167.811 16.61C167.211 16.01 166.431 15.5 165.471 15.08C164.511 14.66 163.251 14.33 161.631 14.06C160.041 13.79 158.181 13.67 156.111 13.67H153.981C151.971 13.67 150.201 13.79 148.701 14.06C147.171 14.3 145.971 14.63 145.071 15.02C144.171 15.41 143.451 15.89 142.911 16.46C142.341 17.06 141.981 17.63 141.801 18.2C141.621 18.77 141.531 19.4 141.531 20.06V20.33C141.531 24.23 145.251 26.3 152.691 26.48L154.371 26.51L156.621 26.57C158.331 26.6 159.621 26.72 160.521 26.9C161.421 27.11 162.021 27.35 162.261 27.59C162.501 27.86 162.621 28.22 162.621 28.67C162.621 29 162.561 29.27 162.411 29.51C162.261 29.75 161.991 29.96 161.541 30.2C161.121 30.44 160.431 30.59 159.501 30.71C158.541 30.83 157.941 30.92 156.501 30.92H154.851C150.471 30.92 148.851 29.81 148.701 27.59H141.231V27.89C141.231 28.55 141.291 29.18 141.441 29.75C141.591 30.32 141.951 30.98 142.491 31.7C143.031 32.42 143.781 33.05 144.681 33.56C145.611 34.07 146.931 34.49 148.641 34.85C150.321 35.21 152.331 35.39 154.611 35.39ZM172.948 13.97V35H197.428V30.11H180.028V26.66H196.708V21.86H180.028V18.74H197.098V13.97H172.948ZM228.925 35H236.665L224.395 13.97H210.325L198.745 35H206.035L208.105 31.16H226.795L228.925 35ZM219.865 18.8L224.125 26.39H210.655L214.765 18.8H219.865Z" fill="black"/>
<path d="M242 23.5C241.172 23.5 240.5 24.1716 240.5 25C240.5 25.8284 241.172 26.5 242 26.5L242 23.5ZM281.061 26.0607C281.646 25.4749 281.646 24.5251 281.061 23.9393L271.515 14.3934C270.929 13.8076 269.979 13.8076 269.393 14.3934C268.808 14.9792 268.808 15.9289 269.393 16.5147L277.879 25L269.393 33.4853C268.808 34.0711 268.808 35.0208 269.393 35.6066C269.979 36.1924 270.929 36.1924 271.515 35.6066L281.061 26.0607ZM242 26.5L280 26.5L280 23.5L242 23.5L242 26.5Z" fill="black"/>
</svg>
