<svg width="38" height="38" viewBox="0 0 38 38" fill="none" xmlns="http://www.w3.org/2000/svg">
<circle cx="19" cy="19" r="18.5" transform="rotate(-90 19 19)" fill="#ECECEC" stroke="black"/>
<path d="M8.8667 17.5C8.03827 17.5 7.3667 18.1716 7.3667 19C7.3667 19.8284 8.03827 20.5 8.8667 20.5L8.8667 17.5ZM29.5607 20.0607C30.1465 19.4749 30.1465 18.5251 29.5607 17.9393L20.0147 8.3934C19.429 7.80761 18.4792 7.80761 17.8934 8.3934C17.3076 8.97919 17.3076 9.92893 17.8934 10.5147L26.3787 19L17.8934 27.4853C17.3076 28.0711 17.3076 29.0208 17.8934 29.6066C18.4792 30.1924 19.429 30.1924 20.0147 29.6066L29.5607 20.0607ZM8.8667 20.5L28.5 20.5L28.5 17.5L8.8667 17.5L8.8667 20.5Z" fill="black"/>
</svg>
