<svg width="388" height="359" viewBox="0 0 388 359" fill="none" xmlns="http://www.w3.org/2000/svg">
<path d="M64.476 26.432H65.988C68.976 26.432 71.64 26.18 73.944 25.676C76.248 25.136 78.048 24.488 79.308 23.768C80.604 23.012 81.648 22.148 82.476 21.176C83.268 20.168 83.808 19.304 84.096 18.512C84.348 17.72 84.456 16.928 84.456 16.172V15.812H75.312C75.312 15.848 75.312 15.884 75.276 15.92C74.268 18.836 70.956 20.312 65.304 20.312C63.396 20.312 61.74 20.096 60.336 19.664C58.932 19.232 57.888 18.656 57.168 17.936C56.448 17.216 55.908 16.496 55.584 15.74C55.26 14.984 55.08 14.192 55.08 13.364V12.968C55.08 12.104 55.224 11.312 55.548 10.592C55.836 9.872 56.34 9.188 57.024 8.504C57.744 7.856 58.788 7.352 60.192 6.992C61.56 6.596 63.252 6.416 65.232 6.416C66.888 6.416 68.328 6.56 69.624 6.812C70.884 7.064 71.856 7.352 72.504 7.676C73.152 8 73.692 8.396 74.16 8.864C74.628 9.332 74.916 9.692 75.024 9.908C75.132 10.124 75.204 10.34 75.276 10.628H84.42V10.232C84.42 9.548 84.312 8.828 84.096 8.072C83.844 7.316 83.34 6.452 82.512 5.48C81.72 4.508 80.676 3.68 79.416 2.924C78.156 2.204 76.356 1.592 74.052 1.052C71.712 0.547999 69.048 0.295998 65.988 0.295998H64.476C61.38 0.295998 58.644 0.583999 56.34 1.196C54 1.772 52.2 2.492 50.94 3.356C49.68 4.22 48.672 5.264 47.88 6.452C47.124 7.64 46.62 8.72 46.404 9.692C46.188 10.664 46.08 11.708 46.08 12.788V13.796C46.08 14.48 46.116 15.164 46.224 15.884C46.332 16.568 46.584 17.36 46.944 18.224C47.304 19.088 47.736 19.88 48.276 20.636C48.816 21.392 49.572 22.112 50.544 22.868C51.516 23.588 52.596 24.2 53.856 24.74C55.08 25.244 56.628 25.64 58.464 25.964C60.3 26.288 62.28 26.432 64.476 26.432ZM103.462 26.108C112.894 26.108 117.61 22.976 117.61 16.712V16.1C117.61 9.98 112.894 6.92 103.462 6.92H100.834C98.6383 6.92 96.6583 7.1 94.9663 7.496C93.2743 7.856 91.9063 8.324 90.8623 8.936C89.8183 9.548 88.9903 10.232 88.3423 11.096C87.6943 11.924 87.2623 12.716 87.0103 13.544C86.7583 14.372 86.6503 15.2 86.6503 16.1V16.712C86.6503 17.612 86.7583 18.476 87.0103 19.304C87.2623 20.132 87.6943 20.96 88.3783 21.824C89.0263 22.652 89.8543 23.408 90.8983 24.02C91.9423 24.632 93.3103 25.1 95.0023 25.496C96.6943 25.892 98.6743 26.108 100.87 26.108H103.462ZM102.166 21.212C99.6103 21.212 97.7743 20.744 96.6943 19.808C95.5783 18.908 95.0383 17.792 95.0383 16.532V16.352C95.0383 15.02 95.5783 13.904 96.6583 13.04C97.7383 12.176 99.5743 11.744 102.166 11.744H102.202C104.722 11.744 106.558 12.176 107.638 13.076C108.754 13.94 109.294 15.056 109.294 16.352V16.532C109.294 17.792 108.754 18.908 107.638 19.808C106.558 20.744 104.722 21.212 102.166 21.212ZM120.629 7.676V25.82H128.801V17.252C128.801 15.776 129.377 14.588 130.457 13.688C131.573 12.788 133.049 12.32 134.885 12.32C136.649 12.32 137.981 12.716 138.881 13.508C139.745 14.3 140.177 15.416 140.177 16.856V25.82H148.457V14.372C148.457 12.392 147.665 10.736 146.045 9.332C144.461 7.964 142.049 7.28 138.845 7.28H138.557C134.561 7.28 131.285 8.432 128.729 10.772V7.676H120.629ZM164.872 26.432H166.384C169.012 26.432 171.208 26.288 173.008 25.964C174.808 25.64 176.14 25.172 177.04 24.56C177.94 23.948 178.552 23.3 178.912 22.616C179.272 21.932 179.452 21.104 179.452 20.204V19.988C179.452 18.692 179.164 17.648 178.624 16.892C178.084 16.136 176.968 15.524 175.312 15.056C173.692 14.588 171.388 14.336 168.4 14.3L164.872 14.228C163.288 14.192 162.208 14.048 161.596 13.796C161.02 13.58 160.732 13.22 160.732 12.752V12.716C160.732 12.212 161.056 11.852 161.668 11.672C162.316 11.456 163.576 11.348 165.448 11.348H165.484C166.492 11.348 167.356 11.42 168.076 11.528C168.76 11.672 169.264 11.816 169.552 12.032C169.84 12.248 170.056 12.464 170.128 12.608C170.236 12.788 170.308 12.968 170.344 13.22H178.732V12.968C178.732 9.152 174.592 7.28 166.312 7.28H164.836C162.748 7.28 160.912 7.388 159.364 7.604C157.816 7.82 156.592 8.108 155.728 8.432C154.828 8.792 154.144 9.224 153.604 9.728C153.064 10.232 152.74 10.772 152.56 11.24C152.416 11.744 152.344 12.32 152.344 12.932V13.148C152.344 13.868 152.488 14.516 152.812 15.128C153.136 15.74 153.676 16.316 154.396 16.892C155.152 17.468 156.268 17.9 157.708 18.224C159.184 18.584 160.948 18.764 163 18.8L166.528 18.872C168.328 18.908 169.48 19.052 170.056 19.304C170.596 19.556 170.884 19.952 170.884 20.456V20.528C170.884 20.888 170.776 21.14 170.596 21.392C170.38 21.608 169.876 21.788 169.084 21.968C168.292 22.148 167.176 22.256 165.772 22.256H165.7C162.316 22.256 160.624 21.428 160.624 19.808H152.164V19.988C152.164 24.308 156.376 26.432 164.872 26.432ZM191.885 25.82H198.977V20.852H196.745C196.061 20.852 195.629 20.708 195.413 20.456C195.197 20.204 195.089 19.808 195.089 19.268V12.68H198.977V7.676H195.089V2.384H186.989V7.676H183.137V12.68H186.989V20.672C186.989 24.128 188.609 25.82 191.885 25.82ZM217.912 6.848C216.472 6.848 215.212 7.1 214.024 7.604C212.872 8.108 212.044 8.612 211.54 9.08C211.072 9.548 210.676 10.052 210.352 10.52V7.244H202.684V25.82H210.388V16.244C210.388 14.948 210.748 13.904 211.468 13.04C212.188 12.176 213.52 11.852 214.456 11.744C215.392 11.636 226.444 11.744 226.444 11.744V6.848H217.912ZM257.573 25.748V7.568H249.365V16.136C249.365 17.612 248.825 18.836 247.781 19.736C246.701 20.636 245.261 21.068 243.497 21.068C241.805 21.068 240.509 20.672 239.681 19.844C238.817 19.052 238.421 17.936 238.421 16.532V7.568H230.141V18.872C230.141 20.816 230.897 22.508 232.481 23.948C234.065 25.424 236.405 26.144 239.537 26.144H239.825C240.905 26.144 241.949 26.036 242.957 25.82C243.965 25.604 244.793 25.388 245.369 25.172C245.981 24.956 246.629 24.632 247.313 24.164C248.033 23.732 248.465 23.444 248.609 23.3C248.753 23.192 249.041 22.94 249.437 22.58V25.748H257.573ZM275.077 26.144H277.093C279.505 26.144 281.593 25.928 283.393 25.496C285.193 25.1 286.561 24.596 287.497 24.02C288.433 23.444 289.189 22.76 289.765 21.968C290.305 21.176 290.665 20.456 290.809 19.88C290.953 19.268 291.025 18.656 291.025 18.044V17.972H282.601C282.025 20.204 279.829 21.32 276.049 21.32H275.941C273.781 21.32 272.161 20.852 271.153 19.916C270.181 18.98 269.677 17.828 269.677 16.46V16.208C269.677 14.912 270.145 13.832 271.153 13.004C272.161 12.14 273.745 11.708 275.941 11.708H276.049C279.865 11.708 282.061 12.824 282.601 14.984H291.025V14.912C291.025 14.3 290.953 13.724 290.809 13.112C290.629 12.536 290.269 11.852 289.693 11.06C289.081 10.304 288.325 9.62 287.389 9.044C286.453 8.468 285.085 7.964 283.321 7.568C281.557 7.172 279.469 6.956 277.129 6.956H275.041C272.881 6.956 270.973 7.172 269.281 7.532C267.625 7.928 266.293 8.396 265.285 9.008C264.313 9.62 263.485 10.304 262.873 11.132C262.261 11.996 261.829 12.788 261.613 13.58C261.397 14.408 261.289 15.236 261.289 16.1V16.784C261.289 17.648 261.397 18.512 261.613 19.304C261.829 20.132 262.261 20.96 262.873 21.824C263.521 22.688 264.349 23.408 265.321 24.02C266.293 24.632 267.625 25.136 269.317 25.532C271.009 25.928 272.917 26.144 275.077 26.144ZM303.471 25.82H310.563V20.852H308.331C307.647 20.852 307.215 20.708 306.999 20.456C306.783 20.204 306.675 19.808 306.675 19.268V12.68H310.563V7.676H306.675V2.384H298.575V7.676H294.723V12.68H298.575V20.672C298.575 24.128 300.195 25.82 303.471 25.82ZM322.442 0.799998H314.27V5.984H322.442V0.799998ZM322.442 7.748H314.27V25.928H322.442V7.748ZM342.208 26.108C351.64 26.108 356.356 22.976 356.356 16.712V16.1C356.356 9.98 351.64 6.92 342.208 6.92H339.58C337.384 6.92 335.404 7.1 333.712 7.496C332.02 7.856 330.652 8.324 329.608 8.936C328.564 9.548 327.736 10.232 327.088 11.096C326.44 11.924 326.008 12.716 325.756 13.544C325.504 14.372 325.396 15.2 325.396 16.1V16.712C325.396 17.612 325.504 18.476 325.756 19.304C326.008 20.132 326.44 20.96 327.124 21.824C327.772 22.652 328.6 23.408 329.644 24.02C330.688 24.632 332.056 25.1 333.748 25.496C335.44 25.892 337.42 26.108 339.616 26.108H342.208ZM340.912 21.212C338.356 21.212 336.52 20.744 335.44 19.808C334.324 18.908 333.784 17.792 333.784 16.532V16.352C333.784 15.02 334.324 13.904 335.404 13.04C336.484 12.176 338.32 11.744 340.912 11.744H340.948C343.468 11.744 345.304 12.176 346.384 13.076C347.5 13.94 348.04 15.056 348.04 16.352V16.532C348.04 17.792 347.5 18.908 346.384 19.808C345.304 20.744 343.468 21.212 340.912 21.212ZM359.375 7.676V25.82H367.547V17.252C367.547 15.776 368.123 14.588 369.203 13.688C370.319 12.788 371.795 12.32 373.631 12.32C375.395 12.32 376.727 12.716 377.627 13.508C378.491 14.3 378.923 15.416 378.923 16.856V25.82H387.203V14.372C387.203 12.392 386.411 10.736 384.791 9.332C383.207 7.964 380.795 7.28 377.591 7.28H377.303C373.307 7.28 370.031 8.432 367.475 10.772V7.676H359.375Z" fill="black"/>
<path d="M33.5 15H1V350H33.5" stroke="black"/>
<line x1="1" y1="122.5" x2="33" y2="122.5" stroke="black"/>
<line x1="1" y1="231.5" x2="33" y2="231.5" stroke="black"/>
<path d="M61.8409 122.273C61.8409 124.114 61.5085 125.705 60.8438 127.045C60.179 128.386 59.267 129.42 58.108 130.148C56.9489 130.875 55.625 131.239 54.1364 131.239C52.6477 131.239 51.3239 130.875 50.1648 130.148C49.0057 129.42 48.0938 128.386 47.429 127.045C46.7642 125.705 46.4318 124.114 46.4318 122.273C46.4318 120.432 46.7642 118.841 47.429 117.5C48.0938 116.159 49.0057 115.125 50.1648 114.398C51.3239 113.67 52.6477 113.307 54.1364 113.307C55.625 113.307 56.9489 113.67 58.108 114.398C59.267 115.125 60.179 116.159 60.8438 117.5C61.5085 118.841 61.8409 120.432 61.8409 122.273ZM59.7955 122.273C59.7955 120.761 59.5426 119.486 59.0369 118.446C58.5369 117.406 57.858 116.619 57 116.085C56.1477 115.551 55.1932 115.284 54.1364 115.284C53.0795 115.284 52.1222 115.551 51.2642 116.085C50.4119 116.619 49.733 117.406 49.2273 118.446C48.7273 119.486 48.4773 120.761 48.4773 122.273C48.4773 123.784 48.7273 125.06 49.2273 126.099C49.733 127.139 50.4119 127.926 51.2642 128.46C52.1222 128.994 53.0795 129.261 54.1364 129.261C55.1932 129.261 56.1477 128.994 57 128.46C57.858 127.926 58.5369 127.139 59.0369 126.099C59.5426 125.06 59.7955 123.784 59.7955 122.273ZM65.1222 135.909V117.909H67.0653V119.989H67.304C67.4517 119.761 67.6563 119.472 67.9176 119.119C68.1847 118.761 68.5653 118.443 69.0597 118.165C69.5597 117.881 70.2358 117.739 71.0881 117.739C72.1903 117.739 73.1619 118.014 74.0028 118.565C74.8438 119.116 75.5 119.898 75.9716 120.909C76.4432 121.92 76.679 123.114 76.679 124.489C76.679 125.875 76.4432 127.077 75.9716 128.094C75.5 129.105 74.8466 129.889 74.0114 130.446C73.1761 130.997 72.2131 131.273 71.1222 131.273C70.2813 131.273 69.608 131.134 69.1023 130.855C68.5966 130.571 68.2074 130.25 67.9347 129.892C67.6619 129.528 67.4517 129.227 67.304 128.989H67.1335V135.909H65.1222ZM67.0994 124.455C67.0994 125.443 67.2443 126.315 67.5341 127.071C67.8239 127.821 68.2472 128.409 68.804 128.835C69.3608 129.256 70.0426 129.466 70.8494 129.466C71.6903 129.466 72.392 129.244 72.9545 128.801C73.5227 128.352 73.9489 127.75 74.233 126.994C74.5227 126.233 74.6676 125.386 74.6676 124.455C74.6676 123.534 74.5256 122.705 74.2415 121.966C73.9631 121.222 73.5398 120.634 72.9716 120.202C72.4091 119.764 71.7017 119.545 70.8494 119.545C70.0313 119.545 69.3438 119.753 68.7869 120.168C68.2301 120.577 67.8097 121.151 67.5256 121.889C67.2415 122.622 67.0994 123.477 67.0994 124.455ZM85.2358 131.273C83.9744 131.273 82.8864 130.994 81.9716 130.438C81.0625 129.875 80.3608 129.091 79.8665 128.085C79.3778 127.074 79.1335 125.898 79.1335 124.557C79.1335 123.216 79.3778 122.034 79.8665 121.011C80.3608 119.983 81.0483 119.182 81.929 118.608C82.8153 118.028 83.8494 117.739 85.0312 117.739C85.7131 117.739 86.3864 117.852 87.0511 118.08C87.7159 118.307 88.321 118.676 88.8665 119.188C89.4119 119.693 89.8466 120.364 90.1705 121.199C90.4943 122.034 90.6562 123.062 90.6562 124.284V125.136H80.5653V123.398H88.6108C88.6108 122.659 88.4631 122 88.1676 121.42C87.8778 120.841 87.4631 120.384 86.9233 120.048C86.3892 119.713 85.7585 119.545 85.0312 119.545C84.2301 119.545 83.5369 119.744 82.9517 120.142C82.3722 120.534 81.9261 121.045 81.6136 121.676C81.3011 122.307 81.1449 122.983 81.1449 123.705V124.864C81.1449 125.852 81.3153 126.69 81.6562 127.378C82.0028 128.06 82.483 128.58 83.0966 128.938C83.7102 129.29 84.4233 129.466 85.2358 129.466C85.7642 129.466 86.2415 129.392 86.6676 129.244C87.0994 129.091 87.4716 128.864 87.7841 128.562C88.0966 128.256 88.3381 127.875 88.5085 127.42L90.4517 127.966C90.2472 128.625 89.9034 129.205 89.4205 129.705C88.9375 130.199 88.3409 130.585 87.6307 130.864C86.9205 131.136 86.1222 131.273 85.2358 131.273ZM95.7273 123.125V131H93.7159V117.909H95.6591V119.955H95.8295C96.1364 119.29 96.6023 118.756 97.2273 118.352C97.8523 117.943 98.6591 117.739 99.6477 117.739C100.534 117.739 101.31 117.92 101.974 118.284C102.639 118.642 103.156 119.188 103.526 119.92C103.895 120.648 104.08 121.568 104.08 122.682V131H102.068V122.818C102.068 121.79 101.801 120.989 101.267 120.415C100.733 119.835 100 119.545 99.0682 119.545C98.4261 119.545 97.8523 119.685 97.3466 119.963C96.8466 120.241 96.4517 120.648 96.1619 121.182C95.8722 121.716 95.7273 122.364 95.7273 123.125ZM117.028 120.841L115.221 121.352C115.107 121.051 114.94 120.759 114.718 120.474C114.502 120.185 114.207 119.946 113.832 119.759C113.457 119.571 112.977 119.477 112.391 119.477C111.59 119.477 110.923 119.662 110.388 120.031C109.86 120.395 109.596 120.858 109.596 121.42C109.596 121.92 109.778 122.315 110.141 122.605C110.505 122.895 111.073 123.136 111.846 123.33L113.789 123.807C114.96 124.091 115.832 124.526 116.406 125.111C116.979 125.69 117.266 126.437 117.266 127.352C117.266 128.102 117.05 128.773 116.619 129.364C116.192 129.955 115.596 130.42 114.829 130.761C114.062 131.102 113.17 131.273 112.153 131.273C110.817 131.273 109.712 130.983 108.837 130.403C107.962 129.824 107.408 128.977 107.175 127.864L109.085 127.386C109.266 128.091 109.61 128.619 110.116 128.972C110.627 129.324 111.295 129.5 112.119 129.5C113.056 129.5 113.8 129.301 114.352 128.903C114.908 128.5 115.187 128.017 115.187 127.455C115.187 127 115.028 126.619 114.71 126.312C114.391 126 113.903 125.767 113.244 125.614L111.062 125.102C109.863 124.818 108.982 124.378 108.42 123.781C107.863 123.179 107.585 122.426 107.585 121.523C107.585 120.784 107.792 120.131 108.207 119.562C108.627 118.994 109.198 118.548 109.92 118.224C110.647 117.901 111.471 117.739 112.391 117.739C113.687 117.739 114.704 118.023 115.442 118.591C116.187 119.159 116.715 119.909 117.028 120.841ZM125.783 131.273C124.521 131.273 123.433 130.994 122.518 130.438C121.609 129.875 120.908 129.091 120.413 128.085C119.925 127.074 119.68 125.898 119.68 124.557C119.68 123.216 119.925 122.034 120.413 121.011C120.908 119.983 121.595 119.182 122.476 118.608C123.362 118.028 124.396 117.739 125.578 117.739C126.26 117.739 126.933 117.852 127.598 118.08C128.263 118.307 128.868 118.676 129.413 119.188C129.959 119.693 130.393 120.364 130.717 121.199C131.041 122.034 131.203 123.062 131.203 124.284V125.136H121.112V123.398H129.158C129.158 122.659 129.01 122 128.714 121.42C128.425 120.841 128.01 120.384 127.47 120.048C126.936 119.713 126.305 119.545 125.578 119.545C124.777 119.545 124.084 119.744 123.499 120.142C122.919 120.534 122.473 121.045 122.161 121.676C121.848 122.307 121.692 122.983 121.692 123.705V124.864C121.692 125.852 121.862 126.69 122.203 127.378C122.55 128.06 123.03 128.58 123.643 128.938C124.257 129.29 124.97 129.466 125.783 129.466C126.311 129.466 126.788 129.392 127.214 129.244C127.646 129.091 128.018 128.864 128.331 128.562C128.643 128.256 128.885 127.875 129.055 127.42L130.999 127.966C130.794 128.625 130.45 129.205 129.967 129.705C129.484 130.199 128.888 130.585 128.178 130.864C127.467 131.136 126.669 131.273 125.783 131.273ZM138.115 131.307C137.286 131.307 136.533 131.151 135.857 130.838C135.18 130.52 134.643 130.062 134.246 129.466C133.848 128.864 133.649 128.136 133.649 127.284C133.649 126.534 133.797 125.926 134.092 125.46C134.388 124.989 134.783 124.619 135.277 124.352C135.771 124.085 136.317 123.886 136.913 123.756C137.516 123.619 138.121 123.511 138.729 123.432C139.524 123.33 140.169 123.253 140.663 123.202C141.163 123.145 141.527 123.051 141.754 122.92C141.987 122.79 142.104 122.562 142.104 122.239V122.17C142.104 121.33 141.874 120.676 141.413 120.21C140.959 119.744 140.268 119.511 139.342 119.511C138.382 119.511 137.629 119.722 137.084 120.142C136.538 120.562 136.155 121.011 135.933 121.489L134.024 120.807C134.365 120.011 134.82 119.392 135.388 118.949C135.962 118.5 136.587 118.187 137.263 118.011C137.945 117.83 138.615 117.739 139.274 117.739C139.695 117.739 140.178 117.79 140.723 117.892C141.274 117.989 141.805 118.19 142.317 118.497C142.834 118.804 143.263 119.267 143.604 119.886C143.945 120.506 144.115 121.335 144.115 122.375V131H142.104V129.227H142.001C141.865 129.511 141.638 129.815 141.32 130.139C141.001 130.463 140.578 130.739 140.05 130.966C139.521 131.193 138.876 131.307 138.115 131.307ZM138.422 129.5C139.217 129.5 139.888 129.344 140.433 129.031C140.984 128.719 141.399 128.315 141.678 127.821C141.962 127.327 142.104 126.807 142.104 126.261V124.42C142.018 124.523 141.831 124.616 141.541 124.702C141.257 124.781 140.928 124.852 140.553 124.915C140.183 124.972 139.822 125.023 139.47 125.068C139.124 125.108 138.842 125.142 138.626 125.17C138.104 125.239 137.615 125.349 137.161 125.503C136.712 125.651 136.348 125.875 136.07 126.176C135.797 126.472 135.661 126.875 135.661 127.386C135.661 128.085 135.919 128.614 136.436 128.972C136.959 129.324 137.621 129.5 138.422 129.5ZM155.525 113.545L160.707 128.239H160.911L166.093 113.545H168.309L161.9 131H159.718L153.309 113.545H155.525ZM175.025 131.273C173.763 131.273 172.675 130.994 171.761 130.438C170.852 129.875 170.15 129.091 169.656 128.085C169.167 127.074 168.923 125.898 168.923 124.557C168.923 123.216 169.167 122.034 169.656 121.011C170.15 119.983 170.837 119.182 171.718 118.608C172.604 118.028 173.638 117.739 174.82 117.739C175.502 117.739 176.175 117.852 176.84 118.08C177.505 118.307 178.11 118.676 178.656 119.188C179.201 119.693 179.636 120.364 179.96 121.199C180.283 122.034 180.445 123.062 180.445 124.284V125.136H170.354V123.398H178.4C178.4 122.659 178.252 122 177.957 121.42C177.667 120.841 177.252 120.384 176.712 120.048C176.178 119.713 175.548 119.545 174.82 119.545C174.019 119.545 173.326 119.744 172.741 120.142C172.161 120.534 171.715 121.045 171.403 121.676C171.09 122.307 170.934 122.983 170.934 123.705V124.864C170.934 125.852 171.104 126.69 171.445 127.378C171.792 128.06 172.272 128.58 172.886 128.938C173.499 129.29 174.212 129.466 175.025 129.466C175.553 129.466 176.031 129.392 176.457 129.244C176.888 129.091 177.261 128.864 177.573 128.562C177.886 128.256 178.127 127.875 178.298 127.42L180.241 127.966C180.036 128.625 179.692 129.205 179.21 129.705C178.727 130.199 178.13 130.585 177.42 130.864C176.71 131.136 175.911 131.273 175.025 131.273ZM183.505 131V117.909H185.448V119.886H185.585C185.823 119.239 186.255 118.713 186.88 118.31C187.505 117.906 188.21 117.705 188.994 117.705C189.141 117.705 189.326 117.707 189.548 117.713C189.769 117.719 189.937 117.727 190.05 117.739V119.784C189.982 119.767 189.826 119.741 189.582 119.707C189.343 119.668 189.09 119.648 188.823 119.648C188.187 119.648 187.619 119.781 187.119 120.048C186.624 120.31 186.232 120.673 185.942 121.139C185.658 121.599 185.516 122.125 185.516 122.716V131H183.505ZM192.435 131V117.909H194.446V131H192.435ZM193.457 115.727C193.065 115.727 192.727 115.594 192.443 115.327C192.165 115.06 192.026 114.739 192.026 114.364C192.026 113.989 192.165 113.668 192.443 113.401C192.727 113.134 193.065 113 193.457 113C193.849 113 194.185 113.134 194.463 113.401C194.747 113.668 194.889 113.989 194.889 114.364C194.889 114.739 194.747 115.06 194.463 115.327C194.185 115.594 193.849 115.727 193.457 115.727ZM203.96 117.909V119.614H196.903V117.909H203.96ZM199.016 131V116.102C199.016 115.352 199.192 114.727 199.545 114.227C199.897 113.727 200.354 113.352 200.917 113.102C201.479 112.852 202.073 112.727 202.698 112.727C203.192 112.727 203.596 112.767 203.908 112.847C204.221 112.926 204.454 113 204.607 113.068L204.028 114.807C203.925 114.773 203.783 114.73 203.602 114.679C203.425 114.628 203.192 114.602 202.903 114.602C202.238 114.602 201.758 114.77 201.462 115.105C201.173 115.44 201.028 115.932 201.028 116.58V131H199.016ZM206.778 131V117.909H208.79V131H206.778ZM207.801 115.727C207.409 115.727 207.071 115.594 206.787 115.327C206.509 115.06 206.369 114.739 206.369 114.364C206.369 113.989 206.509 113.668 206.787 113.401C207.071 113.134 207.409 113 207.801 113C208.193 113 208.528 113.134 208.807 113.401C209.091 113.668 209.233 113.989 209.233 114.364C209.233 114.739 209.091 115.06 208.807 115.327C208.528 115.594 208.193 115.727 207.801 115.727ZM217.792 131.273C216.565 131.273 215.508 130.983 214.621 130.403C213.735 129.824 213.053 129.026 212.576 128.009C212.099 126.991 211.86 125.83 211.86 124.523C211.86 123.193 212.104 122.02 212.593 121.003C213.087 119.98 213.775 119.182 214.656 118.608C215.542 118.028 216.576 117.739 217.758 117.739C218.678 117.739 219.508 117.909 220.246 118.25C220.985 118.591 221.59 119.068 222.062 119.682C222.533 120.295 222.826 121.011 222.94 121.83H220.928C220.775 121.233 220.434 120.705 219.906 120.244C219.383 119.778 218.678 119.545 217.792 119.545C217.008 119.545 216.32 119.75 215.729 120.159C215.144 120.562 214.687 121.134 214.357 121.872C214.033 122.605 213.871 123.466 213.871 124.455C213.871 125.466 214.031 126.347 214.349 127.097C214.673 127.847 215.127 128.429 215.712 128.844C216.303 129.259 216.996 129.466 217.792 129.466C218.315 129.466 218.789 129.375 219.215 129.193C219.641 129.011 220.002 128.75 220.298 128.409C220.593 128.068 220.803 127.659 220.928 127.182H222.94C222.826 127.955 222.545 128.651 222.096 129.27C221.653 129.884 221.065 130.372 220.332 130.736C219.604 131.094 218.758 131.273 217.792 131.273ZM229.732 131.307C228.903 131.307 228.15 131.151 227.474 130.838C226.798 130.52 226.261 130.062 225.863 129.466C225.465 128.864 225.266 128.136 225.266 127.284C225.266 126.534 225.414 125.926 225.71 125.46C226.005 124.989 226.4 124.619 226.894 124.352C227.388 124.085 227.934 123.886 228.531 123.756C229.133 123.619 229.738 123.511 230.346 123.432C231.141 123.33 231.786 123.253 232.281 123.202C232.781 123.145 233.144 123.051 233.371 122.92C233.604 122.79 233.721 122.562 233.721 122.239V122.17C233.721 121.33 233.491 120.676 233.031 120.21C232.576 119.744 231.886 119.511 230.96 119.511C229.999 119.511 229.246 119.722 228.701 120.142C228.156 120.562 227.772 121.011 227.55 121.489L225.641 120.807C225.982 120.011 226.437 119.392 227.005 118.949C227.579 118.5 228.204 118.187 228.88 118.011C229.562 117.83 230.232 117.739 230.891 117.739C231.312 117.739 231.795 117.79 232.34 117.892C232.891 117.989 233.423 118.19 233.934 118.497C234.451 118.804 234.88 119.267 235.221 119.886C235.562 120.506 235.732 121.335 235.732 122.375V131H233.721V129.227H233.619C233.482 129.511 233.255 129.815 232.937 130.139C232.619 130.463 232.195 130.739 231.667 130.966C231.138 131.193 230.494 131.307 229.732 131.307ZM230.039 129.5C230.835 129.5 231.505 129.344 232.05 129.031C232.602 128.719 233.016 128.315 233.295 127.821C233.579 127.327 233.721 126.807 233.721 126.261V124.42C233.636 124.523 233.448 124.616 233.158 124.702C232.874 124.781 232.545 124.852 232.17 124.915C231.8 124.972 231.44 125.023 231.087 125.068C230.741 125.108 230.46 125.142 230.244 125.17C229.721 125.239 229.232 125.349 228.778 125.503C228.329 125.651 227.965 125.875 227.687 126.176C227.414 126.472 227.278 126.875 227.278 127.386C227.278 128.085 227.536 128.614 228.053 128.972C228.576 129.324 229.238 129.5 230.039 129.5ZM245.097 117.909V119.614H238.312V117.909H245.097ZM240.29 114.773H242.301V127.25C242.301 127.818 242.384 128.244 242.548 128.528C242.719 128.807 242.935 128.994 243.196 129.091C243.463 129.182 243.744 129.227 244.04 129.227C244.261 129.227 244.443 129.216 244.585 129.193C244.727 129.165 244.841 129.142 244.926 129.125L245.335 130.932C245.199 130.983 245.009 131.034 244.764 131.085C244.52 131.142 244.21 131.17 243.835 131.17C243.267 131.17 242.71 131.048 242.165 130.804C241.625 130.56 241.176 130.188 240.818 129.688C240.466 129.188 240.29 128.557 240.29 127.795V114.773ZM248.122 131V117.909H250.134V131H248.122ZM249.145 115.727C248.753 115.727 248.415 115.594 248.131 115.327C247.852 115.06 247.713 114.739 247.713 114.364C247.713 113.989 247.852 113.668 248.131 113.401C248.415 113.134 248.753 113 249.145 113C249.537 113 249.872 113.134 250.151 113.401C250.435 113.668 250.577 113.989 250.577 114.364C250.577 114.739 250.435 115.06 250.151 115.327C249.872 115.594 249.537 115.727 249.145 115.727ZM259.136 131.273C257.954 131.273 256.917 130.991 256.025 130.429C255.138 129.866 254.445 129.08 253.945 128.068C253.451 127.057 253.204 125.875 253.204 124.523C253.204 123.159 253.451 121.969 253.945 120.952C254.445 119.935 255.138 119.145 256.025 118.582C256.917 118.02 257.954 117.739 259.136 117.739C260.317 117.739 261.352 118.02 262.238 118.582C263.13 119.145 263.823 119.935 264.317 120.952C264.817 121.969 265.067 123.159 265.067 124.523C265.067 125.875 264.817 127.057 264.317 128.068C263.823 129.08 263.13 129.866 262.238 130.429C261.352 130.991 260.317 131.273 259.136 131.273ZM259.136 129.466C260.033 129.466 260.772 129.236 261.352 128.776C261.931 128.315 262.36 127.71 262.638 126.96C262.917 126.21 263.056 125.398 263.056 124.523C263.056 123.648 262.917 122.832 262.638 122.077C262.36 121.321 261.931 120.71 261.352 120.244C260.772 119.778 260.033 119.545 259.136 119.545C258.238 119.545 257.499 119.778 256.92 120.244C256.34 120.71 255.911 121.321 255.633 122.077C255.354 122.832 255.215 123.648 255.215 124.523C255.215 125.398 255.354 126.21 255.633 126.96C255.911 127.71 256.34 128.315 256.92 128.776C257.499 129.236 258.238 129.466 259.136 129.466ZM270.149 123.125V131H268.138V117.909H270.081V119.955H270.251C270.558 119.29 271.024 118.756 271.649 118.352C272.274 117.943 273.081 117.739 274.07 117.739C274.956 117.739 275.732 117.92 276.396 118.284C277.061 118.642 277.578 119.188 277.947 119.92C278.317 120.648 278.501 121.568 278.501 122.682V131H276.49V122.818C276.49 121.79 276.223 120.989 275.689 120.415C275.155 119.835 274.422 119.545 273.49 119.545C272.848 119.545 272.274 119.685 271.768 119.963C271.268 120.241 270.874 120.648 270.584 121.182C270.294 121.716 270.149 122.364 270.149 123.125Z" fill="black"/>
<path d="M50.2841 240L45.5114 222.545H47.6591L51.3068 236.761H51.4773L55.1932 222.545H57.5795L61.2955 236.761H61.4659L65.1136 222.545H67.2614L62.4886 240H60.3068L56.4545 226.091H56.3182L52.4659 240H50.2841ZM73.892 240.273C72.6307 240.273 71.5426 239.994 70.6278 239.438C69.7188 238.875 69.017 238.091 68.5227 237.085C68.0341 236.074 67.7898 234.898 67.7898 233.557C67.7898 232.216 68.0341 231.034 68.5227 230.011C69.017 228.983 69.7045 228.182 70.5852 227.608C71.4716 227.028 72.5057 226.739 73.6875 226.739C74.3693 226.739 75.0426 226.852 75.7074 227.08C76.3722 227.307 76.9773 227.676 77.5227 228.188C78.0682 228.693 78.5028 229.364 78.8267 230.199C79.1506 231.034 79.3125 232.062 79.3125 233.284V234.136H69.2216V232.398H77.267C77.267 231.659 77.1193 231 76.8239 230.42C76.5341 229.841 76.1193 229.384 75.5795 229.048C75.0455 228.713 74.4148 228.545 73.6875 228.545C72.8864 228.545 72.1932 228.744 71.608 229.142C71.0284 229.534 70.5824 230.045 70.2699 230.676C69.9574 231.307 69.8011 231.983 69.8011 232.705V233.864C69.8011 234.852 69.9716 235.69 70.3125 236.378C70.6591 237.06 71.1392 237.58 71.7528 237.938C72.3665 238.29 73.0795 238.466 73.892 238.466C74.4205 238.466 74.8977 238.392 75.3239 238.244C75.7557 238.091 76.1278 237.864 76.4403 237.562C76.7528 237.256 76.9943 236.875 77.1648 236.42L79.108 236.966C78.9034 237.625 78.5597 238.205 78.0767 238.705C77.5938 239.199 76.9972 239.585 76.2869 239.864C75.5767 240.136 74.7784 240.273 73.892 240.273ZM82.6449 240V222.545H84.6562V228.989H84.8267C84.9744 228.761 85.179 228.472 85.4403 228.119C85.7074 227.761 86.0881 227.443 86.5824 227.165C87.0824 226.881 87.7585 226.739 88.6108 226.739C89.7131 226.739 90.6847 227.014 91.5256 227.565C92.3665 228.116 93.0227 228.898 93.4943 229.909C93.9659 230.92 94.2017 232.114 94.2017 233.489C94.2017 234.875 93.9659 236.077 93.4943 237.094C93.0227 238.105 92.3693 238.889 91.5341 239.446C90.6989 239.997 89.7358 240.273 88.6449 240.273C87.804 240.273 87.1307 240.134 86.625 239.855C86.1193 239.571 85.7301 239.25 85.4574 238.892C85.1847 238.528 84.9744 238.227 84.8267 237.989H84.5881V240H82.6449ZM84.6222 233.455C84.6222 234.443 84.767 235.315 85.0568 236.071C85.3466 236.821 85.7699 237.409 86.3267 237.835C86.8835 238.256 87.5653 238.466 88.3722 238.466C89.2131 238.466 89.9148 238.244 90.4773 237.801C91.0455 237.352 91.4716 236.75 91.7557 235.994C92.0455 235.233 92.1903 234.386 92.1903 233.455C92.1903 232.534 92.0483 231.705 91.7642 230.966C91.4858 230.222 91.0625 229.634 90.4943 229.202C89.9318 228.764 89.2244 228.545 88.3722 228.545C87.554 228.545 86.8665 228.753 86.3097 229.168C85.7528 229.577 85.3324 230.151 85.0483 230.889C84.7642 231.622 84.6222 232.477 84.6222 233.455ZM106.551 229.841L104.744 230.352C104.631 230.051 104.463 229.759 104.241 229.474C104.026 229.185 103.73 228.946 103.355 228.759C102.98 228.571 102.5 228.477 101.915 228.477C101.114 228.477 100.446 228.662 99.9119 229.031C99.3835 229.395 99.1193 229.858 99.1193 230.42C99.1193 230.92 99.3011 231.315 99.6648 231.605C100.028 231.895 100.597 232.136 101.369 232.33L103.312 232.807C104.483 233.091 105.355 233.526 105.929 234.111C106.503 234.69 106.79 235.437 106.79 236.352C106.79 237.102 106.574 237.773 106.142 238.364C105.716 238.955 105.119 239.42 104.352 239.761C103.585 240.102 102.693 240.273 101.676 240.273C100.341 240.273 99.2358 239.983 98.3608 239.403C97.4858 238.824 96.9318 237.977 96.6989 236.864L98.608 236.386C98.7898 237.091 99.1335 237.619 99.6392 237.972C100.151 238.324 100.818 238.5 101.642 238.5C102.58 238.5 103.324 238.301 103.875 237.903C104.432 237.5 104.71 237.017 104.71 236.455C104.71 236 104.551 235.619 104.233 235.312C103.915 235 103.426 234.767 102.767 234.614L100.585 234.102C99.3864 233.818 98.5057 233.378 97.9432 232.781C97.3864 232.179 97.108 231.426 97.108 230.523C97.108 229.784 97.3153 229.131 97.7301 228.562C98.1506 227.994 98.7216 227.548 99.4432 227.224C100.17 226.901 100.994 226.739 101.915 226.739C103.21 226.739 104.227 227.023 104.966 227.591C105.71 228.159 106.239 228.909 106.551 229.841ZM109.817 240V226.909H111.829V240H109.817ZM110.84 224.727C110.448 224.727 110.11 224.594 109.826 224.327C109.548 224.06 109.408 223.739 109.408 223.364C109.408 222.989 109.548 222.668 109.826 222.401C110.11 222.134 110.448 222 110.84 222C111.232 222 111.567 222.134 111.846 222.401C112.13 222.668 112.272 222.989 112.272 223.364C112.272 223.739 112.13 224.06 111.846 224.327C111.567 224.594 111.232 224.727 110.84 224.727ZM121.206 226.909V228.614H114.422V226.909H121.206ZM116.399 223.773H118.411V236.25C118.411 236.818 118.493 237.244 118.658 237.528C118.828 237.807 119.044 237.994 119.305 238.091C119.572 238.182 119.854 238.227 120.149 238.227C120.371 238.227 120.553 238.216 120.695 238.193C120.837 238.165 120.95 238.142 121.036 238.125L121.445 239.932C121.308 239.983 121.118 240.034 120.874 240.085C120.629 240.142 120.32 240.17 119.945 240.17C119.376 240.17 118.82 240.048 118.274 239.804C117.734 239.56 117.286 239.188 116.928 238.688C116.575 238.188 116.399 237.557 116.399 236.795V223.773ZM129.58 240.273C128.318 240.273 127.23 239.994 126.315 239.438C125.406 238.875 124.705 238.091 124.21 237.085C123.722 236.074 123.477 234.898 123.477 233.557C123.477 232.216 123.722 231.034 124.21 230.011C124.705 228.983 125.392 228.182 126.273 227.608C127.159 227.028 128.193 226.739 129.375 226.739C130.057 226.739 130.73 226.852 131.395 227.08C132.06 227.307 132.665 227.676 133.21 228.188C133.756 228.693 134.19 229.364 134.514 230.199C134.838 231.034 135 232.062 135 233.284V234.136H124.909V232.398H132.955C132.955 231.659 132.807 231 132.511 230.42C132.222 229.841 131.807 229.384 131.267 229.048C130.733 228.713 130.102 228.545 129.375 228.545C128.574 228.545 127.881 228.744 127.295 229.142C126.716 229.534 126.27 230.045 125.957 230.676C125.645 231.307 125.489 231.983 125.489 232.705V233.864C125.489 234.852 125.659 235.69 126 236.378C126.347 237.06 126.827 237.58 127.44 237.938C128.054 238.29 128.767 238.466 129.58 238.466C130.108 238.466 130.585 238.392 131.011 238.244C131.443 238.091 131.815 237.864 132.128 237.562C132.44 237.256 132.682 236.875 132.852 236.42L134.795 236.966C134.591 237.625 134.247 238.205 133.764 238.705C133.281 239.199 132.685 239.585 131.974 239.864C131.264 240.136 130.466 240.273 129.58 240.273ZM156.537 222.545H158.651V234.102C158.651 235.295 158.369 236.361 157.807 237.298C157.25 238.23 156.463 238.966 155.446 239.506C154.429 240.04 153.236 240.307 151.866 240.307C150.497 240.307 149.304 240.04 148.287 239.506C147.27 238.966 146.48 238.23 145.918 237.298C145.361 236.361 145.082 235.295 145.082 234.102V222.545H147.196V233.932C147.196 234.784 147.384 235.543 147.759 236.207C148.134 236.866 148.668 237.386 149.361 237.767C150.06 238.142 150.895 238.33 151.866 238.33C152.838 238.33 153.673 238.142 154.372 237.767C155.071 237.386 155.605 236.866 155.974 236.207C156.349 235.543 156.537 234.784 156.537 233.932V222.545ZM162.599 244.909V226.909H164.542V228.989H164.781C164.928 228.761 165.133 228.472 165.394 228.119C165.661 227.761 166.042 227.443 166.536 227.165C167.036 226.881 167.712 226.739 168.565 226.739C169.667 226.739 170.638 227.014 171.479 227.565C172.32 228.116 172.977 228.898 173.448 229.909C173.92 230.92 174.156 232.114 174.156 233.489C174.156 234.875 173.92 236.077 173.448 237.094C172.977 238.105 172.323 238.889 171.488 239.446C170.653 239.997 169.69 240.273 168.599 240.273C167.758 240.273 167.085 240.134 166.579 239.855C166.073 239.571 165.684 239.25 165.411 238.892C165.138 238.528 164.928 238.227 164.781 237.989H164.61V244.909H162.599ZM164.576 233.455C164.576 234.443 164.721 235.315 165.011 236.071C165.3 236.821 165.724 237.409 166.281 237.835C166.837 238.256 167.519 238.466 168.326 238.466C169.167 238.466 169.869 238.244 170.431 237.801C170.999 237.352 171.425 236.75 171.71 235.994C171.999 235.233 172.144 234.386 172.144 233.455C172.144 232.534 172.002 231.705 171.718 230.966C171.44 230.222 171.016 229.634 170.448 229.202C169.886 228.764 169.178 228.545 168.326 228.545C167.508 228.545 166.82 228.753 166.263 229.168C165.707 229.577 165.286 230.151 165.002 230.889C164.718 231.622 164.576 232.477 164.576 233.455ZM182.508 245.182C181.536 245.182 180.701 245.057 180.002 244.807C179.303 244.562 178.721 244.239 178.255 243.835C177.795 243.438 177.428 243.011 177.156 242.557L178.758 241.432C178.94 241.67 179.17 241.943 179.448 242.25C179.727 242.562 180.107 242.832 180.59 243.06C181.079 243.293 181.718 243.409 182.508 243.409C183.565 243.409 184.437 243.153 185.124 242.642C185.812 242.131 186.156 241.33 186.156 240.239V237.58H185.985C185.837 237.818 185.627 238.114 185.354 238.466C185.087 238.812 184.701 239.122 184.195 239.395C183.695 239.662 183.019 239.795 182.167 239.795C181.11 239.795 180.161 239.545 179.32 239.045C178.485 238.545 177.823 237.818 177.335 236.864C176.852 235.909 176.61 234.75 176.61 233.386C176.61 232.045 176.846 230.878 177.317 229.884C177.789 228.884 178.445 228.111 179.286 227.565C180.127 227.014 181.099 226.739 182.201 226.739C183.053 226.739 183.729 226.881 184.229 227.165C184.735 227.443 185.121 227.761 185.388 228.119C185.661 228.472 185.871 228.761 186.019 228.989H186.224V226.909H188.167V240.375C188.167 241.5 187.911 242.415 187.4 243.119C186.894 243.83 186.212 244.349 185.354 244.679C184.502 245.014 183.553 245.182 182.508 245.182ZM182.44 237.989C183.246 237.989 183.928 237.804 184.485 237.435C185.042 237.065 185.465 236.534 185.755 235.841C186.045 235.148 186.19 234.318 186.19 233.352C186.19 232.409 186.048 231.577 185.763 230.855C185.479 230.134 185.059 229.568 184.502 229.159C183.945 228.75 183.258 228.545 182.44 228.545C181.587 228.545 180.877 228.761 180.309 229.193C179.746 229.625 179.323 230.205 179.039 230.932C178.761 231.659 178.621 232.466 178.621 233.352C178.621 234.261 178.763 235.065 179.048 235.764C179.337 236.457 179.763 237.003 180.326 237.401C180.894 237.793 181.599 237.989 182.44 237.989ZM191.849 240V226.909H193.792V228.886H193.928C194.167 228.239 194.599 227.713 195.224 227.31C195.849 226.906 196.553 226.705 197.337 226.705C197.485 226.705 197.67 226.707 197.891 226.713C198.113 226.719 198.281 226.727 198.394 226.739V228.784C198.326 228.767 198.17 228.741 197.925 228.707C197.687 228.668 197.434 228.648 197.167 228.648C196.531 228.648 195.962 228.781 195.462 229.048C194.968 229.31 194.576 229.673 194.286 230.139C194.002 230.599 193.86 231.125 193.86 231.716V240H191.849ZM204.631 240.307C203.801 240.307 203.048 240.151 202.372 239.838C201.696 239.52 201.159 239.062 200.761 238.466C200.364 237.864 200.165 237.136 200.165 236.284C200.165 235.534 200.313 234.926 200.608 234.46C200.903 233.989 201.298 233.619 201.793 233.352C202.287 233.085 202.832 232.886 203.429 232.756C204.031 232.619 204.636 232.511 205.244 232.432C206.04 232.33 206.685 232.253 207.179 232.202C207.679 232.145 208.043 232.051 208.27 231.92C208.503 231.79 208.619 231.562 208.619 231.239V231.17C208.619 230.33 208.389 229.676 207.929 229.21C207.474 228.744 206.784 228.511 205.858 228.511C204.898 228.511 204.145 228.722 203.599 229.142C203.054 229.562 202.67 230.011 202.449 230.489L200.54 229.807C200.881 229.011 201.335 228.392 201.903 227.949C202.477 227.5 203.102 227.187 203.778 227.011C204.46 226.83 205.131 226.739 205.79 226.739C206.21 226.739 206.693 226.79 207.239 226.892C207.79 226.989 208.321 227.19 208.832 227.497C209.349 227.804 209.778 228.267 210.119 228.886C210.46 229.506 210.631 230.335 210.631 231.375V240H208.619V238.227H208.517C208.381 238.511 208.153 238.815 207.835 239.139C207.517 239.463 207.094 239.739 206.565 239.966C206.037 240.193 205.392 240.307 204.631 240.307ZM204.938 238.5C205.733 238.5 206.403 238.344 206.949 238.031C207.5 237.719 207.915 237.315 208.193 236.821C208.477 236.327 208.619 235.807 208.619 235.261V233.42C208.534 233.523 208.347 233.616 208.057 233.702C207.773 233.781 207.443 233.852 207.068 233.915C206.699 233.972 206.338 234.023 205.986 234.068C205.639 234.108 205.358 234.142 205.142 234.17C204.619 234.239 204.131 234.349 203.676 234.503C203.227 234.651 202.864 234.875 202.585 235.176C202.313 235.472 202.176 235.875 202.176 236.386C202.176 237.085 202.435 237.614 202.952 237.972C203.474 238.324 204.136 238.5 204.938 238.5ZM219.245 240.273C218.154 240.273 217.191 239.997 216.356 239.446C215.521 238.889 214.867 238.105 214.396 237.094C213.924 236.077 213.688 234.875 213.688 233.489C213.688 232.114 213.924 230.92 214.396 229.909C214.867 228.898 215.523 228.116 216.364 227.565C217.205 227.014 218.177 226.739 219.279 226.739C220.131 226.739 220.805 226.881 221.299 227.165C221.799 227.443 222.18 227.761 222.441 228.119C222.708 228.472 222.915 228.761 223.063 228.989H223.234V222.545H225.245V240H223.302V237.989H223.063C222.915 238.227 222.705 238.528 222.433 238.892C222.16 239.25 221.771 239.571 221.265 239.855C220.759 240.134 220.086 240.273 219.245 240.273ZM219.518 238.466C220.325 238.466 221.006 238.256 221.563 237.835C222.12 237.409 222.543 236.821 222.833 236.071C223.123 235.315 223.268 234.443 223.268 233.455C223.268 232.477 223.126 231.622 222.842 230.889C222.558 230.151 222.137 229.577 221.58 229.168C221.023 228.753 220.336 228.545 219.518 228.545C218.665 228.545 217.955 228.764 217.387 229.202C216.825 229.634 216.401 230.222 216.117 230.966C215.839 231.705 215.7 232.534 215.7 233.455C215.7 234.386 215.842 235.233 216.126 235.994C216.415 236.75 216.842 237.352 217.404 237.801C217.972 238.244 218.677 238.466 219.518 238.466ZM229.208 240V226.909H231.219V240H229.208ZM230.231 224.727C229.839 224.727 229.501 224.594 229.217 224.327C228.938 224.06 228.799 223.739 228.799 223.364C228.799 222.989 228.938 222.668 229.217 222.401C229.501 222.134 229.839 222 230.231 222C230.623 222 230.958 222.134 231.237 222.401C231.521 222.668 231.663 222.989 231.663 223.364C231.663 223.739 231.521 224.06 231.237 224.327C230.958 224.594 230.623 224.727 230.231 224.727ZM236.915 232.125V240H234.903V226.909H236.847V228.955H237.017C237.324 228.29 237.79 227.756 238.415 227.352C239.04 226.943 239.847 226.739 240.835 226.739C241.722 226.739 242.497 226.92 243.162 227.284C243.827 227.642 244.344 228.188 244.713 228.92C245.082 229.648 245.267 230.568 245.267 231.682V240H243.256V231.818C243.256 230.79 242.989 229.989 242.455 229.415C241.92 228.835 241.188 228.545 240.256 228.545C239.614 228.545 239.04 228.685 238.534 228.963C238.034 229.241 237.639 229.648 237.349 230.182C237.06 230.716 236.915 231.364 236.915 232.125ZM254.227 245.182C253.255 245.182 252.42 245.057 251.721 244.807C251.022 244.562 250.44 244.239 249.974 243.835C249.513 243.438 249.147 243.011 248.874 242.557L250.477 241.432C250.658 241.67 250.888 241.943 251.167 242.25C251.445 242.562 251.826 242.832 252.309 243.06C252.798 243.293 253.437 243.409 254.227 243.409C255.283 243.409 256.156 243.153 256.843 242.642C257.531 242.131 257.874 241.33 257.874 240.239V237.58H257.704C257.556 237.818 257.346 238.114 257.073 238.466C256.806 238.812 256.42 239.122 255.914 239.395C255.414 239.662 254.738 239.795 253.886 239.795C252.829 239.795 251.88 239.545 251.039 239.045C250.204 238.545 249.542 237.818 249.053 236.864C248.57 235.909 248.329 234.75 248.329 233.386C248.329 232.045 248.565 230.878 249.036 229.884C249.508 228.884 250.164 228.111 251.005 227.565C251.846 227.014 252.817 226.739 253.92 226.739C254.772 226.739 255.448 226.881 255.948 227.165C256.454 227.443 256.84 227.761 257.107 228.119C257.38 228.472 257.59 228.761 257.738 228.989H257.942V226.909H259.886V240.375C259.886 241.5 259.63 242.415 259.119 243.119C258.613 243.83 257.931 244.349 257.073 244.679C256.221 245.014 255.272 245.182 254.227 245.182ZM254.158 237.989C254.965 237.989 255.647 237.804 256.204 237.435C256.761 237.065 257.184 236.534 257.474 235.841C257.763 235.148 257.908 234.318 257.908 233.352C257.908 232.409 257.766 231.577 257.482 230.855C257.198 230.134 256.778 229.568 256.221 229.159C255.664 228.75 254.977 228.545 254.158 228.545C253.306 228.545 252.596 228.761 252.028 229.193C251.465 229.625 251.042 230.205 250.758 230.932C250.479 231.659 250.34 232.466 250.34 233.352C250.34 234.261 250.482 235.065 250.766 235.764C251.056 236.457 251.482 237.003 252.045 237.401C252.613 237.793 253.317 237.989 254.158 237.989Z" fill="black"/>
<path d="M52.5 358H47.1136V340.545H52.7386C54.4318 340.545 55.8807 340.895 57.0852 341.594C58.2898 342.287 59.2131 343.284 59.8551 344.585C60.4972 345.881 60.8182 347.432 60.8182 349.239C60.8182 351.057 60.4943 352.622 59.8466 353.935C59.1989 355.241 58.2557 356.247 57.017 356.952C55.7784 357.651 54.2727 358 52.5 358ZM49.2273 356.125H52.3636C53.8068 356.125 55.0028 355.847 55.9517 355.29C56.9006 354.733 57.608 353.94 58.0739 352.912C58.5398 351.884 58.7727 350.659 58.7727 349.239C58.7727 347.83 58.5426 346.616 58.0824 345.599C57.6222 344.577 56.9347 343.793 56.0199 343.247C55.1051 342.696 53.9659 342.42 52.6023 342.42H49.2273V356.125ZM64.0909 358V344.909H66.1023V358H64.0909ZM65.1136 342.727C64.7216 342.727 64.3835 342.594 64.0994 342.327C63.821 342.06 63.6818 341.739 63.6818 341.364C63.6818 340.989 63.821 340.668 64.0994 340.401C64.3835 340.134 64.7216 340 65.1136 340C65.5057 340 65.8409 340.134 66.1193 340.401C66.4034 340.668 66.5455 340.989 66.5455 341.364C66.5455 341.739 66.4034 342.06 66.1193 342.327C65.8409 342.594 65.5057 342.727 65.1136 342.727ZM79.0589 347.841L77.2521 348.352C77.1385 348.051 76.9709 347.759 76.7493 347.474C76.5334 347.185 76.2379 346.946 75.8629 346.759C75.4879 346.571 75.0078 346.477 74.4226 346.477C73.6214 346.477 72.9538 346.662 72.4197 347.031C71.8913 347.395 71.6271 347.858 71.6271 348.42C71.6271 348.92 71.8089 349.315 72.1726 349.605C72.5362 349.895 73.1044 350.136 73.8771 350.33L75.8203 350.807C76.9908 351.091 77.8629 351.526 78.4368 352.111C79.0107 352.69 79.2976 353.437 79.2976 354.352C79.2976 355.102 79.0817 355.773 78.6499 356.364C78.2237 356.955 77.6271 357.42 76.8601 357.761C76.093 358.102 75.201 358.273 74.1839 358.273C72.8487 358.273 71.7436 357.983 70.8686 357.403C69.9936 356.824 69.4396 355.977 69.2067 354.864L71.1158 354.386C71.2976 355.091 71.6413 355.619 72.147 355.972C72.6584 356.324 73.326 356.5 74.1499 356.5C75.0874 356.5 75.8317 356.301 76.3828 355.903C76.9396 355.5 77.218 355.017 77.218 354.455C77.218 354 77.0589 353.619 76.7408 353.312C76.4226 353 75.9339 352.767 75.2749 352.614L73.093 352.102C71.8942 351.818 71.0135 351.378 70.451 350.781C69.8942 350.179 69.6158 349.426 69.6158 348.523C69.6158 347.784 69.8232 347.131 70.2379 346.562C70.6584 345.994 71.2294 345.548 71.951 345.224C72.6783 344.901 73.5021 344.739 74.4226 344.739C75.718 344.739 76.7351 345.023 77.4737 345.591C78.218 346.159 78.7464 346.909 79.0589 347.841ZM87.6435 358.273C86.4162 358.273 85.3594 357.983 84.473 357.403C83.5866 356.824 82.9048 356.026 82.4276 355.009C81.9503 353.991 81.7116 352.83 81.7116 351.523C81.7116 350.193 81.956 349.02 82.4446 348.003C82.9389 346.98 83.6264 346.182 84.5071 345.608C85.3935 345.028 86.4276 344.739 87.6094 344.739C88.5298 344.739 89.3594 344.909 90.098 345.25C90.8366 345.591 91.4418 346.068 91.9134 346.682C92.3849 347.295 92.6776 348.011 92.7912 348.83H90.7798C90.6264 348.233 90.2855 347.705 89.7571 347.244C89.2344 346.778 88.5298 346.545 87.6435 346.545C86.8594 346.545 86.1719 346.75 85.581 347.159C84.9957 347.562 84.5384 348.134 84.2088 348.872C83.8849 349.605 83.723 350.466 83.723 351.455C83.723 352.466 83.8821 353.347 84.2003 354.097C84.5241 354.847 84.9787 355.429 85.5639 355.844C86.1548 356.259 86.848 356.466 87.6435 356.466C88.1662 356.466 88.6406 356.375 89.0668 356.193C89.4929 356.011 89.8537 355.75 90.1491 355.409C90.4446 355.068 90.6548 354.659 90.7798 354.182H92.7912C92.6776 354.955 92.3963 355.651 91.9474 356.27C91.5043 356.884 90.9162 357.372 90.1832 357.736C89.456 358.094 88.6094 358.273 87.6435 358.273ZM101.05 358.273C99.8679 358.273 98.831 357.991 97.9389 357.429C97.0526 356.866 96.3594 356.08 95.8594 355.068C95.3651 354.057 95.1179 352.875 95.1179 351.523C95.1179 350.159 95.3651 348.969 95.8594 347.952C96.3594 346.935 97.0526 346.145 97.9389 345.582C98.831 345.02 99.8679 344.739 101.05 344.739C102.232 344.739 103.266 345.02 104.152 345.582C105.044 346.145 105.737 346.935 106.232 347.952C106.732 348.969 106.982 350.159 106.982 351.523C106.982 352.875 106.732 354.057 106.232 355.068C105.737 356.08 105.044 356.866 104.152 357.429C103.266 357.991 102.232 358.273 101.05 358.273ZM101.05 356.466C101.947 356.466 102.686 356.236 103.266 355.776C103.845 355.315 104.274 354.71 104.553 353.96C104.831 353.21 104.97 352.398 104.97 351.523C104.97 350.648 104.831 349.832 104.553 349.077C104.274 348.321 103.845 347.71 103.266 347.244C102.686 346.778 101.947 346.545 101.05 346.545C100.152 346.545 99.4134 346.778 98.8338 347.244C98.2543 347.71 97.8253 348.321 97.5469 349.077C97.2685 349.832 97.1293 350.648 97.1293 351.523C97.1293 352.398 97.2685 353.21 97.5469 353.96C97.8253 354.71 98.2543 355.315 98.8338 355.776C99.4134 356.236 100.152 356.466 101.05 356.466ZM110.052 358V344.909H111.995V346.886H112.131C112.37 346.239 112.802 345.713 113.427 345.31C114.052 344.906 114.756 344.705 115.54 344.705C115.688 344.705 115.873 344.707 116.094 344.713C116.316 344.719 116.484 344.727 116.597 344.739V346.784C116.529 346.767 116.373 346.741 116.129 346.707C115.89 346.668 115.637 346.648 115.37 346.648C114.734 346.648 114.165 346.781 113.665 347.048C113.171 347.31 112.779 347.673 112.489 348.139C112.205 348.599 112.063 349.125 112.063 349.716V358H110.052ZM123.526 358.273C122.435 358.273 121.472 357.997 120.637 357.446C119.802 356.889 119.148 356.105 118.677 355.094C118.205 354.077 117.969 352.875 117.969 351.489C117.969 350.114 118.205 348.92 118.677 347.909C119.148 346.898 119.805 346.116 120.646 345.565C121.487 345.014 122.458 344.739 123.56 344.739C124.413 344.739 125.086 344.881 125.58 345.165C126.08 345.443 126.461 345.761 126.722 346.119C126.989 346.472 127.197 346.761 127.344 346.989H127.515V340.545H129.526V358H127.583V355.989H127.344C127.197 356.227 126.987 356.528 126.714 356.892C126.441 357.25 126.052 357.571 125.546 357.855C125.04 358.134 124.367 358.273 123.526 358.273ZM123.799 356.466C124.606 356.466 125.288 356.256 125.844 355.835C126.401 355.409 126.825 354.821 127.114 354.071C127.404 353.315 127.549 352.443 127.549 351.455C127.549 350.477 127.407 349.622 127.123 348.889C126.839 348.151 126.418 347.577 125.862 347.168C125.305 346.753 124.617 346.545 123.799 346.545C122.947 346.545 122.237 346.764 121.668 347.202C121.106 347.634 120.683 348.222 120.398 348.966C120.12 349.705 119.981 350.534 119.981 351.455C119.981 352.386 120.123 353.233 120.407 353.994C120.697 354.75 121.123 355.352 121.685 355.801C122.254 356.244 122.958 356.466 123.799 356.466ZM140.512 358V340.545H146.41C147.773 340.545 148.893 340.778 149.768 341.244C150.643 341.705 151.29 342.338 151.711 343.145C152.131 343.952 152.342 344.869 152.342 345.898C152.342 346.926 152.131 347.838 151.711 348.634C151.29 349.429 150.646 350.054 149.776 350.509C148.907 350.957 147.796 351.182 146.444 351.182H141.671V349.273H146.376C147.308 349.273 148.058 349.136 148.626 348.864C149.2 348.591 149.614 348.205 149.87 347.705C150.131 347.199 150.262 346.597 150.262 345.898C150.262 345.199 150.131 344.588 149.87 344.065C149.609 343.543 149.191 343.139 148.617 342.855C148.043 342.565 147.285 342.42 146.342 342.42H142.626V358H140.512ZM148.728 350.159L153.023 358H150.569L146.342 350.159H148.728ZM160.768 358.273C159.587 358.273 158.55 357.991 157.658 357.429C156.771 356.866 156.078 356.08 155.578 355.068C155.084 354.057 154.837 352.875 154.837 351.523C154.837 350.159 155.084 348.969 155.578 347.952C156.078 346.935 156.771 346.145 157.658 345.582C158.55 345.02 159.587 344.739 160.768 344.739C161.95 344.739 162.984 345.02 163.871 345.582C164.763 346.145 165.456 346.935 165.95 347.952C166.45 348.969 166.7 350.159 166.7 351.523C166.7 352.875 166.45 354.057 165.95 355.068C165.456 356.08 164.763 356.866 163.871 357.429C162.984 357.991 161.95 358.273 160.768 358.273ZM160.768 356.466C161.666 356.466 162.405 356.236 162.984 355.776C163.564 355.315 163.993 354.71 164.271 353.96C164.55 353.21 164.689 352.398 164.689 351.523C164.689 350.648 164.55 349.832 164.271 349.077C163.993 348.321 163.564 347.71 162.984 347.244C162.405 346.778 161.666 346.545 160.768 346.545C159.871 346.545 159.132 346.778 158.553 347.244C157.973 347.71 157.544 348.321 157.266 349.077C156.987 349.832 156.848 350.648 156.848 351.523C156.848 352.398 156.987 353.21 157.266 353.96C157.544 354.71 157.973 355.315 158.553 355.776C159.132 356.236 159.871 356.466 160.768 356.466ZM170.043 358V340.545H172.055V346.989H172.225C172.373 346.761 172.577 346.472 172.839 346.119C173.106 345.761 173.487 345.443 173.981 345.165C174.481 344.881 175.157 344.739 176.009 344.739C177.112 344.739 178.083 345.014 178.924 345.565C179.765 346.116 180.421 346.898 180.893 347.909C181.364 348.92 181.6 350.114 181.6 351.489C181.6 352.875 181.364 354.077 180.893 355.094C180.421 356.105 179.768 356.889 178.933 357.446C178.097 357.997 177.134 358.273 176.043 358.273C175.202 358.273 174.529 358.134 174.023 357.855C173.518 357.571 173.129 357.25 172.856 356.892C172.583 356.528 172.373 356.227 172.225 355.989H171.987V358H170.043ZM172.021 351.455C172.021 352.443 172.165 353.315 172.455 354.071C172.745 354.821 173.168 355.409 173.725 355.835C174.282 356.256 174.964 356.466 175.771 356.466C176.612 356.466 177.313 356.244 177.876 355.801C178.444 355.352 178.87 354.75 179.154 353.994C179.444 353.233 179.589 352.386 179.589 351.455C179.589 350.534 179.447 349.705 179.163 348.966C178.884 348.222 178.461 347.634 177.893 347.202C177.33 346.764 176.623 346.545 175.771 346.545C174.952 346.545 174.265 346.753 173.708 347.168C173.151 347.577 172.731 348.151 172.447 348.889C172.163 349.622 172.021 350.477 172.021 351.455ZM189.995 358.273C188.813 358.273 187.776 357.991 186.884 357.429C185.998 356.866 185.305 356.08 184.805 355.068C184.31 354.057 184.063 352.875 184.063 351.523C184.063 350.159 184.31 348.969 184.805 347.952C185.305 346.935 185.998 346.145 186.884 345.582C187.776 345.02 188.813 344.739 189.995 344.739C191.177 344.739 192.211 345.02 193.097 345.582C193.989 346.145 194.683 346.935 195.177 347.952C195.677 348.969 195.927 350.159 195.927 351.523C195.927 352.875 195.677 354.057 195.177 355.068C194.683 356.08 193.989 356.866 193.097 357.429C192.211 357.991 191.177 358.273 189.995 358.273ZM189.995 356.466C190.893 356.466 191.631 356.236 192.211 355.776C192.79 355.315 193.219 354.71 193.498 353.96C193.776 353.21 193.915 352.398 193.915 351.523C193.915 350.648 193.776 349.832 193.498 349.077C193.219 348.321 192.79 347.71 192.211 347.244C191.631 346.778 190.893 346.545 189.995 346.545C189.097 346.545 188.359 346.778 187.779 347.244C187.2 347.71 186.771 348.321 186.492 349.077C186.214 349.832 186.075 350.648 186.075 351.523C186.075 352.398 186.214 353.21 186.492 353.96C186.771 354.71 187.2 355.315 187.779 355.776C188.359 356.236 189.097 356.466 189.995 356.466ZM204.69 344.909V346.614H197.906V344.909H204.69ZM199.884 341.773H201.895V354.25C201.895 354.818 201.977 355.244 202.142 355.528C202.313 355.807 202.528 355.994 202.79 356.091C203.057 356.182 203.338 356.227 203.634 356.227C203.855 356.227 204.037 356.216 204.179 356.193C204.321 356.165 204.435 356.142 204.52 356.125L204.929 357.932C204.793 357.983 204.602 358.034 204.358 358.085C204.114 358.142 203.804 358.17 203.429 358.17C202.861 358.17 202.304 358.048 201.759 357.804C201.219 357.56 200.77 357.188 200.412 356.688C200.06 356.188 199.884 355.557 199.884 354.795V341.773ZM216.754 347.841L214.947 348.352C214.834 348.051 214.666 347.759 214.445 347.474C214.229 347.185 213.933 346.946 213.558 346.759C213.183 346.571 212.703 346.477 212.118 346.477C211.317 346.477 210.649 346.662 210.115 347.031C209.587 347.395 209.322 347.858 209.322 348.42C209.322 348.92 209.504 349.315 209.868 349.605C210.232 349.895 210.8 350.136 211.572 350.33L213.516 350.807C214.686 351.091 215.558 351.526 216.132 352.111C216.706 352.69 216.993 353.437 216.993 354.352C216.993 355.102 216.777 355.773 216.345 356.364C215.919 356.955 215.322 357.42 214.555 357.761C213.788 358.102 212.896 358.273 211.879 358.273C210.544 358.273 209.439 357.983 208.564 357.403C207.689 356.824 207.135 355.977 206.902 354.864L208.811 354.386C208.993 355.091 209.337 355.619 209.842 355.972C210.354 356.324 211.021 356.5 211.845 356.5C212.783 356.5 213.527 356.301 214.078 355.903C214.635 355.5 214.913 355.017 214.913 354.455C214.913 354 214.754 353.619 214.436 353.312C214.118 353 213.629 352.767 212.97 352.614L210.788 352.102C209.589 351.818 208.709 351.378 208.146 350.781C207.589 350.179 207.311 349.426 207.311 348.523C207.311 347.784 207.518 347.131 207.933 346.562C208.354 345.994 208.925 345.548 209.646 345.224C210.374 344.901 211.197 344.739 212.118 344.739C213.413 344.739 214.43 345.023 215.169 345.591C215.913 346.159 216.442 346.909 216.754 347.841Z" fill="black"/>
<path d="M239.08 348H238.023C237.96 347.696 237.851 347.429 237.695 347.199C237.541 346.969 237.354 346.776 237.132 346.619C236.913 346.46 236.67 346.341 236.403 346.261C236.136 346.182 235.858 346.142 235.568 346.142C235.04 346.142 234.561 346.276 234.132 346.543C233.706 346.81 233.366 347.203 233.114 347.723C232.864 348.243 232.739 348.881 232.739 349.636C232.739 350.392 232.864 351.03 233.114 351.55C233.366 352.07 233.706 352.463 234.132 352.73C234.561 352.997 235.04 353.131 235.568 353.131C235.858 353.131 236.136 353.091 236.403 353.011C236.67 352.932 236.913 352.814 237.132 352.658C237.354 352.499 237.541 352.304 237.695 352.074C237.851 351.841 237.96 351.574 238.023 351.273H239.08C239 351.719 238.855 352.118 238.645 352.47C238.435 352.822 238.173 353.122 237.861 353.369C237.548 353.614 237.197 353.8 236.808 353.928C236.422 354.055 236.009 354.119 235.568 354.119C234.824 354.119 234.162 353.938 233.582 353.574C233.003 353.21 232.547 352.693 232.214 352.023C231.882 351.352 231.716 350.557 231.716 349.636C231.716 348.716 231.882 347.92 232.214 347.25C232.547 346.58 233.003 346.062 233.582 345.699C234.162 345.335 234.824 345.153 235.568 345.153C236.009 345.153 236.422 345.217 236.808 345.345C237.197 345.473 237.548 345.661 237.861 345.908C238.173 346.152 238.435 346.45 238.645 346.803C238.855 347.152 239 347.551 239.08 348ZM244.776 351.324V347.455H245.782V354H244.776V352.892H244.708C244.554 353.224 244.316 353.507 243.992 353.74C243.668 353.97 243.259 354.085 242.765 354.085C242.355 354.085 241.992 353.996 241.674 353.817C241.355 353.635 241.105 353.362 240.924 352.999C240.742 352.632 240.651 352.17 240.651 351.614V347.455H241.657V351.545C241.657 352.023 241.79 352.403 242.057 352.688C242.327 352.972 242.671 353.114 243.088 353.114C243.338 353.114 243.593 353.05 243.851 352.922C244.113 352.794 244.331 352.598 244.507 352.334C244.686 352.07 244.776 351.733 244.776 351.324ZM252.26 348.92L251.357 349.176C251.3 349.026 251.216 348.879 251.105 348.737C250.997 348.592 250.849 348.473 250.662 348.379C250.474 348.286 250.234 348.239 249.942 348.239C249.541 348.239 249.207 348.331 248.94 348.516C248.676 348.697 248.544 348.929 248.544 349.21C248.544 349.46 248.635 349.658 248.817 349.803C248.999 349.947 249.283 350.068 249.669 350.165L250.641 350.403C251.226 350.545 251.662 350.763 251.949 351.055C252.236 351.345 252.379 351.719 252.379 352.176C252.379 352.551 252.271 352.886 252.055 353.182C251.842 353.477 251.544 353.71 251.161 353.881C250.777 354.051 250.331 354.136 249.822 354.136C249.155 354.136 248.602 353.991 248.165 353.702C247.727 353.412 247.45 352.989 247.334 352.432L248.288 352.193C248.379 352.545 248.551 352.81 248.804 352.986C249.06 353.162 249.393 353.25 249.805 353.25C250.274 353.25 250.646 353.151 250.922 352.952C251.2 352.75 251.339 352.509 251.339 352.227C251.339 352 251.26 351.81 251.101 351.656C250.942 351.5 250.697 351.384 250.368 351.307L249.277 351.051C248.678 350.909 248.237 350.689 247.956 350.391C247.678 350.089 247.538 349.713 247.538 349.261C247.538 348.892 247.642 348.565 247.849 348.281C248.06 347.997 248.345 347.774 248.706 347.612C249.07 347.45 249.482 347.369 249.942 347.369C250.589 347.369 251.098 347.511 251.467 347.795C251.839 348.08 252.104 348.455 252.26 348.92ZM256.74 347.455V348.307H253.348V347.455H256.74ZM254.336 345.886H255.342V352.125C255.342 352.409 255.383 352.622 255.466 352.764C255.551 352.903 255.659 352.997 255.789 353.045C255.923 353.091 256.064 353.114 256.211 353.114C256.322 353.114 256.413 353.108 256.484 353.097C256.555 353.082 256.612 353.071 256.654 353.062L256.859 353.966C256.791 353.991 256.696 354.017 256.574 354.043C256.451 354.071 256.297 354.085 256.109 354.085C255.825 354.085 255.547 354.024 255.274 353.902C255.004 353.78 254.779 353.594 254.6 353.344C254.424 353.094 254.336 352.778 254.336 352.398V345.886ZM260.841 354.136C260.25 354.136 259.732 353.996 259.286 353.714C258.843 353.433 258.496 353.04 258.246 352.534C257.999 352.028 257.875 351.437 257.875 350.761C257.875 350.08 257.999 349.484 258.246 348.976C258.496 348.467 258.843 348.072 259.286 347.791C259.732 347.51 260.25 347.369 260.841 347.369C261.432 347.369 261.949 347.51 262.392 347.791C262.838 348.072 263.185 348.467 263.432 348.976C263.682 349.484 263.807 350.08 263.807 350.761C263.807 351.437 263.682 352.028 263.432 352.534C263.185 353.04 262.838 353.433 262.392 353.714C261.949 353.996 261.432 354.136 260.841 354.136ZM260.841 353.233C261.29 353.233 261.659 353.118 261.949 352.888C262.239 352.658 262.453 352.355 262.593 351.98C262.732 351.605 262.801 351.199 262.801 350.761C262.801 350.324 262.732 349.916 262.593 349.538C262.453 349.161 262.239 348.855 261.949 348.622C261.659 348.389 261.29 348.273 260.841 348.273C260.392 348.273 260.023 348.389 259.733 348.622C259.444 348.855 259.229 349.161 259.09 349.538C258.951 349.916 258.881 350.324 258.881 350.761C258.881 351.199 258.951 351.605 259.09 351.98C259.229 352.355 259.444 352.658 259.733 352.888C260.023 353.118 260.392 353.233 260.841 353.233ZM265.342 354V347.455H266.314V348.477H266.399C266.536 348.128 266.756 347.857 267.06 347.663C267.364 347.467 267.729 347.369 268.155 347.369C268.587 347.369 268.946 347.467 269.233 347.663C269.523 347.857 269.749 348.128 269.911 348.477H269.979C270.146 348.139 270.398 347.871 270.733 347.672C271.068 347.47 271.47 347.369 271.939 347.369C272.524 347.369 273.003 347.553 273.375 347.919C273.747 348.283 273.933 348.849 273.933 349.619V354H272.928V349.619C272.928 349.136 272.795 348.791 272.531 348.584C272.267 348.376 271.956 348.273 271.598 348.273C271.138 348.273 270.781 348.412 270.528 348.69C270.276 348.966 270.149 349.315 270.149 349.739V354H269.126V349.517C269.126 349.145 269.006 348.845 268.764 348.618C268.523 348.388 268.212 348.273 267.831 348.273C267.57 348.273 267.325 348.342 267.098 348.482C266.874 348.621 266.692 348.814 266.553 349.061C266.416 349.305 266.348 349.588 266.348 349.909V354H265.342ZM279.641 345.273L282.232 352.619H282.335L284.925 345.273H286.033L282.829 354H281.738L278.533 345.273H279.641ZM289.391 354.136C288.761 354.136 288.217 353.997 287.759 353.719C287.305 353.438 286.954 353.045 286.707 352.543C286.462 352.037 286.34 351.449 286.34 350.778C286.34 350.108 286.462 349.517 286.707 349.006C286.954 348.491 287.298 348.091 287.738 347.804C288.181 347.514 288.698 347.369 289.289 347.369C289.63 347.369 289.967 347.426 290.299 347.54C290.631 347.653 290.934 347.838 291.207 348.094C291.479 348.347 291.697 348.682 291.859 349.099C292.021 349.517 292.102 350.031 292.102 350.642V351.068H287.056V350.199H291.079C291.079 349.83 291.005 349.5 290.857 349.21C290.712 348.92 290.505 348.692 290.235 348.524C289.968 348.357 289.653 348.273 289.289 348.273C288.888 348.273 288.542 348.372 288.249 348.571C287.96 348.767 287.737 349.023 287.58 349.338C287.424 349.653 287.346 349.991 287.346 350.352V350.932C287.346 351.426 287.431 351.845 287.602 352.189C287.775 352.53 288.015 352.79 288.322 352.969C288.629 353.145 288.985 353.233 289.391 353.233C289.656 353.233 289.894 353.196 290.107 353.122C290.323 353.045 290.509 352.932 290.665 352.781C290.822 352.628 290.942 352.437 291.028 352.21L291.999 352.483C291.897 352.812 291.725 353.102 291.484 353.352C291.242 353.599 290.944 353.793 290.589 353.932C290.234 354.068 289.835 354.136 289.391 354.136ZM293.631 354V347.455H294.603V348.443H294.671C294.79 348.119 295.006 347.857 295.319 347.655C295.631 347.453 295.984 347.352 296.376 347.352C296.45 347.352 296.542 347.354 296.653 347.357C296.763 347.359 296.847 347.364 296.904 347.369V348.392C296.87 348.384 296.792 348.371 296.67 348.354C296.55 348.334 296.424 348.324 296.29 348.324C295.972 348.324 295.688 348.391 295.438 348.524C295.191 348.655 294.995 348.837 294.85 349.07C294.708 349.3 294.637 349.562 294.637 349.858V354H293.631ZM298.096 354V347.455H299.102V354H298.096ZM298.608 346.364C298.412 346.364 298.243 346.297 298.1 346.163C297.961 346.03 297.892 345.869 297.892 345.682C297.892 345.494 297.961 345.334 298.1 345.2C298.243 345.067 298.412 345 298.608 345C298.804 345 298.971 345.067 299.11 345.2C299.252 345.334 299.324 345.494 299.324 345.682C299.324 345.869 299.252 346.03 299.11 346.163C298.971 346.297 298.804 346.364 298.608 346.364ZM303.859 347.455V348.307H300.33V347.455H303.859ZM301.387 354V346.551C301.387 346.176 301.475 345.864 301.651 345.614C301.827 345.364 302.056 345.176 302.337 345.051C302.619 344.926 302.915 344.864 303.228 344.864C303.475 344.864 303.677 344.884 303.833 344.923C303.989 344.963 304.106 345 304.183 345.034L303.893 345.903C303.842 345.886 303.771 345.865 303.68 345.839C303.592 345.814 303.475 345.801 303.33 345.801C302.998 345.801 302.758 345.885 302.61 346.053C302.465 346.22 302.393 346.466 302.393 346.79V354H301.387ZM305.268 354V347.455H306.274V354H305.268ZM305.779 346.364C305.583 346.364 305.414 346.297 305.272 346.163C305.133 346.03 305.064 345.869 305.064 345.682C305.064 345.494 305.133 345.334 305.272 345.2C305.414 345.067 305.583 345 305.779 345C305.975 345 306.143 345.067 306.282 345.2C306.424 345.334 306.495 345.494 306.495 345.682C306.495 345.869 306.424 346.03 306.282 346.163C306.143 346.297 305.975 346.364 305.779 346.364ZM310.775 354.136C310.161 354.136 309.633 353.991 309.19 353.702C308.746 353.412 308.406 353.013 308.167 352.504C307.928 351.996 307.809 351.415 307.809 350.761C307.809 350.097 307.931 349.51 308.175 349.001C308.423 348.49 308.766 348.091 309.207 347.804C309.65 347.514 310.167 347.369 310.758 347.369C311.218 347.369 311.633 347.455 312.002 347.625C312.371 347.795 312.674 348.034 312.91 348.341C313.146 348.648 313.292 349.006 313.349 349.415H312.343C312.266 349.116 312.096 348.852 311.832 348.622C311.57 348.389 311.218 348.273 310.775 348.273C310.383 348.273 310.039 348.375 309.744 348.58C309.451 348.781 309.222 349.067 309.058 349.436C308.896 349.803 308.815 350.233 308.815 350.727C308.815 351.233 308.894 351.673 309.053 352.048C309.215 352.423 309.442 352.714 309.735 352.922C310.031 353.129 310.377 353.233 310.775 353.233C311.036 353.233 311.273 353.188 311.487 353.097C311.7 353.006 311.88 352.875 312.028 352.705C312.175 352.534 312.281 352.33 312.343 352.091H313.349C313.292 352.477 313.151 352.825 312.927 353.135C312.705 353.442 312.411 353.686 312.045 353.868C311.681 354.047 311.258 354.136 310.775 354.136ZM316.745 354.153C316.33 354.153 315.954 354.075 315.616 353.919C315.278 353.76 315.009 353.531 314.81 353.233C314.612 352.932 314.512 352.568 314.512 352.142C314.512 351.767 314.586 351.463 314.734 351.23C314.881 350.994 315.079 350.81 315.326 350.676C315.573 350.543 315.846 350.443 316.144 350.378C316.445 350.31 316.748 350.256 317.052 350.216C317.45 350.165 317.772 350.126 318.019 350.101C318.269 350.072 318.451 350.026 318.565 349.96C318.681 349.895 318.739 349.781 318.739 349.619V349.585C318.739 349.165 318.624 348.838 318.394 348.605C318.167 348.372 317.822 348.256 317.359 348.256C316.879 348.256 316.502 348.361 316.229 348.571C315.957 348.781 315.765 349.006 315.654 349.244L314.7 348.903C314.87 348.506 315.097 348.196 315.381 347.974C315.668 347.75 315.981 347.594 316.319 347.506C316.66 347.415 316.995 347.369 317.325 347.369C317.535 347.369 317.776 347.395 318.049 347.446C318.325 347.494 318.59 347.595 318.846 347.749C319.104 347.902 319.319 348.134 319.489 348.443C319.66 348.753 319.745 349.168 319.745 349.688V354H318.739V353.114H318.688C318.62 353.256 318.506 353.408 318.347 353.57C318.188 353.732 317.977 353.869 317.712 353.983C317.448 354.097 317.126 354.153 316.745 354.153ZM316.898 353.25C317.296 353.25 317.631 353.172 317.904 353.016C318.18 352.859 318.387 352.658 318.526 352.411C318.668 352.163 318.739 351.903 318.739 351.631V350.71C318.697 350.761 318.603 350.808 318.458 350.851C318.316 350.891 318.151 350.926 317.964 350.957C317.779 350.986 317.599 351.011 317.423 351.034C317.249 351.054 317.109 351.071 317.001 351.085C316.739 351.119 316.495 351.175 316.268 351.251C316.043 351.325 315.862 351.437 315.722 351.588C315.586 351.736 315.518 351.937 315.518 352.193C315.518 352.543 315.647 352.807 315.906 352.986C316.167 353.162 316.498 353.25 316.898 353.25ZM324.427 347.455V348.307H321.035V347.455H324.427ZM322.024 345.886H323.029V352.125C323.029 352.409 323.071 352.622 323.153 352.764C323.238 352.903 323.346 352.997 323.477 353.045C323.61 353.091 323.751 353.114 323.899 353.114C324.01 353.114 324.1 353.108 324.172 353.097C324.243 353.082 324.299 353.071 324.342 353.062L324.547 353.966C324.478 353.991 324.383 354.017 324.261 354.043C324.139 354.071 323.984 354.085 323.797 354.085C323.512 354.085 323.234 354.024 322.961 353.902C322.691 353.78 322.467 353.594 322.288 353.344C322.112 353.094 322.024 352.778 322.024 352.398V345.886ZM325.94 354V347.455H326.946V354H325.94ZM326.451 346.364C326.255 346.364 326.086 346.297 325.944 346.163C325.805 346.03 325.735 345.869 325.735 345.682C325.735 345.494 325.805 345.334 325.944 345.2C326.086 345.067 326.255 345 326.451 345C326.647 345 326.815 345.067 326.954 345.2C327.096 345.334 327.167 345.494 327.167 345.682C327.167 345.869 327.096 346.03 326.954 346.163C326.815 346.297 326.647 346.364 326.451 346.364ZM331.447 354.136C330.856 354.136 330.337 353.996 329.891 353.714C329.448 353.433 329.102 353.04 328.852 352.534C328.604 352.028 328.481 351.437 328.481 350.761C328.481 350.08 328.604 349.484 328.852 348.976C329.102 348.467 329.448 348.072 329.891 347.791C330.337 347.51 330.856 347.369 331.447 347.369C332.038 347.369 332.555 347.51 332.998 347.791C333.444 348.072 333.79 348.467 334.038 348.976C334.288 349.484 334.413 350.08 334.413 350.761C334.413 351.437 334.288 352.028 334.038 352.534C333.79 353.04 333.444 353.433 332.998 353.714C332.555 353.996 332.038 354.136 331.447 354.136ZM331.447 353.233C331.896 353.233 332.265 353.118 332.555 352.888C332.844 352.658 333.059 352.355 333.198 351.98C333.337 351.605 333.407 351.199 333.407 350.761C333.407 350.324 333.337 349.916 333.198 349.538C333.059 349.161 332.844 348.855 332.555 348.622C332.265 348.389 331.896 348.273 331.447 348.273C330.998 348.273 330.629 348.389 330.339 348.622C330.049 348.855 329.835 349.161 329.695 349.538C329.556 349.916 329.487 350.324 329.487 350.761C329.487 351.199 329.556 351.605 329.695 351.98C329.835 352.355 330.049 352.658 330.339 352.888C330.629 353.118 330.998 353.233 331.447 353.233ZM336.953 350.062V354H335.948V347.455H336.919V348.477H337.005C337.158 348.145 337.391 347.878 337.703 347.676C338.016 347.472 338.419 347.369 338.914 347.369C339.357 347.369 339.745 347.46 340.077 347.642C340.409 347.821 340.668 348.094 340.853 348.46C341.037 348.824 341.13 349.284 341.13 349.841V354H340.124V349.909C340.124 349.395 339.99 348.994 339.723 348.707C339.456 348.418 339.09 348.273 338.624 348.273C338.303 348.273 338.016 348.342 337.763 348.482C337.513 348.621 337.316 348.824 337.171 349.091C337.026 349.358 336.953 349.682 336.953 350.062ZM346.479 354V345.273H349.53C350.138 345.273 350.639 345.378 351.034 345.588C351.429 345.795 351.723 346.075 351.916 346.428C352.109 346.777 352.206 347.165 352.206 347.591C352.206 347.966 352.139 348.276 352.006 348.52C351.875 348.764 351.702 348.957 351.486 349.099C351.273 349.241 351.041 349.347 350.791 349.415V349.5C351.058 349.517 351.327 349.611 351.597 349.781C351.866 349.952 352.092 350.196 352.274 350.514C352.456 350.832 352.547 351.222 352.547 351.682C352.547 352.119 352.447 352.513 352.249 352.862C352.05 353.212 351.736 353.489 351.307 353.693C350.878 353.898 350.32 354 349.632 354H346.479ZM347.536 353.062H349.632C350.322 353.062 350.813 352.929 351.102 352.662C351.395 352.392 351.541 352.065 351.541 351.682C351.541 351.386 351.466 351.114 351.315 350.864C351.165 350.611 350.95 350.409 350.672 350.259C350.393 350.105 350.064 350.028 349.683 350.028H347.536V353.062ZM347.536 349.108H349.496C349.814 349.108 350.101 349.045 350.357 348.92C350.615 348.795 350.82 348.619 350.97 348.392C351.124 348.165 351.2 347.898 351.2 347.591C351.2 347.207 351.067 346.882 350.8 346.615C350.533 346.345 350.109 346.21 349.53 346.21H347.536V349.108ZM356.806 354.136C356.215 354.136 355.697 353.996 355.251 353.714C354.808 353.433 354.461 353.04 354.211 352.534C353.964 352.028 353.84 351.437 353.84 350.761C353.84 350.08 353.964 349.484 354.211 348.976C354.461 348.467 354.808 348.072 355.251 347.791C355.697 347.51 356.215 347.369 356.806 347.369C357.397 347.369 357.914 347.51 358.357 347.791C358.803 348.072 359.15 348.467 359.397 348.976C359.647 349.484 359.772 350.08 359.772 350.761C359.772 351.437 359.647 352.028 359.397 352.534C359.15 353.04 358.803 353.433 358.357 353.714C357.914 353.996 357.397 354.136 356.806 354.136ZM356.806 353.233C357.255 353.233 357.624 353.118 357.914 352.888C358.204 352.658 358.418 352.355 358.558 351.98C358.697 351.605 358.766 351.199 358.766 350.761C358.766 350.324 358.697 349.916 358.558 349.538C358.418 349.161 358.204 348.855 357.914 348.622C357.624 348.389 357.255 348.273 356.806 348.273C356.357 348.273 355.988 348.389 355.698 348.622C355.408 348.855 355.194 349.161 355.055 349.538C354.915 349.916 354.846 350.324 354.846 350.761C354.846 351.199 354.915 351.605 355.055 351.98C355.194 352.355 355.408 352.658 355.698 352.888C355.988 353.118 356.357 353.233 356.806 353.233ZM364.154 347.455V348.307H360.762V347.455H364.154ZM361.75 345.886H362.756V352.125C362.756 352.409 362.797 352.622 362.88 352.764C362.965 352.903 363.073 352.997 363.203 353.045C363.337 353.091 363.478 353.114 363.625 353.114C363.736 353.114 363.827 353.108 363.898 353.097C363.969 353.082 364.026 353.071 364.069 353.062L364.273 353.966C364.205 353.991 364.11 354.017 363.988 354.043C363.865 354.071 363.711 354.085 363.523 354.085C363.239 354.085 362.961 354.024 362.688 353.902C362.418 353.78 362.194 353.594 362.015 353.344C361.838 353.094 361.75 352.778 361.75 352.398V345.886ZM370.186 348.92L369.282 349.176C369.225 349.026 369.142 348.879 369.031 348.737C368.923 348.592 368.775 348.473 368.588 348.379C368.4 348.286 368.16 348.239 367.868 348.239C367.467 348.239 367.133 348.331 366.866 348.516C366.602 348.697 366.47 348.929 366.47 349.21C366.47 349.46 366.561 349.658 366.743 349.803C366.924 349.947 367.208 350.068 367.595 350.165L368.566 350.403C369.152 350.545 369.588 350.763 369.875 351.055C370.162 351.345 370.305 351.719 370.305 352.176C370.305 352.551 370.197 352.886 369.981 353.182C369.768 353.477 369.47 353.71 369.086 353.881C368.703 354.051 368.257 354.136 367.748 354.136C367.081 354.136 366.528 353.991 366.091 353.702C365.653 353.412 365.376 352.989 365.26 352.432L366.214 352.193C366.305 352.545 366.477 352.81 366.73 352.986C366.985 353.162 367.319 353.25 367.731 353.25C368.2 353.25 368.572 353.151 368.848 352.952C369.126 352.75 369.265 352.509 369.265 352.227C369.265 352 369.186 351.81 369.027 351.656C368.868 351.5 368.623 351.384 368.294 351.307L367.203 351.051C366.603 350.909 366.163 350.689 365.882 350.391C365.603 350.089 365.464 349.713 365.464 349.261C365.464 348.892 365.568 348.565 365.775 348.281C365.985 347.997 366.271 347.774 366.632 347.612C366.995 347.45 367.407 347.369 367.868 347.369C368.515 347.369 369.024 347.511 369.393 347.795C369.765 348.08 370.029 348.455 370.186 348.92Z" fill="#686868"/>
</svg>
