<svg width="292" height="49" viewBox="0 0 292 49" fill="none" xmlns="http://www.w3.org/2000/svg">
<rect x="0.5" y="0.5" width="291" height="48" rx="9.5" stroke="black"/>
<path d="M28.4 35.39H30.5C32.72 35.39 34.67 35.27 36.32 34.97C37.97 34.7 39.26 34.37 40.22 33.92C41.18 33.5 41.93 32.96 42.5 32.33C43.07 31.67 43.46 31.04 43.64 30.44C43.82 29.84 43.91 29.15 43.91 28.37V27.98C43.91 25.85 42.98 24.32 41.06 23.33C39.17 22.34 36.11 21.8 31.82 21.74L29.66 21.71L27.98 21.68C26.51 21.65 25.37 21.56 24.56 21.38C23.75 21.17 23.24 20.96 23.03 20.75C22.79 20.51 22.7 20.24 22.7 19.88C22.7 19.49 22.79 19.19 23 18.98C23.18 18.77 23.75 18.56 24.65 18.35C25.58 18.17 26.66 18.08 28.4 18.08H29.45C30.59 18.08 31.25 18.14 32.09 18.26C32.93 18.41 33.59 18.56 34.01 18.71C34.46 18.89 34.79 19.1 35.06 19.37C35.33 19.64 35.51 19.85 35.57 20C35.63 20.15 35.69 20.36 35.75 20.57H43.19V20.3C43.19 19.61 43.07 18.98 42.83 18.38C42.62 17.81 42.2 17.21 41.6 16.61C41 16.01 40.22 15.5 39.26 15.08C38.3 14.66 37.04 14.33 35.42 14.06C33.83 13.79 31.97 13.67 29.9 13.67H27.77C25.76 13.67 23.99 13.79 22.49 14.06C20.96 14.3 19.76 14.63 18.86 15.02C17.96 15.41 17.24 15.89 16.7 16.46C16.13 17.06 15.77 17.63 15.59 18.2C15.41 18.77 15.32 19.4 15.32 20.06V20.33C15.32 24.23 19.04 26.3 26.48 26.48L28.16 26.51L30.41 26.57C32.12 26.6 33.41 26.72 34.31 26.9C35.21 27.11 35.81 27.35 36.05 27.59C36.29 27.86 36.41 28.22 36.41 28.67C36.41 29 36.35 29.27 36.2 29.51C36.05 29.75 35.78 29.96 35.33 30.2C34.91 30.44 34.22 30.59 33.29 30.71C32.33 30.83 31.73 30.92 30.29 30.92H28.64C24.26 30.92 22.64 29.81 22.49 27.59H15.02V27.89C15.02 28.55 15.08 29.18 15.23 29.75C15.38 30.32 15.74 30.98 16.28 31.7C16.82 32.42 17.57 33.05 18.47 33.56C19.4 34.07 20.72 34.49 22.43 34.85C24.11 35.21 26.12 35.39 28.4 35.39ZM71.1275 29.42V29.39H64.3775C64.3775 29.51 64.3175 29.63 64.2275 29.75C64.1675 29.87 63.9875 30.02 63.7775 30.23C63.5375 30.41 63.2375 30.59 62.8475 30.74C62.4875 30.92 61.9775 31.04 61.3175 31.16C60.6575 31.28 59.8775 31.34 59.0375 31.34H59.0075C55.5575 31.34 53.6075 30.35 53.1575 28.37H71.2175V27.35C71.2175 21.89 67.4075 19.19 59.7575 19.19H57.8975C55.7375 19.19 53.9075 19.4 52.3475 19.82C50.8175 20.24 49.6175 20.81 48.8075 21.56C47.9675 22.31 47.3675 23.09 47.0075 23.96C46.6475 24.83 46.4675 25.76 46.4675 26.81V27.41C46.4675 28.46 46.6475 29.45 47.0375 30.32C47.4575 31.19 48.0875 32 48.9275 32.75C49.7975 33.5 50.9975 34.1 52.5575 34.52C54.1175 34.94 55.9475 35.15 58.0775 35.15H59.8175C61.7075 35.15 63.3575 35.03 64.7675 34.76C66.2075 34.49 67.2875 34.13 68.0675 33.74C68.8475 33.32 69.4775 32.87 69.9875 32.3C70.4675 31.76 70.7675 31.28 70.9175 30.8C71.0675 30.35 71.1275 29.9 71.1275 29.42ZM58.7975 22.7C62.0075 22.7 63.8375 23.54 64.3175 25.25H53.2775C53.8475 23.54 55.6775 22.7 58.7675 22.7H58.7975ZM98.9595 29.42V29.39H92.2095C92.2095 29.51 92.1495 29.63 92.0595 29.75C91.9995 29.87 91.8195 30.02 91.6095 30.23C91.3695 30.41 91.0695 30.59 90.6795 30.74C90.3195 30.92 89.8095 31.04 89.1495 31.16C88.4895 31.28 87.7095 31.34 86.8695 31.34H86.8395C83.3895 31.34 81.4395 30.35 80.9895 28.37H99.0495V27.35C99.0495 21.89 95.2395 19.19 87.5895 19.19H85.7295C83.5695 19.19 81.7395 19.4 80.1795 19.82C78.6495 20.24 77.4495 20.81 76.6395 21.56C75.7995 22.31 75.1995 23.09 74.8395 23.96C74.4795 24.83 74.2995 25.76 74.2995 26.81V27.41C74.2995 28.46 74.4795 29.45 74.8695 30.32C75.2895 31.19 75.9195 32 76.7595 32.75C77.6295 33.5 78.8295 34.1 80.3895 34.52C81.9495 34.94 83.7795 35.15 85.9095 35.15H87.6495C89.5395 35.15 91.1895 35.03 92.5995 34.76C94.0395 34.49 95.1195 34.13 95.8995 33.74C96.6795 33.32 97.3095 32.87 97.8195 32.3C98.2995 31.76 98.5995 31.28 98.7495 30.8C98.8995 30.35 98.9595 29.9 98.9595 29.42ZM86.6295 22.7C89.8395 22.7 91.6695 23.54 92.1495 25.25H81.1095C81.6795 23.54 83.5095 22.7 86.5995 22.7H86.6295ZM118.486 35.03H125.356V20.48L134.386 35.03H138.226L147.226 20.48V35.03H154.306V14.03H144.496L136.546 27.11L128.656 14.03H118.486V35.03ZM171.058 35.09C178.918 35.09 182.848 32.48 182.848 27.26V26.75C182.848 21.65 178.918 19.1 171.058 19.1H168.868C167.038 19.1 165.388 19.25 163.978 19.58C162.568 19.88 161.428 20.27 160.558 20.78C159.688 21.29 158.998 21.86 158.458 22.58C157.918 23.27 157.558 23.93 157.348 24.62C157.138 25.31 157.048 26 157.048 26.75V27.26C157.048 28.01 157.138 28.73 157.348 29.42C157.558 30.11 157.918 30.8 158.488 31.52C159.028 32.21 159.718 32.84 160.588 33.35C161.458 33.86 162.598 34.25 164.008 34.58C165.418 34.91 167.068 35.09 168.898 35.09H171.058ZM169.978 31.01C167.848 31.01 166.318 30.62 165.418 29.84C164.488 29.09 164.038 28.16 164.038 27.11V26.96C164.038 25.85 164.488 24.92 165.388 24.2C166.288 23.48 167.818 23.12 169.978 23.12H170.008C172.108 23.12 173.638 23.48 174.538 24.23C175.468 24.95 175.918 25.88 175.918 26.96V27.11C175.918 28.16 175.468 29.09 174.538 29.84C173.638 30.62 172.108 31.01 169.978 31.01ZM198.054 19.04C196.854 19.04 195.804 19.25 194.814 19.67C193.854 20.09 193.164 20.51 192.744 20.9C192.354 21.29 192.024 21.71 191.754 22.1V19.37H185.364V34.85H191.784V26.87C191.784 25.79 192.084 24.92 192.684 24.2C193.284 23.48 194.394 23.21 195.174 23.12C195.954 23.03 205.164 23.12 205.164 23.12V19.04H198.054ZM232.905 29.42V29.39H226.155C226.155 29.51 226.095 29.63 226.005 29.75C225.945 29.87 225.765 30.02 225.555 30.23C225.315 30.41 225.015 30.59 224.625 30.74C224.265 30.92 223.755 31.04 223.095 31.16C222.435 31.28 221.655 31.34 220.815 31.34H220.785C217.335 31.34 215.385 30.35 214.935 28.37H232.995V27.35C232.995 21.89 229.185 19.19 221.535 19.19H219.675C217.515 19.19 215.685 19.4 214.125 19.82C212.595 20.24 211.395 20.81 210.585 21.56C209.745 22.31 209.145 23.09 208.785 23.96C208.425 24.83 208.245 25.76 208.245 26.81V27.41C208.245 28.46 208.425 29.45 208.815 30.32C209.235 31.19 209.865 32 210.705 32.75C211.575 33.5 212.775 34.1 214.335 34.52C215.895 34.94 217.725 35.15 219.855 35.15H221.595C223.485 35.15 225.135 35.03 226.545 34.76C227.985 34.49 229.065 34.13 229.845 33.74C230.625 33.32 231.255 32.87 231.765 32.3C232.245 31.76 232.545 31.28 232.695 30.8C232.845 30.35 232.905 29.9 232.905 29.42ZM220.575 22.7C223.785 22.7 225.615 23.54 226.095 25.25H215.055C215.625 23.54 217.455 22.7 220.545 22.7H220.575Z" fill="black"/>
<path d="M242 23.5C241.172 23.5 240.5 24.1716 240.5 25C240.5 25.8284 241.172 26.5 242 26.5L242 23.5ZM281.061 26.0607C281.646 25.4749 281.646 24.5251 281.061 23.9393L271.515 14.3934C270.929 13.8076 269.979 13.8076 269.393 14.3934C268.808 14.9792 268.808 15.9289 269.393 16.5147L277.879 25L269.393 33.4853C268.808 34.0711 268.808 35.0208 269.393 35.6066C269.979 36.1924 270.929 36.1924 271.515 35.6066L281.061 26.0607ZM242 26.5L280 26.5L280 23.5L242 23.5L242 26.5Z" fill="black"/>
</svg>
