<svg width="1126" height="98" viewBox="0 0 1126 98" fill="none" xmlns="http://www.w3.org/2000/svg">
<rect x="361.5" y="0.5" width="403" height="97" rx="9.5" fill="#ECECEC" stroke="black"/>
<path d="M413.12 43.288H414.12V42.288H413.12V43.288ZM413.12 71H412.12V72H413.12V71ZM428.224 71V72H429.224V71H428.224ZM428.224 26.264H429.224V25.264H428.224V26.264ZM416.32 26.264V25.264H415.689L415.417 25.8341L416.32 26.264ZM401.792 34.904L401.73 33.9059L400.792 33.9645V34.904H401.792ZM401.792 43.288H400.792V44.288H401.792V43.288ZM412.12 43.288V71H414.12V43.288H412.12ZM413.12 72H428.224V70H413.12V72ZM429.224 71V26.264H427.224V71H429.224ZM428.224 25.264H416.32V27.264H428.224V25.264ZM415.417 25.8341C413.051 30.8034 408.631 33.4746 401.73 33.9059L401.854 35.9021C409.289 35.4374 414.469 32.4766 417.223 26.6939L415.417 25.8341ZM400.792 34.904V43.288H402.792V34.904H400.792ZM401.792 44.288H413.12V42.288H401.792V44.288ZM500.349 42.136L499.367 42.3248L499.37 42.3429L499.375 42.3609L500.349 42.136ZM492.477 31.256L491.917 32.0843L492.477 31.256ZM483.197 27.544L482.947 28.5123L482.951 28.5132L483.197 27.544ZM452.541 27.544L452.791 28.5123L452.541 27.544ZM443.325 31.256L443.874 32.0918L443.885 32.0843L443.325 31.256ZM438.013 36.568L438.849 37.1167L438.013 36.568ZM435.389 42.136L434.415 41.9111L435.389 42.136ZM435.389 54.232L436.363 54.0071L435.389 54.232ZM438.013 59.864L438.857 59.3271L438.849 59.3153L438.013 59.864ZM443.325 65.24L443.885 64.4116L443.874 64.4043L443.325 65.24ZM452.541 69.016L452.805 68.0516L452.798 68.0496L452.791 68.0477L452.541 69.016ZM483.197 69.016L482.951 68.0468L482.942 68.0491L482.933 68.0516L483.197 69.016ZM492.477 65.24L493.037 66.0683L493.046 66.0627L493.054 66.057L492.477 65.24ZM500.349 54.232L499.375 54.0071L499.37 54.0251L499.367 54.0432L500.349 54.232ZM484.733 52.44L483.829 52.0119L483.816 52.0399L483.805 52.0686L484.733 52.44ZM482.109 56.088L481.421 55.362L481.411 55.3713L481.402 55.3809L482.109 56.088ZM476.669 58.968L476.94 59.9305L476.947 59.9286L476.669 58.968ZM459.069 58.968L458.768 59.9216L458.779 59.9252L458.791 59.9286L459.069 58.968ZM453.565 56.024L452.858 56.7311L452.867 56.7402L452.876 56.749L453.565 56.024ZM451.005 52.312L451.933 51.9406L451.922 51.9119L451.909 51.8839L451.005 52.312ZM450.621 44.632L451.57 44.9482L451.579 44.9192L451.587 44.8897L450.621 44.632ZM452.221 41.688L452.997 42.3186L453.009 42.3035L453.021 42.288L452.221 41.688ZM455.293 39.064L455.775 39.9402L455.791 39.9312L455.807 39.9215L455.293 39.064ZM460.413 37.208L460.642 38.1814L460.413 37.208ZM476.669 37.528L476.947 36.5674L476.94 36.5655L476.669 37.528ZM482.109 40.28L482.816 39.5729L482.807 39.5633L482.797 39.554L482.109 40.28ZM484.733 43.864L483.811 44.2521L483.82 44.2723L483.829 44.2921L484.733 43.864ZM501.925 47.32C501.925 45.456 501.725 43.6524 501.323 41.9111L499.375 42.3609C499.741 43.9476 499.925 45.6 499.925 47.32H501.925ZM501.331 41.9472C500.975 40.0962 499.998 38.1122 498.625 36.0193L496.953 37.1167C498.268 39.1198 499.083 40.8478 499.367 42.3248L501.331 41.9472ZM498.625 36.0193C497.203 33.853 495.315 31.9684 493.037 30.4277L491.917 32.0843C493.991 33.4876 495.687 35.187 496.953 37.1167L498.625 36.0193ZM493.037 30.4277C490.724 28.8628 487.525 27.6115 483.443 26.5748L482.951 28.5132C486.933 29.5245 489.878 30.7052 491.917 32.0843L493.037 30.4277ZM483.447 26.5757C479.377 25.5254 474.617 25.008 469.245 25.008V27.008C474.497 27.008 479.081 27.5146 482.947 28.5123L483.447 26.5757ZM469.245 25.008H466.493V27.008H469.245V25.008ZM466.493 25.008C461.121 25.008 456.361 25.5254 452.291 26.5757L452.791 28.5123C456.657 27.5146 461.241 27.008 466.493 27.008V25.008ZM452.291 26.5757C448.275 27.6123 445.077 28.8635 442.765 30.4277L443.885 32.0843C445.925 30.7045 448.871 29.5237 452.791 28.5123L452.291 26.5757ZM442.776 30.4203C440.417 31.9705 438.593 33.8619 437.177 36.0193L438.849 37.1167C440.121 35.1781 441.753 33.4855 443.874 32.0917L442.776 30.4203ZM437.177 36.0193C435.8 38.1173 434.836 40.0861 434.415 41.9111L436.363 42.3609C436.71 40.8579 437.538 39.1147 438.849 37.1167L437.177 36.0193ZM434.415 41.9111C434.013 43.6524 433.813 45.456 433.813 47.32H435.813C435.813 45.6 435.997 43.9476 436.363 42.3609L434.415 41.9111ZM433.813 47.32V49.048H435.813V47.32H433.813ZM433.813 49.048C433.813 50.912 434.013 52.7156 434.415 54.4569L436.363 54.0071C435.997 52.4204 435.813 50.768 435.813 49.048H433.813ZM434.415 54.4569C434.834 56.275 435.794 58.3057 437.177 60.4127L438.849 59.3153C437.544 57.3263 436.712 55.517 436.363 54.0071L434.415 54.4569ZM437.169 60.4009C438.588 62.6302 440.416 64.5248 442.776 66.0757L443.874 64.4043C441.754 63.0112 440.126 61.3218 438.857 59.3271L437.169 60.4009ZM442.765 66.0683C445.069 67.6272 448.26 68.944 452.291 69.9843L452.791 68.0477C448.886 67.0399 445.933 65.7968 443.885 64.4117L442.765 66.0683ZM452.277 69.9804C456.356 71.0989 461.122 71.616 466.493 71.616V69.616C461.24 69.616 456.662 69.1091 452.805 68.0516L452.277 69.9804ZM466.493 71.616H469.245V69.616H466.493V71.616ZM469.245 71.616C474.616 71.616 479.382 71.0989 483.461 69.9804L482.933 68.0516C479.076 69.1091 474.498 69.616 469.245 69.616V71.616ZM483.443 69.9852C487.54 68.9449 490.732 67.6279 493.037 66.0683L491.917 64.4117C489.87 65.7961 486.918 67.0391 482.951 68.0468L483.443 69.9852ZM493.054 66.057C495.318 64.4587 497.203 62.5793 498.625 60.4127L496.953 59.3153C495.687 61.2447 493.988 62.9493 491.9 64.423L493.054 66.057ZM498.625 60.4127C500.004 58.3107 500.976 56.2651 501.331 54.4208L499.367 54.0432C499.082 55.5268 498.262 57.3213 496.953 59.3153L498.625 60.4127ZM501.323 54.4569C501.725 52.7156 501.925 50.912 501.925 49.048H499.925C499.925 50.768 499.741 52.4204 499.375 54.0071L501.323 54.4569ZM501.925 49.048V47.32H499.925V49.048H501.925ZM484.565 47.704V48.536H486.565V47.704H484.565ZM484.565 48.536C484.565 49.8161 484.334 50.9468 483.829 52.0119L485.637 52.8681C486.284 51.5012 486.565 50.0719 486.565 48.536H484.565ZM483.805 52.0686C483.36 53.179 482.564 54.2794 481.421 55.362L482.797 56.814C484.086 55.5926 485.082 54.261 485.661 52.8114L483.805 52.0686ZM481.402 55.3809C480.346 56.4372 478.726 57.3314 476.391 58.0074L476.947 59.9286C479.476 59.1966 481.44 58.1708 482.816 56.7951L481.402 55.3809ZM476.398 58.0056C474.005 58.6803 471.219 59.056 467.837 59.056V61.056C471.367 61.056 474.341 60.6637 476.94 59.9305L476.398 58.0056ZM467.837 59.056C464.517 59.056 461.669 58.6797 459.347 58.0074L458.791 59.9286C461.333 60.6643 464.373 61.056 467.837 61.056V59.056ZM459.37 58.0144C457.024 57.2735 455.386 56.3748 454.254 55.299L452.876 56.749C454.304 58.1052 456.25 59.1265 458.768 59.9216L459.37 58.0144ZM454.272 55.3169C453.132 54.1766 452.386 53.071 451.933 51.9406L450.077 52.6834C450.648 54.113 451.566 55.4394 452.858 56.7311L454.272 55.3169ZM451.909 51.8839C451.406 50.8217 451.173 49.6277 451.173 48.408H449.173C449.173 49.8763 449.452 51.3703 450.101 52.7401L451.909 51.8839ZM451.173 48.408V47.704H449.173V48.408H451.173ZM451.173 47.704C451.173 46.693 451.292 45.7809 451.57 44.9482L449.672 44.3158C449.31 45.4031 449.173 46.539 449.173 47.704H451.173ZM451.587 44.8897C451.799 44.0963 452.232 43.2604 452.997 42.3186L451.445 41.0574C450.546 42.1636 449.955 43.2477 449.655 44.3743L451.587 44.8897ZM453.021 42.288C453.7 41.3832 454.613 40.5792 455.775 39.9402L454.811 38.1878C453.413 38.9568 452.278 39.9448 451.421 41.088L453.021 42.288ZM455.807 39.9215C456.957 39.2316 458.505 38.6843 460.642 38.1814L460.184 36.2346C457.969 36.7557 456.189 37.3604 454.779 38.2065L455.807 39.9215ZM460.642 38.1814C462.714 37.6939 465.061 37.504 467.837 37.504V35.504C464.981 35.504 462.464 35.6981 460.184 36.2346L460.642 38.1814ZM467.837 37.504C471.235 37.504 474.017 37.8191 476.398 38.4904L476.94 36.5655C474.329 35.8289 471.351 35.504 467.837 35.504V37.504ZM476.391 38.4886C478.747 39.1705 480.368 40.0082 481.421 41.006L482.797 39.554C481.418 38.2478 479.455 37.2935 476.947 36.5674L476.391 38.4886ZM481.402 40.9871C482.577 42.1624 483.371 43.2072 483.811 44.2521L485.655 43.4759C485.071 42.0888 484.073 40.8296 482.816 39.5729L481.402 40.9871ZM483.829 44.2921C484.335 45.3601 484.565 46.4915 484.565 47.704H486.565C486.565 46.2285 486.283 44.7999 485.637 43.4359L483.829 44.2921ZM508.871 77.336L508.007 76.8339L507.135 78.336H508.871V77.336ZM515.848 77.336V78.336H516.334L516.634 77.9538L515.848 77.336ZM517.64 74.136L516.736 73.7079L516.726 73.7277L516.718 73.7479L517.64 74.136ZM518.471 63.576H519.471V62.576H518.471V63.576ZM505.224 63.576V62.576H504.224V63.576H505.224ZM505.224 72.408H504.224V73.408H505.224V72.408ZM510.92 72.408L511.908 72.5563L512.081 71.408H510.92V72.408ZM508.871 78.336H515.848V76.336H508.871V78.336ZM516.634 77.9538C517.414 76.9613 518.03 75.7845 518.561 74.5241L516.718 73.7479C516.225 74.9195 515.689 75.9187 515.061 76.7182L516.634 77.9538ZM518.543 74.5641C519.168 73.2452 519.471 72.0109 519.471 70.872H517.471C517.471 71.6531 517.263 72.5948 516.736 73.7079L518.543 74.5641ZM519.471 70.872V63.576H517.471V70.872H519.471ZM518.471 62.576H505.224V64.576H518.471V62.576ZM504.224 63.576V72.408H506.224V63.576H504.224ZM505.224 73.408H510.92V71.408H505.224V73.408ZM509.931 72.2597C509.767 73.349 509.141 74.8805 508.007 76.8339L509.736 77.8381C510.906 75.8235 511.688 74.027 511.908 72.5563L509.931 72.2597ZM588.286 42.136L587.305 42.3248L587.308 42.3429L587.312 42.3609L588.286 42.136ZM580.415 31.256L579.854 32.0843L580.415 31.256ZM571.135 27.544L570.885 28.5123L570.888 28.5132L571.135 27.544ZM540.479 27.544L540.728 28.5123L540.479 27.544ZM531.262 31.256L531.812 32.0918L531.823 32.0843L531.262 31.256ZM525.951 36.568L526.787 37.1167L525.951 36.568ZM523.326 42.136L522.352 41.9111L523.326 42.136ZM523.326 54.232L524.301 54.0071L523.326 54.232ZM525.951 59.864L526.794 59.3271L526.787 59.3153L525.951 59.864ZM531.262 65.24L531.823 64.4116L531.812 64.4043L531.262 65.24ZM540.479 69.016L540.743 68.0516L540.736 68.0496L540.728 68.0477L540.479 69.016ZM571.135 69.016L570.888 68.0468L570.879 68.0491L570.87 68.0516L571.135 69.016ZM580.415 65.24L580.975 66.0683L580.983 66.0627L580.991 66.057L580.415 65.24ZM588.286 54.232L587.312 54.0071L587.308 54.0251L587.305 54.0432L588.286 54.232ZM572.671 52.44L571.767 52.0119L571.754 52.0399L571.742 52.0686L572.671 52.44ZM570.047 56.088L569.359 55.362L569.349 55.3713L569.339 55.3809L570.047 56.088ZM564.607 58.968L564.878 59.9305L564.885 59.9286L564.607 58.968ZM547.007 58.968L546.705 59.9216L546.717 59.9252L546.728 59.9286L547.007 58.968ZM541.503 56.024L540.795 56.7311L540.804 56.7402L540.814 56.749L541.503 56.024ZM538.943 52.312L539.871 51.9406L539.859 51.9119L539.846 51.8839L538.943 52.312ZM538.559 44.632L539.507 44.9482L539.517 44.9192L539.525 44.8897L538.559 44.632ZM540.159 41.688L540.935 42.3186L540.947 42.3035L540.958 42.288L540.159 41.688ZM543.23 39.064L543.712 39.9402L543.729 39.9312L543.745 39.9215L543.23 39.064ZM548.35 37.208L548.58 38.1814L548.35 37.208ZM564.607 37.528L564.885 36.5674L564.878 36.5655L564.607 37.528ZM570.047 40.28L570.754 39.5729L570.744 39.5633L570.734 39.554L570.047 40.28ZM572.671 43.864L571.749 44.2521L571.757 44.2723L571.767 44.2921L572.671 43.864ZM589.863 47.32C589.863 45.456 589.663 43.6524 589.261 41.9111L587.312 42.3609C587.678 43.9476 587.863 45.6 587.863 47.32H589.863ZM589.269 41.9472C588.913 40.0962 587.936 38.1122 586.563 36.0193L584.89 37.1167C586.205 39.1198 587.02 40.8478 587.305 42.3248L589.269 41.9472ZM586.563 36.0193C585.141 33.853 583.252 31.9684 580.975 30.4277L579.854 32.0843C581.929 33.4876 583.624 35.187 584.89 37.1167L586.563 36.0193ZM580.975 30.4277C578.662 28.8628 575.463 27.6115 571.381 26.5748L570.888 28.5132C574.87 29.5245 577.815 30.7052 579.854 32.0843L580.975 30.4277ZM571.384 26.5757C567.314 25.5254 562.555 25.008 557.182 25.008V27.008C562.434 27.008 567.019 27.5146 570.885 28.5123L571.384 26.5757ZM557.182 25.008H554.43V27.008H557.182V25.008ZM554.43 25.008C549.058 25.008 544.299 25.5254 540.229 26.5757L540.728 28.5123C544.594 27.5146 549.179 27.008 554.43 27.008V25.008ZM540.229 26.5757C536.212 27.6123 533.014 28.8635 530.702 30.4277L531.823 32.0843C533.863 30.7045 536.809 29.5237 540.728 28.5123L540.229 26.5757ZM530.713 30.4203C528.354 31.9705 526.53 33.8619 525.114 36.0193L526.787 37.1167C528.059 35.1781 529.691 33.4855 531.812 32.0917L530.713 30.4203ZM525.114 36.0193C523.738 38.1173 522.773 40.0861 522.352 41.9111L524.301 42.3609C524.648 40.8579 525.475 39.1147 526.787 37.1167L525.114 36.0193ZM522.352 41.9111C521.95 43.6524 521.751 45.456 521.751 47.32H523.751C523.751 45.6 523.935 43.9476 524.301 42.3609L522.352 41.9111ZM521.751 47.32V49.048H523.751V47.32H521.751ZM521.751 49.048C521.751 50.912 521.95 52.7156 522.352 54.4569L524.301 54.0071C523.935 52.4204 523.751 50.768 523.751 49.048H521.751ZM522.352 54.4569C522.772 56.275 523.732 58.3057 525.114 60.4127L526.787 59.3153C525.481 57.3263 524.649 55.517 524.301 54.0071L522.352 54.4569ZM525.107 60.4009C526.526 62.6302 528.353 64.5248 530.713 66.0757L531.812 64.4043C529.692 63.0112 528.063 61.3218 526.794 59.3271L525.107 60.4009ZM530.702 66.0683C533.007 67.6272 536.198 68.944 540.229 69.9843L540.728 68.0477C536.823 67.0399 533.87 65.7968 531.823 64.4117L530.702 66.0683ZM540.214 69.9804C544.293 71.0989 549.059 71.616 554.43 71.616V69.616C549.178 69.616 544.6 69.1091 540.743 68.0516L540.214 69.9804ZM554.43 71.616H557.182V69.616H554.43V71.616ZM557.182 71.616C562.554 71.616 567.32 71.0989 571.399 69.9804L570.87 68.0516C567.013 69.1091 562.435 69.616 557.182 69.616V71.616ZM571.381 69.9852C575.477 68.9449 578.669 67.6279 580.975 66.0683L579.854 64.4117C577.808 65.7961 574.856 67.0391 570.888 68.0468L571.381 69.9852ZM580.991 66.057C583.255 64.4587 585.141 62.5793 586.563 60.4127L584.89 59.3153C583.624 61.2447 581.926 62.9493 579.838 64.423L580.991 66.057ZM586.563 60.4127C587.942 58.3107 588.914 56.2651 589.269 54.4208L587.305 54.0432C587.019 55.5268 586.199 57.3213 584.89 59.3153L586.563 60.4127ZM589.261 54.4569C589.663 52.7156 589.863 50.912 589.863 49.048H587.863C587.863 50.768 587.678 52.4204 587.312 54.0071L589.261 54.4569ZM589.863 49.048V47.32H587.863V49.048H589.863ZM572.503 47.704V48.536H574.503V47.704H572.503ZM572.503 48.536C572.503 49.8161 572.271 50.9468 571.767 52.0119L573.574 52.8681C574.222 51.5012 574.503 50.0719 574.503 48.536H572.503ZM571.742 52.0686C571.298 53.179 570.502 54.2794 569.359 55.362L570.734 56.814C572.023 55.5926 573.019 54.261 573.599 52.8114L571.742 52.0686ZM569.339 55.3809C568.283 56.4372 566.664 57.3314 564.328 58.0074L564.885 59.9286C567.413 59.1966 569.378 58.1708 570.754 56.7951L569.339 55.3809ZM564.335 58.0056C561.943 58.6803 559.156 59.056 555.775 59.056V61.056C559.305 61.056 562.278 60.6637 564.878 59.9305L564.335 58.0056ZM555.775 59.056C552.454 59.056 549.607 58.6797 547.285 58.0074L546.728 59.9286C549.27 60.6643 552.311 61.056 555.775 61.056V59.056ZM547.308 58.0144C544.962 57.2735 543.324 56.3748 542.191 55.299L540.814 56.749C542.241 58.1052 544.187 59.1265 546.705 59.9216L547.308 58.0144ZM542.21 55.3169C541.069 54.1766 540.323 53.071 539.871 51.9406L538.014 52.6834C538.586 54.113 539.504 55.4394 540.795 56.7311L542.21 55.3169ZM539.846 51.8839C539.343 50.8217 539.111 49.6277 539.111 48.408H537.111C537.111 49.8763 537.39 51.3703 538.039 52.7401L539.846 51.8839ZM539.111 48.408V47.704H537.111V48.408H539.111ZM539.111 47.704C539.111 46.693 539.23 45.7809 539.507 44.9482L537.61 44.3158C537.247 45.4031 537.111 46.539 537.111 47.704H539.111ZM539.525 44.8897C539.736 44.0963 540.169 43.2604 540.935 42.3186L539.382 41.0574C538.484 42.1636 537.893 43.2477 537.592 44.3743L539.525 44.8897ZM540.958 42.288C541.637 41.3832 542.551 40.5792 543.712 39.9402L542.749 38.1878C541.35 38.9568 540.216 39.9448 539.359 41.088L540.958 42.288ZM543.745 39.9215C544.895 39.2316 546.442 38.6843 548.58 38.1814L548.121 36.2346C545.907 36.7557 544.126 37.3604 542.716 38.2065L543.745 39.9215ZM548.58 38.1814C550.651 37.6939 552.999 37.504 555.775 37.504V35.504C552.918 35.504 550.402 35.6981 548.121 36.2346L548.58 38.1814ZM555.775 37.504C559.173 37.504 561.955 37.8191 564.335 38.4904L564.878 36.5655C562.266 35.8289 559.288 35.504 555.775 35.504V37.504ZM564.328 38.4886C566.684 39.1705 568.306 40.0082 569.359 41.006L570.734 39.554C569.355 38.2478 567.393 37.2935 564.885 36.5674L564.328 38.4886ZM569.339 40.9871C570.515 42.1624 571.309 43.2072 571.749 44.2521L573.592 43.4759C573.008 42.0888 572.01 40.8296 570.754 39.5729L569.339 40.9871ZM571.767 44.2921C572.273 45.3601 572.503 46.4915 572.503 47.704H574.503C574.503 46.2285 574.22 44.7999 573.574 43.4359L571.767 44.2921ZM659.849 42.136L658.867 42.3248L658.87 42.3429L658.875 42.3609L659.849 42.136ZM651.977 31.256L651.417 32.0843L651.977 31.256ZM642.697 27.544L642.447 28.5123L642.451 28.5132L642.697 27.544ZM612.041 27.544L612.291 28.5123L612.041 27.544ZM602.825 31.256L603.374 32.0918L603.385 32.0843L602.825 31.256ZM597.513 36.568L598.349 37.1167L597.513 36.568ZM594.889 42.136L593.915 41.9111L594.889 42.136ZM594.889 54.232L595.863 54.0071L594.889 54.232ZM597.513 59.864L598.357 59.3271L598.349 59.3153L597.513 59.864ZM602.825 65.24L603.385 64.4116L603.374 64.4043L602.825 65.24ZM612.041 69.016L612.305 68.0516L612.298 68.0496L612.291 68.0477L612.041 69.016ZM642.697 69.016L642.451 68.0468L642.442 68.0491L642.433 68.0516L642.697 69.016ZM651.977 65.24L652.537 66.0683L652.546 66.0627L652.554 66.057L651.977 65.24ZM659.849 54.232L658.875 54.0071L658.87 54.0251L658.867 54.0432L659.849 54.232ZM644.233 52.44L643.329 52.0119L643.316 52.0399L643.305 52.0686L644.233 52.44ZM641.609 56.088L640.921 55.362L640.911 55.3713L640.902 55.3809L641.609 56.088ZM636.169 58.968L636.44 59.9305L636.447 59.9286L636.169 58.968ZM618.569 58.968L618.268 59.9216L618.279 59.9252L618.291 59.9286L618.569 58.968ZM613.065 56.024L612.358 56.7311L612.367 56.7402L612.376 56.749L613.065 56.024ZM610.505 52.312L611.433 51.9406L611.422 51.9119L611.409 51.8839L610.505 52.312ZM610.121 44.632L611.07 44.9482L611.079 44.9192L611.087 44.8897L610.121 44.632ZM611.721 41.688L612.497 42.3186L612.509 42.3035L612.521 42.288L611.721 41.688ZM614.793 39.064L615.275 39.9402L615.291 39.9312L615.307 39.9215L614.793 39.064ZM619.913 37.208L620.142 38.1814L619.913 37.208ZM636.169 37.528L636.447 36.5674L636.44 36.5655L636.169 37.528ZM641.609 40.28L642.316 39.5729L642.307 39.5633L642.297 39.554L641.609 40.28ZM644.233 43.864L643.311 44.2521L643.32 44.2723L643.329 44.2921L644.233 43.864ZM661.425 47.32C661.425 45.456 661.225 43.6524 660.823 41.9111L658.875 42.3609C659.241 43.9476 659.425 45.6 659.425 47.32H661.425ZM660.831 41.9472C660.475 40.0962 659.498 38.1122 658.125 36.0193L656.453 37.1167C657.768 39.1198 658.583 40.8478 658.867 42.3248L660.831 41.9472ZM658.125 36.0193C656.703 33.853 654.815 31.9684 652.537 30.4277L651.417 32.0843C653.491 33.4876 655.187 35.187 656.453 37.1167L658.125 36.0193ZM652.537 30.4277C650.224 28.8628 647.025 27.6115 642.943 26.5748L642.451 28.5132C646.433 29.5245 649.378 30.7052 651.417 32.0843L652.537 30.4277ZM642.947 26.5757C638.877 25.5254 634.117 25.008 628.745 25.008V27.008C633.997 27.008 638.581 27.5146 642.447 28.5123L642.947 26.5757ZM628.745 25.008H625.993V27.008H628.745V25.008ZM625.993 25.008C620.621 25.008 615.861 25.5254 611.791 26.5757L612.291 28.5123C616.157 27.5146 620.741 27.008 625.993 27.008V25.008ZM611.791 26.5757C607.775 27.6123 604.577 28.8635 602.265 30.4277L603.385 32.0843C605.425 30.7045 608.371 29.5237 612.291 28.5123L611.791 26.5757ZM602.276 30.4203C599.917 31.9705 598.093 33.8619 596.677 36.0193L598.349 37.1167C599.621 35.1781 601.253 33.4855 603.374 32.0917L602.276 30.4203ZM596.677 36.0193C595.3 38.1173 594.336 40.0861 593.915 41.9111L595.863 42.3609C596.21 40.8579 597.038 39.1147 598.349 37.1167L596.677 36.0193ZM593.915 41.9111C593.513 43.6524 593.313 45.456 593.313 47.32H595.313C595.313 45.6 595.497 43.9476 595.863 42.3609L593.915 41.9111ZM593.313 47.32V49.048H595.313V47.32H593.313ZM593.313 49.048C593.313 50.912 593.513 52.7156 593.915 54.4569L595.863 54.0071C595.497 52.4204 595.313 50.768 595.313 49.048H593.313ZM593.915 54.4569C594.334 56.275 595.294 58.3057 596.677 60.4127L598.349 59.3153C597.044 57.3263 596.212 55.517 595.863 54.0071L593.915 54.4569ZM596.669 60.4009C598.088 62.6302 599.916 64.5248 602.276 66.0757L603.374 64.4043C601.254 63.0112 599.626 61.3218 598.357 59.3271L596.669 60.4009ZM602.265 66.0683C604.569 67.6272 607.76 68.944 611.791 69.9843L612.291 68.0477C608.386 67.0399 605.433 65.7968 603.385 64.4117L602.265 66.0683ZM611.777 69.9804C615.856 71.0989 620.622 71.616 625.993 71.616V69.616C620.74 69.616 616.162 69.1091 612.305 68.0516L611.777 69.9804ZM625.993 71.616H628.745V69.616H625.993V71.616ZM628.745 71.616C634.116 71.616 638.882 71.0989 642.961 69.9804L642.433 68.0516C638.576 69.1091 633.998 69.616 628.745 69.616V71.616ZM642.943 69.9852C647.04 68.9449 650.232 67.6279 652.537 66.0683L651.417 64.4117C649.37 65.7961 646.418 67.0391 642.451 68.0468L642.943 69.9852ZM652.554 66.057C654.818 64.4587 656.703 62.5793 658.125 60.4127L656.453 59.3153C655.187 61.2447 653.488 62.9493 651.4 64.423L652.554 66.057ZM658.125 60.4127C659.504 58.3107 660.476 56.2651 660.831 54.4208L658.867 54.0432C658.582 55.5268 657.762 57.3213 656.453 59.3153L658.125 60.4127ZM660.823 54.4569C661.225 52.7156 661.425 50.912 661.425 49.048H659.425C659.425 50.768 659.241 52.4204 658.875 54.0071L660.823 54.4569ZM661.425 49.048V47.32H659.425V49.048H661.425ZM644.065 47.704V48.536H646.065V47.704H644.065ZM644.065 48.536C644.065 49.8161 643.834 50.9468 643.329 52.0119L645.137 52.8681C645.784 51.5012 646.065 50.0719 646.065 48.536H644.065ZM643.305 52.0686C642.86 53.179 642.064 54.2794 640.921 55.362L642.297 56.814C643.586 55.5926 644.582 54.261 645.161 52.8114L643.305 52.0686ZM640.902 55.3809C639.846 56.4372 638.226 57.3314 635.891 58.0074L636.447 59.9286C638.976 59.1966 640.94 58.1708 642.316 56.7951L640.902 55.3809ZM635.898 58.0056C633.505 58.6803 630.719 59.056 627.337 59.056V61.056C630.867 61.056 633.841 60.6637 636.44 59.9305L635.898 58.0056ZM627.337 59.056C624.017 59.056 621.169 58.6797 618.847 58.0074L618.291 59.9286C620.833 60.6643 623.873 61.056 627.337 61.056V59.056ZM618.87 58.0144C616.524 57.2735 614.886 56.3748 613.754 55.299L612.376 56.749C613.804 58.1052 615.75 59.1265 618.268 59.9216L618.87 58.0144ZM613.772 55.3169C612.632 54.1766 611.886 53.071 611.433 51.9406L609.577 52.6834C610.148 54.113 611.066 55.4394 612.358 56.7311L613.772 55.3169ZM611.409 51.8839C610.906 50.8217 610.673 49.6277 610.673 48.408H608.673C608.673 49.8763 608.952 51.3703 609.601 52.7401L611.409 51.8839ZM610.673 48.408V47.704H608.673V48.408H610.673ZM610.673 47.704C610.673 46.693 610.792 45.7809 611.07 44.9482L609.172 44.3158C608.81 45.4031 608.673 46.539 608.673 47.704H610.673ZM611.087 44.8897C611.299 44.0963 611.732 43.2604 612.497 42.3186L610.945 41.0574C610.046 42.1636 609.455 43.2477 609.155 44.3743L611.087 44.8897ZM612.521 42.288C613.2 41.3832 614.113 40.5792 615.275 39.9402L614.311 38.1878C612.913 38.9568 611.778 39.9448 610.921 41.088L612.521 42.288ZM615.307 39.9215C616.457 39.2316 618.005 38.6843 620.142 38.1814L619.684 36.2346C617.469 36.7557 615.689 37.3604 614.279 38.2065L615.307 39.9215ZM620.142 38.1814C622.214 37.6939 624.561 37.504 627.337 37.504V35.504C624.481 35.504 621.964 35.6981 619.684 36.2346L620.142 38.1814ZM627.337 37.504C630.735 37.504 633.517 37.8191 635.898 38.4904L636.44 36.5655C633.829 35.8289 630.851 35.504 627.337 35.504V37.504ZM635.891 38.4886C638.247 39.1705 639.868 40.0082 640.921 41.006L642.297 39.554C640.918 38.2478 638.955 37.2935 636.447 36.5674L635.891 38.4886ZM640.902 40.9871C642.077 42.1624 642.871 43.2072 643.311 44.2521L645.155 43.4759C644.571 42.0888 643.573 40.8296 642.316 39.5729L640.902 40.9871ZM643.329 44.2921C643.835 45.3601 644.065 46.4915 644.065 47.704H646.065C646.065 46.2285 645.783 44.7999 645.137 43.4359L643.329 44.2921ZM731.411 42.136L730.43 42.3248L730.433 42.3429L730.437 42.3609L731.411 42.136ZM723.539 31.256L722.979 32.0843L723.539 31.256ZM714.259 27.544L714.01 28.5123L714.013 28.5132L714.259 27.544ZM683.604 27.544L683.853 28.5123H683.853L683.604 27.544ZM674.388 31.256L674.937 32.0918L674.948 32.0843L674.388 31.256ZM669.076 36.568L669.912 37.1167L669.076 36.568ZM666.452 42.136L665.477 41.9111L666.452 42.136ZM666.452 54.232L667.426 54.0071L666.452 54.232ZM669.076 59.864L669.919 59.3271L669.912 59.3153L669.076 59.864ZM674.388 65.24L674.948 64.4116L674.937 64.4043L674.388 65.24ZM683.604 69.016L683.868 68.0516L683.861 68.0496L683.853 68.0477L683.604 69.016ZM714.259 69.016L714.013 68.0468L714.004 68.0491L713.995 68.0516L714.259 69.016ZM723.539 65.24L724.1 66.0683L724.108 66.0627L724.116 66.057L723.539 65.24ZM731.411 54.232L730.437 54.0071L730.433 54.0251L730.43 54.0432L731.411 54.232ZM715.796 52.44L714.892 52.0119L714.879 52.0399L714.867 52.0686L715.796 52.44ZM713.172 56.088L712.484 55.362L712.474 55.3713L712.464 55.3809L713.172 56.088ZM707.732 58.968L708.003 59.9305L708.01 59.9286L707.732 58.968ZM690.132 58.968L689.83 59.9216L689.842 59.9252L689.853 59.9286L690.132 58.968ZM684.628 56.024L683.92 56.7311L683.929 56.7402L683.939 56.749L684.628 56.024ZM682.068 52.312L682.996 51.9406L682.984 51.9119L682.971 51.8839L682.068 52.312ZM681.684 44.632L682.632 44.9482L682.642 44.9192L682.65 44.8897L681.684 44.632ZM683.284 41.688L684.06 42.3186L684.072 42.3035L684.083 42.288L683.284 41.688ZM686.355 39.064L686.837 39.9402L686.854 39.9312L686.87 39.9215L686.355 39.064ZM691.475 37.208L691.705 38.1814L691.475 37.208ZM707.732 37.528L708.01 36.5674L708.003 36.5655L707.732 37.528ZM713.172 40.28L713.879 39.5729L713.869 39.5633L713.859 39.554L713.172 40.28ZM715.796 43.864L714.874 44.2521L714.882 44.2723L714.892 44.2921L715.796 43.864ZM732.987 47.32C732.987 45.456 732.788 43.6524 732.386 41.9111L730.437 42.3609C730.803 43.9476 730.987 45.6 730.987 47.32H732.987ZM732.394 41.9472C732.038 40.0962 731.061 38.1122 729.688 36.0193L728.015 37.1167C729.33 39.1198 730.145 40.8478 730.43 42.3248L732.394 41.9472ZM729.688 36.0193C728.266 33.853 726.377 31.9684 724.1 30.4277L722.979 32.0843C725.054 33.4876 726.749 35.187 728.015 37.1167L729.688 36.0193ZM724.1 30.4277C721.786 28.8628 718.588 27.6115 714.506 26.5748L714.013 28.5132C717.995 29.5245 720.94 30.7052 722.979 32.0843L724.1 30.4277ZM714.509 26.5757C710.439 25.5254 705.68 25.008 700.307 25.008V27.008C705.559 27.008 710.144 27.5146 714.01 28.5123L714.509 26.5757ZM700.307 25.008H697.556V27.008H700.307V25.008ZM697.556 25.008C692.183 25.008 687.424 25.5254 683.354 26.5757L683.853 28.5123C687.719 27.5146 692.304 27.008 697.556 27.008V25.008ZM683.354 26.5757C679.337 27.6123 676.139 28.8635 673.827 30.4277L674.948 32.0843C676.988 30.7045 679.934 29.5237 683.853 28.5123L683.354 26.5757ZM673.838 30.4203C671.479 31.9705 669.655 33.8619 668.239 36.0193L669.912 37.1167C671.184 35.1781 672.816 33.4855 674.937 32.0917L673.838 30.4203ZM668.239 36.0193C666.863 38.1173 665.898 40.0861 665.477 41.9111L667.426 42.3609C667.773 40.8579 668.6 39.1147 669.912 37.1167L668.239 36.0193ZM665.477 41.9111C665.075 43.6524 664.875 45.456 664.875 47.32H666.875C666.875 45.6 667.06 43.9476 667.426 42.3609L665.477 41.9111ZM664.875 47.32V49.048H666.875V47.32H664.875ZM664.875 49.048C664.875 50.912 665.075 52.7156 665.477 54.4569L667.426 54.0071C667.06 52.4204 666.875 50.768 666.875 49.048H664.875ZM665.477 54.4569C665.897 56.275 666.857 58.3057 668.239 60.4127L669.912 59.3153C668.606 57.3263 667.774 55.517 667.426 54.0071L665.477 54.4569ZM668.232 60.4009C669.651 62.6302 671.478 64.5248 673.838 66.0757L674.937 64.4043C672.817 63.0112 671.188 61.3218 669.919 59.3271L668.232 60.4009ZM673.827 66.0683C676.132 67.6272 679.323 68.944 683.354 69.9843L683.853 68.0477C679.948 67.0399 676.995 65.7968 674.948 64.4117L673.827 66.0683ZM683.339 69.9804C687.418 71.0989 692.184 71.616 697.556 71.616V69.616C692.303 69.616 687.725 69.1091 683.868 68.0516L683.339 69.9804ZM697.556 71.616H700.307V69.616H697.556V71.616ZM700.307 71.616C705.679 71.616 710.445 71.0989 714.524 69.9804L713.995 68.0516C710.138 69.1091 705.56 69.616 700.307 69.616V71.616ZM714.506 69.9852C718.602 68.9449 721.794 67.6279 724.1 66.0683L722.979 64.4117C720.933 65.7961 717.981 67.0391 714.013 68.0468L714.506 69.9852ZM724.116 66.057C726.38 64.4587 728.266 62.5793 729.688 60.4127L728.015 59.3153C726.749 61.2447 725.051 62.9493 722.963 64.423L724.116 66.057ZM729.688 60.4127C731.067 58.3107 732.039 56.2651 732.394 54.4208L730.43 54.0432C730.144 55.5268 729.324 57.3213 728.015 59.3153L729.688 60.4127ZM732.386 54.4569C732.788 52.7156 732.987 50.912 732.987 49.048H730.987C730.987 50.768 730.803 52.4204 730.437 54.0071L732.386 54.4569ZM732.987 49.048V47.32H730.987V49.048H732.987ZM715.628 47.704V48.536H717.628V47.704H715.628ZM715.628 48.536C715.628 49.8161 715.396 50.9468 714.892 52.0119L716.699 52.8681C717.347 51.5012 717.628 50.0719 717.628 48.536H715.628ZM714.867 52.0686C714.423 53.179 713.627 54.2794 712.484 55.362L713.859 56.814C715.148 55.5926 716.144 54.261 716.724 52.8114L714.867 52.0686ZM712.464 55.3809C711.408 56.4372 709.789 57.3314 707.453 58.0074L708.01 59.9286C710.538 59.1966 712.503 58.1708 713.879 56.7951L712.464 55.3809ZM707.46 58.0056C705.068 58.6803 702.281 59.056 698.9 59.056V61.056C702.43 61.056 705.403 60.6637 708.003 59.9305L707.46 58.0056ZM698.9 59.056C695.579 59.056 692.732 58.6797 690.41 58.0074L689.853 59.9286C692.395 60.6643 695.436 61.056 698.9 61.056V59.056ZM690.433 58.0144C688.087 57.2735 686.449 56.3748 685.316 55.299L683.939 56.749C685.366 58.1052 687.312 59.1265 689.83 59.9216L690.433 58.0144ZM685.335 55.3169C684.194 54.1766 683.448 53.071 682.996 51.9406L681.139 52.6834C681.711 54.113 682.629 55.4394 683.92 56.7311L685.335 55.3169ZM682.971 51.8839C682.468 50.8217 682.236 49.6277 682.236 48.408H680.236C680.236 49.8763 680.515 51.3703 681.164 52.7401L682.971 51.8839ZM682.236 48.408V47.704H680.236V48.408H682.236ZM682.236 47.704C682.236 46.693 682.355 45.7809 682.632 44.9482L680.735 44.3158C680.372 45.4031 680.236 46.539 680.236 47.704H682.236ZM682.65 44.8897C682.861 44.0963 683.294 43.2604 684.06 42.3186L682.507 41.0574C681.609 42.1636 681.018 43.2477 680.717 44.3743L682.65 44.8897ZM684.083 42.288C684.762 41.3832 685.676 40.5792 686.837 39.9402L685.874 38.1878C684.475 38.9568 683.341 39.9448 682.483 41.088L684.083 42.288ZM686.87 39.9215C688.02 39.2316 689.567 38.6843 691.705 38.1814L691.246 36.2346C689.032 36.7557 687.251 37.3604 685.841 38.2065L686.87 39.9215ZM691.705 38.1814C693.776 37.6939 696.124 37.504 698.9 37.504V35.504C696.043 35.504 693.527 35.6981 691.246 36.2346L691.705 38.1814ZM698.9 37.504C702.298 37.504 705.08 37.8191 707.46 38.4904L708.003 36.5655C705.391 35.8289 702.413 35.504 698.9 35.504V37.504ZM707.453 38.4886C709.809 39.1705 711.431 40.0082 712.484 41.006L713.859 39.554C712.48 38.2478 710.518 37.2935 708.01 36.5674L707.453 38.4886ZM712.464 40.9871C713.64 42.1624 714.434 43.2072 714.874 44.2521L716.717 43.4759C716.133 42.0888 715.135 40.8296 713.879 39.5729L712.464 40.9871ZM714.892 44.2921C715.398 45.3601 715.628 46.4915 715.628 47.704H717.628C717.628 46.2285 717.345 44.7999 716.699 43.4359L714.892 44.2921Z" fill="black"/>
<line x1="1" y1="48.5" x2="361" y2="48.5" stroke="black"/>
<path d="M21 28L1 48.5L21 69" stroke="black"/>
<line x1="765" y1="48.5" x2="1125" y2="48.5" stroke="black"/>
<path d="M1105 28L1125 48.5L1105 69" stroke="black"/>
</svg>
