<svg width="185" height="46" viewBox="0 0 185 46" fill="none" xmlns="http://www.w3.org/2000/svg">
<path d="M0.5 22.851C0.5 10.5069 10.5069 0.5 22.851 0.5H161.533C173.877 0.5 183.884 10.5069 183.884 22.851C183.884 35.1951 173.877 45.202 161.533 45.202H22.851C10.5069 45.202 0.5 35.1951 0.5 22.851Z" fill="black" stroke="black"/>
<path d="M42.8145 13.7742C41.7122 14.2523 40.5464 14.5684 39.3535 14.7126C40.612 13.9609 41.5552 12.7782 42.0079 11.384C40.8252 12.0879 39.5306 12.5839 38.1802 12.8504C37.2776 11.8717 36.0757 11.2202 34.7629 10.9981C33.4501 10.7761 32.1007 10.9959 30.9263 11.6233C29.752 12.2506 28.8191 13.25 28.274 14.4646C27.7289 15.6792 27.6024 17.0403 27.9143 18.3346C25.523 18.2136 23.1838 17.591 21.0489 16.5073C18.9139 15.4235 17.0308 13.9028 15.5219 12.0439C14.9927 12.9679 14.7146 14.0144 14.7153 15.0792C14.7134 16.0681 14.9561 17.0421 15.4218 17.9145C15.8875 18.7869 16.5617 19.5307 17.3844 20.0795C16.4282 20.0535 15.4924 19.797 14.6566 19.3317V19.405C14.6638 20.7905 15.1494 22.1311 16.0313 23.1999C16.9131 24.2687 18.1372 25.0001 19.4963 25.2704C18.9731 25.4296 18.4299 25.5136 17.8831 25.5197C17.5045 25.5153 17.1269 25.481 16.7538 25.4171C17.1409 26.609 17.8898 27.6506 18.8966 28.397C19.9033 29.1434 21.1177 29.5574 22.3707 29.5815C20.2548 31.2463 17.6424 32.1548 14.95 32.1623C14.4597 32.164 13.9699 32.1346 13.4834 32.0744C16.2324 33.849 19.4359 34.7911 22.708 34.7871C24.9661 34.8106 27.2062 34.3839 29.2974 33.532C31.3887 32.6802 33.2893 31.4202 34.8881 29.8257C36.4869 28.2312 37.7519 26.3341 38.6093 24.2453C39.4666 22.1565 39.8991 19.9178 39.8814 17.66C39.8814 17.4107 39.8814 17.1468 39.8814 16.8829C41.0322 16.0248 42.0247 14.9728 42.8145 13.7742Z" fill="white"/>
<path d="M61.436 30.022H66.738V18.274H73.976V14.622H54.22V18.274H61.436V30.022ZM85.5468 29.956L88.5168 22.608L91.4648 29.956H96.7888L101.453 18.868H96.7888L94.1048 25.952L91.2888 18.868H86.0308L83.3028 25.952L80.5528 18.868H75.3388L80.3328 29.956H85.5468ZM108.714 14.6H103.72V17.768H108.714V14.6ZM108.714 18.846H103.72V29.956H108.714V18.846ZM116.327 29.89H120.661V26.854H119.297C118.879 26.854 118.615 26.766 118.483 26.612C118.351 26.458 118.285 26.216 118.285 25.886V21.86H120.661V18.802H118.285V15.568H113.335V18.802H110.981V21.86H113.335V26.744C113.335 28.856 114.325 29.89 116.327 29.89ZM128.273 29.89H132.607V26.854H131.243C130.825 26.854 130.561 26.766 130.429 26.612C130.297 26.458 130.231 26.216 130.231 25.886V21.86H132.607V18.802H130.231V15.568H125.281V18.802H122.927V21.86H125.281V26.744C125.281 28.856 126.271 29.89 128.273 29.89ZM152.956 25.908V25.886H148.006C148.006 25.974 147.962 26.062 147.896 26.15C147.852 26.238 147.72 26.348 147.566 26.502C147.39 26.634 147.17 26.766 146.884 26.876C146.62 27.008 146.246 27.096 145.762 27.184C145.278 27.272 144.706 27.316 144.09 27.316H144.068C141.538 27.316 140.108 26.59 139.778 25.138H153.022V24.39C153.022 20.386 150.228 18.406 144.618 18.406H143.254C141.67 18.406 140.328 18.56 139.184 18.868C138.062 19.176 137.182 19.594 136.588 20.144C135.972 20.694 135.532 21.266 135.268 21.904C135.004 22.542 134.872 23.224 134.872 23.994V24.434C134.872 25.204 135.004 25.93 135.29 26.568C135.598 27.206 136.06 27.8 136.676 28.35C137.314 28.9 138.194 29.34 139.338 29.648C140.482 29.956 141.824 30.11 143.386 30.11H144.662C146.048 30.11 147.258 30.022 148.292 29.824C149.348 29.626 150.14 29.362 150.712 29.076C151.284 28.768 151.746 28.438 152.12 28.02C152.472 27.624 152.692 27.272 152.802 26.92C152.912 26.59 152.956 26.26 152.956 25.908ZM143.914 20.98C146.268 20.98 147.61 21.596 147.962 22.85H139.866C140.284 21.596 141.626 20.98 143.892 20.98H143.914ZM164.588 18.296C163.708 18.296 162.938 18.45 162.212 18.758C161.508 19.066 161.002 19.374 160.694 19.66C160.408 19.946 160.166 20.254 159.968 20.54V18.538H155.282V29.89H159.99V24.038C159.99 23.246 160.21 22.608 160.65 22.08C161.09 21.552 161.904 21.354 162.476 21.288C163.048 21.222 169.802 21.288 169.802 21.288V18.296H164.588Z" fill="white"/>
</svg>
